G04 MADE WITH FRITZING*
G04 WWW.FRITZING.ORG*
G04 DOUBLE SIDED*
G04 HOLES PLATED*
G04 CONTOUR ON CENTER OF CONTOUR VECTOR*
%ASAXBY*%
%FSLAX23Y23*%
%MOIN*%
%OFA0B0*%
%SFA1.0B1.0*%
%ADD10C,0.070004*%
%ADD11C,0.070000*%
%ADD12C,0.090000*%
%ADD13C,0.085000*%
%ADD14C,0.072992*%
%ADD15C,0.128740*%
%ADD16C,0.085433*%
%ADD17R,0.090000X0.090000*%
%ADD18R,0.072992X0.072992*%
%ADD19R,0.128740X0.128740*%
%ADD20R,0.001000X0.001000*%
%LNMASK0*%
G90*
G70*
G54D10*
X544Y646D03*
G54D11*
X744Y646D03*
X944Y646D03*
X1144Y646D03*
G54D12*
X1078Y2709D03*
X1078Y2409D03*
G54D13*
X2811Y1172D03*
X2811Y1372D03*
X2804Y783D03*
X2804Y583D03*
G54D14*
X2804Y1616D03*
X2804Y1518D03*
X362Y2532D03*
X461Y2532D03*
G54D15*
X2784Y206D03*
X2584Y206D03*
X2384Y206D03*
X2184Y206D03*
X1984Y206D03*
X1784Y206D03*
X1584Y206D03*
X1384Y206D03*
X1184Y206D03*
X984Y206D03*
X784Y206D03*
X584Y206D03*
X384Y206D03*
X184Y206D03*
X203Y3138D03*
X403Y3138D03*
X603Y3138D03*
X803Y3138D03*
X1003Y3138D03*
X1203Y3138D03*
X1403Y3138D03*
X1603Y3138D03*
X1803Y3138D03*
X2003Y3138D03*
X2203Y3138D03*
X2403Y3138D03*
X2603Y3138D03*
X2803Y3138D03*
G54D13*
X183Y2251D03*
X183Y2451D03*
G54D10*
X515Y2032D03*
G54D11*
X715Y2032D03*
X915Y2032D03*
X1115Y2032D03*
G54D10*
X531Y1703D03*
G54D11*
X731Y1703D03*
X931Y1703D03*
X1131Y1703D03*
G54D10*
X535Y1342D03*
G54D11*
X735Y1342D03*
X935Y1342D03*
X1135Y1342D03*
G54D10*
X538Y997D03*
G54D11*
X738Y997D03*
X938Y997D03*
X1138Y997D03*
G54D16*
X803Y1538D03*
X815Y458D03*
X1014Y2136D03*
X1055Y1578D03*
X737Y807D03*
X555Y1544D03*
X935Y2490D03*
X1191Y2156D03*
X2244Y2238D03*
X994Y2313D03*
X2136Y2569D03*
X172Y1541D03*
G54D17*
X1078Y2709D03*
G54D18*
X2804Y1616D03*
X362Y2532D03*
G54D19*
X2784Y206D03*
X203Y3138D03*
G54D20*
X1506Y2477D02*
X1522Y2477D01*
X2507Y2477D02*
X2523Y2477D01*
X1502Y2476D02*
X1526Y2476D01*
X2503Y2476D02*
X2527Y2476D01*
X1499Y2475D02*
X1529Y2475D01*
X2500Y2475D02*
X2530Y2475D01*
X1497Y2474D02*
X1531Y2474D01*
X2498Y2474D02*
X2532Y2474D01*
X1495Y2473D02*
X1533Y2473D01*
X2496Y2473D02*
X2534Y2473D01*
X1493Y2472D02*
X1535Y2472D01*
X2494Y2472D02*
X2536Y2472D01*
X1491Y2471D02*
X1536Y2471D01*
X2493Y2471D02*
X2538Y2471D01*
X1490Y2470D02*
X1538Y2470D01*
X2491Y2470D02*
X2539Y2470D01*
X1488Y2469D02*
X1539Y2469D01*
X2490Y2469D02*
X2541Y2469D01*
X1487Y2468D02*
X1540Y2468D01*
X2489Y2468D02*
X2542Y2468D01*
X1486Y2467D02*
X1542Y2467D01*
X2487Y2467D02*
X2543Y2467D01*
X1485Y2466D02*
X1543Y2466D01*
X2486Y2466D02*
X2544Y2466D01*
X1484Y2465D02*
X1544Y2465D01*
X2485Y2465D02*
X2545Y2465D01*
X1483Y2464D02*
X1545Y2464D01*
X2484Y2464D02*
X2546Y2464D01*
X1482Y2463D02*
X1545Y2463D01*
X2484Y2463D02*
X2547Y2463D01*
X1481Y2462D02*
X1546Y2462D01*
X2483Y2462D02*
X2548Y2462D01*
X1481Y2461D02*
X1547Y2461D01*
X2482Y2461D02*
X2548Y2461D01*
X1480Y2460D02*
X1548Y2460D01*
X2481Y2460D02*
X2549Y2460D01*
X1479Y2459D02*
X1548Y2459D01*
X2481Y2459D02*
X2550Y2459D01*
X1479Y2458D02*
X1549Y2458D01*
X2480Y2458D02*
X2550Y2458D01*
X1478Y2457D02*
X1550Y2457D01*
X2479Y2457D02*
X2551Y2457D01*
X1477Y2456D02*
X1550Y2456D01*
X2479Y2456D02*
X2552Y2456D01*
X1477Y2455D02*
X1551Y2455D01*
X2478Y2455D02*
X2552Y2455D01*
X1476Y2454D02*
X1551Y2454D01*
X2478Y2454D02*
X2553Y2454D01*
X1476Y2453D02*
X1552Y2453D01*
X2477Y2453D02*
X2553Y2453D01*
X1475Y2452D02*
X1552Y2452D01*
X2477Y2452D02*
X2554Y2452D01*
X1475Y2451D02*
X1553Y2451D01*
X2476Y2451D02*
X2554Y2451D01*
X1475Y2450D02*
X1553Y2450D01*
X2476Y2450D02*
X2554Y2450D01*
X1474Y2449D02*
X1553Y2449D01*
X2476Y2449D02*
X2555Y2449D01*
X1474Y2448D02*
X1554Y2448D01*
X2475Y2448D02*
X2555Y2448D01*
X1474Y2447D02*
X1554Y2447D01*
X2475Y2447D02*
X2555Y2447D01*
X1474Y2446D02*
X1554Y2446D01*
X2475Y2446D02*
X2555Y2446D01*
X1473Y2445D02*
X1554Y2445D01*
X2475Y2445D02*
X2556Y2445D01*
X1473Y2444D02*
X1555Y2444D01*
X2475Y2444D02*
X2556Y2444D01*
X1473Y2443D02*
X1555Y2443D01*
X2474Y2443D02*
X2556Y2443D01*
X1473Y2442D02*
X1555Y2442D01*
X2474Y2442D02*
X2556Y2442D01*
X1473Y2441D02*
X1555Y2441D01*
X2474Y2441D02*
X2556Y2441D01*
X1472Y2440D02*
X1555Y2440D01*
X2474Y2440D02*
X2557Y2440D01*
X1472Y2439D02*
X1555Y2439D01*
X2474Y2439D02*
X2557Y2439D01*
X1472Y2438D02*
X1555Y2438D01*
X2474Y2438D02*
X2557Y2438D01*
X1472Y2437D02*
X1555Y2437D01*
X2474Y2437D02*
X2557Y2437D01*
X1472Y2436D02*
X1555Y2436D01*
X2474Y2436D02*
X2557Y2436D01*
X1472Y2435D02*
X1555Y2435D01*
X2474Y2435D02*
X2557Y2435D01*
X1472Y2434D02*
X1555Y2434D01*
X2474Y2434D02*
X2557Y2434D01*
X1472Y2433D02*
X1555Y2433D01*
X2474Y2433D02*
X2557Y2433D01*
X1472Y2432D02*
X1555Y2432D01*
X2474Y2432D02*
X2557Y2432D01*
X1473Y2431D02*
X1555Y2431D01*
X2474Y2431D02*
X2556Y2431D01*
X1473Y2430D02*
X1555Y2430D01*
X2474Y2430D02*
X2556Y2430D01*
X1473Y2429D02*
X1555Y2429D01*
X2474Y2429D02*
X2556Y2429D01*
X1473Y2428D02*
X1555Y2428D01*
X2475Y2428D02*
X2556Y2428D01*
X1473Y2427D02*
X1554Y2427D01*
X2475Y2427D02*
X2556Y2427D01*
X1474Y2426D02*
X1554Y2426D01*
X2475Y2426D02*
X2555Y2426D01*
X1474Y2425D02*
X1554Y2425D01*
X2475Y2425D02*
X2555Y2425D01*
X1474Y2424D02*
X1554Y2424D01*
X2475Y2424D02*
X2555Y2424D01*
X1474Y2423D02*
X1553Y2423D01*
X2476Y2423D02*
X2555Y2423D01*
X1475Y2422D02*
X1553Y2422D01*
X2476Y2422D02*
X2554Y2422D01*
X1475Y2421D02*
X1553Y2421D01*
X2476Y2421D02*
X2554Y2421D01*
X1475Y2420D02*
X1552Y2420D01*
X2477Y2420D02*
X2554Y2420D01*
X1476Y2419D02*
X1552Y2419D01*
X2477Y2419D02*
X2553Y2419D01*
X1476Y2418D02*
X1551Y2418D01*
X2478Y2418D02*
X2553Y2418D01*
X1477Y2417D02*
X1551Y2417D01*
X2478Y2417D02*
X2552Y2417D01*
X1477Y2416D02*
X1550Y2416D01*
X2479Y2416D02*
X2552Y2416D01*
X1478Y2415D02*
X1550Y2415D01*
X2479Y2415D02*
X2551Y2415D01*
X1479Y2414D02*
X1549Y2414D01*
X2480Y2414D02*
X2550Y2414D01*
X1479Y2413D02*
X1548Y2413D01*
X2481Y2413D02*
X2550Y2413D01*
X1480Y2412D02*
X1548Y2412D01*
X2481Y2412D02*
X2549Y2412D01*
X1481Y2411D02*
X1547Y2411D01*
X2482Y2411D02*
X2548Y2411D01*
X1481Y2410D02*
X1546Y2410D01*
X2483Y2410D02*
X2548Y2410D01*
X1482Y2409D02*
X1546Y2409D01*
X2483Y2409D02*
X2547Y2409D01*
X1483Y2408D02*
X1545Y2408D01*
X2484Y2408D02*
X2546Y2408D01*
X1484Y2407D02*
X1544Y2407D01*
X2485Y2407D02*
X2545Y2407D01*
X1485Y2406D02*
X1543Y2406D01*
X2486Y2406D02*
X2544Y2406D01*
X1486Y2405D02*
X1542Y2405D01*
X2487Y2405D02*
X2543Y2405D01*
X1487Y2404D02*
X1541Y2404D01*
X2488Y2404D02*
X2542Y2404D01*
X1488Y2403D02*
X1539Y2403D01*
X2490Y2403D02*
X2541Y2403D01*
X1490Y2402D02*
X1538Y2402D01*
X2491Y2402D02*
X2539Y2402D01*
X1491Y2401D02*
X1537Y2401D01*
X2492Y2401D02*
X2538Y2401D01*
X1493Y2400D02*
X1535Y2400D01*
X2494Y2400D02*
X2536Y2400D01*
X1494Y2399D02*
X1533Y2399D01*
X2496Y2399D02*
X2535Y2399D01*
X1496Y2398D02*
X1531Y2398D01*
X2498Y2398D02*
X2533Y2398D01*
X1499Y2397D02*
X1529Y2397D01*
X2500Y2397D02*
X2531Y2397D01*
X1501Y2396D02*
X1526Y2396D01*
X2503Y2396D02*
X2528Y2396D01*
X1505Y2395D02*
X1522Y2395D01*
X2507Y2395D02*
X2524Y2395D01*
X1512Y2394D02*
X1515Y2394D01*
X2514Y2394D02*
X2517Y2394D01*
X1506Y2377D02*
X1521Y2377D01*
X2508Y2377D02*
X2523Y2377D01*
X1502Y2376D02*
X1526Y2376D01*
X2503Y2376D02*
X2527Y2376D01*
X1499Y2375D02*
X1528Y2375D01*
X2501Y2375D02*
X2530Y2375D01*
X1497Y2374D02*
X1531Y2374D01*
X2498Y2374D02*
X2532Y2374D01*
X1495Y2373D02*
X1533Y2373D01*
X2496Y2373D02*
X2534Y2373D01*
X1493Y2372D02*
X1535Y2372D01*
X2494Y2372D02*
X2536Y2372D01*
X1491Y2371D02*
X1536Y2371D01*
X2493Y2371D02*
X2538Y2371D01*
X1490Y2370D02*
X1538Y2370D01*
X2491Y2370D02*
X2539Y2370D01*
X1489Y2369D02*
X1539Y2369D01*
X2490Y2369D02*
X2540Y2369D01*
X1487Y2368D02*
X1540Y2368D01*
X2489Y2368D02*
X2542Y2368D01*
X1486Y2367D02*
X1541Y2367D01*
X2488Y2367D02*
X2543Y2367D01*
X1485Y2366D02*
X1543Y2366D01*
X2486Y2366D02*
X2544Y2366D01*
X1484Y2365D02*
X1544Y2365D01*
X2485Y2365D02*
X2545Y2365D01*
X1483Y2364D02*
X1544Y2364D01*
X2485Y2364D02*
X2546Y2364D01*
X1482Y2363D02*
X1545Y2363D01*
X2484Y2363D02*
X2547Y2363D01*
X1481Y2362D02*
X1546Y2362D01*
X2483Y2362D02*
X2548Y2362D01*
X1481Y2361D02*
X1547Y2361D01*
X2482Y2361D02*
X2548Y2361D01*
X1480Y2360D02*
X1548Y2360D01*
X2481Y2360D02*
X2549Y2360D01*
X1479Y2359D02*
X1548Y2359D01*
X2481Y2359D02*
X2550Y2359D01*
X1479Y2358D02*
X1549Y2358D01*
X2480Y2358D02*
X2550Y2358D01*
X1478Y2357D02*
X1550Y2357D01*
X2479Y2357D02*
X2551Y2357D01*
X1477Y2356D02*
X1550Y2356D01*
X2479Y2356D02*
X2552Y2356D01*
X1477Y2355D02*
X1551Y2355D01*
X2478Y2355D02*
X2552Y2355D01*
X1476Y2354D02*
X1551Y2354D01*
X2478Y2354D02*
X2553Y2354D01*
X1476Y2353D02*
X1552Y2353D01*
X2477Y2353D02*
X2553Y2353D01*
X1475Y2352D02*
X1552Y2352D01*
X2477Y2352D02*
X2554Y2352D01*
X1475Y2351D02*
X1552Y2351D01*
X2477Y2351D02*
X2554Y2351D01*
X1475Y2350D02*
X1553Y2350D01*
X2476Y2350D02*
X2554Y2350D01*
X1474Y2349D02*
X1553Y2349D01*
X2476Y2349D02*
X2555Y2349D01*
X1474Y2348D02*
X1553Y2348D01*
X2476Y2348D02*
X2555Y2348D01*
X1474Y2347D02*
X1554Y2347D01*
X2475Y2347D02*
X2555Y2347D01*
X1474Y2346D02*
X1554Y2346D01*
X2475Y2346D02*
X2555Y2346D01*
X1473Y2345D02*
X1554Y2345D01*
X2475Y2345D02*
X2556Y2345D01*
X1473Y2344D02*
X1554Y2344D01*
X2475Y2344D02*
X2556Y2344D01*
X1473Y2343D02*
X1555Y2343D01*
X2474Y2343D02*
X2556Y2343D01*
X1473Y2342D02*
X1555Y2342D01*
X2474Y2342D02*
X2556Y2342D01*
X1473Y2341D02*
X1555Y2341D01*
X2474Y2341D02*
X2556Y2341D01*
X1473Y2340D02*
X1555Y2340D01*
X2474Y2340D02*
X2557Y2340D01*
X1472Y2339D02*
X1555Y2339D01*
X2474Y2339D02*
X2557Y2339D01*
X1472Y2338D02*
X1555Y2338D01*
X2474Y2338D02*
X2557Y2338D01*
X1472Y2337D02*
X1555Y2337D01*
X2474Y2337D02*
X2557Y2337D01*
X1472Y2336D02*
X1555Y2336D01*
X2474Y2336D02*
X2557Y2336D01*
X1472Y2335D02*
X1555Y2335D01*
X2474Y2335D02*
X2557Y2335D01*
X1472Y2334D02*
X1555Y2334D01*
X2474Y2334D02*
X2557Y2334D01*
X1472Y2333D02*
X1555Y2333D01*
X2474Y2333D02*
X2557Y2333D01*
X1472Y2332D02*
X1555Y2332D01*
X2474Y2332D02*
X2557Y2332D01*
X1473Y2331D02*
X1555Y2331D01*
X2474Y2331D02*
X2556Y2331D01*
X1473Y2330D02*
X1555Y2330D01*
X2474Y2330D02*
X2556Y2330D01*
X1473Y2329D02*
X1555Y2329D01*
X2474Y2329D02*
X2556Y2329D01*
X1473Y2328D02*
X1555Y2328D01*
X2474Y2328D02*
X2556Y2328D01*
X1473Y2327D02*
X1554Y2327D01*
X2475Y2327D02*
X2556Y2327D01*
X1474Y2326D02*
X1554Y2326D01*
X2475Y2326D02*
X2555Y2326D01*
X1474Y2325D02*
X1554Y2325D01*
X2475Y2325D02*
X2555Y2325D01*
X1474Y2324D02*
X1554Y2324D01*
X2475Y2324D02*
X2555Y2324D01*
X1474Y2323D02*
X1553Y2323D01*
X2476Y2323D02*
X2555Y2323D01*
X1475Y2322D02*
X1553Y2322D01*
X2476Y2322D02*
X2554Y2322D01*
X1475Y2321D02*
X1553Y2321D01*
X2476Y2321D02*
X2554Y2321D01*
X1475Y2320D02*
X1552Y2320D01*
X2477Y2320D02*
X2554Y2320D01*
X1476Y2319D02*
X1552Y2319D01*
X2477Y2319D02*
X2553Y2319D01*
X1476Y2318D02*
X1551Y2318D01*
X2478Y2318D02*
X2553Y2318D01*
X1477Y2317D02*
X1551Y2317D01*
X2478Y2317D02*
X2552Y2317D01*
X1477Y2316D02*
X1550Y2316D01*
X2479Y2316D02*
X2552Y2316D01*
X1478Y2315D02*
X1550Y2315D01*
X2479Y2315D02*
X2551Y2315D01*
X1478Y2314D02*
X1549Y2314D01*
X2480Y2314D02*
X2551Y2314D01*
X1479Y2313D02*
X1549Y2313D01*
X2480Y2313D02*
X2550Y2313D01*
X1480Y2312D02*
X1548Y2312D01*
X2481Y2312D02*
X2549Y2312D01*
X1480Y2311D02*
X1547Y2311D01*
X2482Y2311D02*
X2549Y2311D01*
X1481Y2310D02*
X1546Y2310D01*
X2483Y2310D02*
X2548Y2310D01*
X1482Y2309D02*
X1546Y2309D01*
X2483Y2309D02*
X2547Y2309D01*
X1483Y2308D02*
X1545Y2308D01*
X2484Y2308D02*
X2546Y2308D01*
X1484Y2307D02*
X1544Y2307D01*
X2485Y2307D02*
X2545Y2307D01*
X1485Y2306D02*
X1543Y2306D01*
X2486Y2306D02*
X2544Y2306D01*
X1486Y2305D02*
X1542Y2305D01*
X2487Y2305D02*
X2543Y2305D01*
X1487Y2304D02*
X1541Y2304D01*
X2488Y2304D02*
X2542Y2304D01*
X1488Y2303D02*
X1539Y2303D01*
X2490Y2303D02*
X2541Y2303D01*
X1489Y2302D02*
X1538Y2302D01*
X2491Y2302D02*
X2540Y2302D01*
X1491Y2301D02*
X1537Y2301D01*
X2492Y2301D02*
X2538Y2301D01*
X1492Y2300D02*
X1535Y2300D01*
X2494Y2300D02*
X2537Y2300D01*
X1494Y2299D02*
X1534Y2299D01*
X2496Y2299D02*
X2535Y2299D01*
X1496Y2298D02*
X1532Y2298D01*
X2497Y2298D02*
X2533Y2298D01*
X1498Y2297D02*
X1529Y2297D01*
X2500Y2297D02*
X2531Y2297D01*
X1501Y2296D02*
X1527Y2296D01*
X2502Y2296D02*
X2528Y2296D01*
X1505Y2295D02*
X1523Y2295D01*
X2506Y2295D02*
X2524Y2295D01*
X1510Y2294D02*
X1517Y2294D01*
X2512Y2294D02*
X2519Y2294D01*
X1507Y2277D02*
X1521Y2277D01*
X2508Y2277D02*
X2522Y2277D01*
X1503Y2276D02*
X1525Y2276D01*
X2504Y2276D02*
X2526Y2276D01*
X1500Y2275D02*
X1528Y2275D01*
X2501Y2275D02*
X2529Y2275D01*
X1497Y2274D02*
X1531Y2274D01*
X2498Y2274D02*
X2532Y2274D01*
X1495Y2273D02*
X1533Y2273D01*
X2496Y2273D02*
X2534Y2273D01*
X1493Y2272D02*
X1534Y2272D01*
X2495Y2272D02*
X2536Y2272D01*
X1492Y2271D02*
X1536Y2271D01*
X2493Y2271D02*
X2537Y2271D01*
X1490Y2270D02*
X1537Y2270D01*
X2492Y2270D02*
X2539Y2270D01*
X1489Y2269D02*
X1539Y2269D01*
X2490Y2269D02*
X2540Y2269D01*
X1487Y2268D02*
X1540Y2268D01*
X2489Y2268D02*
X2542Y2268D01*
X1486Y2267D02*
X1541Y2267D01*
X2488Y2267D02*
X2543Y2267D01*
X1485Y2266D02*
X1542Y2266D01*
X2487Y2266D02*
X2544Y2266D01*
X1484Y2265D02*
X1543Y2265D01*
X2486Y2265D02*
X2545Y2265D01*
X1483Y2264D02*
X1544Y2264D01*
X2485Y2264D02*
X2546Y2264D01*
X1482Y2263D02*
X1545Y2263D01*
X2484Y2263D02*
X2547Y2263D01*
X1482Y2262D02*
X1546Y2262D01*
X2483Y2262D02*
X2547Y2262D01*
X1481Y2261D02*
X1547Y2261D01*
X2482Y2261D02*
X2548Y2261D01*
X1480Y2260D02*
X1547Y2260D01*
X2482Y2260D02*
X2549Y2260D01*
X1479Y2259D02*
X1548Y2259D01*
X2481Y2259D02*
X2550Y2259D01*
X1479Y2258D02*
X1549Y2258D01*
X2480Y2258D02*
X2550Y2258D01*
X1478Y2257D02*
X1549Y2257D01*
X2480Y2257D02*
X2551Y2257D01*
X1478Y2256D02*
X1550Y2256D01*
X2479Y2256D02*
X2551Y2256D01*
X1477Y2255D02*
X1551Y2255D01*
X2478Y2255D02*
X2552Y2255D01*
X1477Y2254D02*
X1551Y2254D01*
X2478Y2254D02*
X2552Y2254D01*
X1476Y2253D02*
X1552Y2253D01*
X2477Y2253D02*
X2553Y2253D01*
X1476Y2252D02*
X1552Y2252D01*
X2477Y2252D02*
X2553Y2252D01*
X1475Y2251D02*
X1552Y2251D01*
X2477Y2251D02*
X2554Y2251D01*
X1475Y2250D02*
X1553Y2250D01*
X2476Y2250D02*
X2554Y2250D01*
X1474Y2249D02*
X1553Y2249D01*
X2476Y2249D02*
X2555Y2249D01*
X1474Y2248D02*
X1553Y2248D01*
X2476Y2248D02*
X2555Y2248D01*
X1474Y2247D02*
X1554Y2247D01*
X2475Y2247D02*
X2555Y2247D01*
X1474Y2246D02*
X1554Y2246D01*
X2475Y2246D02*
X2555Y2246D01*
X1473Y2245D02*
X1554Y2245D01*
X2475Y2245D02*
X2556Y2245D01*
X1473Y2244D02*
X1554Y2244D01*
X2475Y2244D02*
X2556Y2244D01*
X1473Y2243D02*
X1555Y2243D01*
X2474Y2243D02*
X2556Y2243D01*
X1473Y2242D02*
X1555Y2242D01*
X2474Y2242D02*
X2556Y2242D01*
X1473Y2241D02*
X1555Y2241D01*
X2474Y2241D02*
X2556Y2241D01*
X1473Y2240D02*
X1555Y2240D01*
X2474Y2240D02*
X2556Y2240D01*
X1472Y2239D02*
X1555Y2239D01*
X2474Y2239D02*
X2557Y2239D01*
X1472Y2238D02*
X1555Y2238D01*
X2474Y2238D02*
X2557Y2238D01*
X1472Y2237D02*
X1555Y2237D01*
X2474Y2237D02*
X2557Y2237D01*
X1472Y2236D02*
X1555Y2236D01*
X2474Y2236D02*
X2557Y2236D01*
X1472Y2235D02*
X1555Y2235D01*
X2474Y2235D02*
X2557Y2235D01*
X1472Y2234D02*
X1555Y2234D01*
X2474Y2234D02*
X2557Y2234D01*
X1472Y2233D02*
X1555Y2233D01*
X2474Y2233D02*
X2557Y2233D01*
X1472Y2232D02*
X1555Y2232D01*
X2474Y2232D02*
X2557Y2232D01*
X1473Y2231D02*
X1555Y2231D01*
X2474Y2231D02*
X2556Y2231D01*
X1473Y2230D02*
X1555Y2230D01*
X2474Y2230D02*
X2556Y2230D01*
X1473Y2229D02*
X1555Y2229D01*
X2474Y2229D02*
X2556Y2229D01*
X1473Y2228D02*
X1555Y2228D01*
X2474Y2228D02*
X2556Y2228D01*
X1473Y2227D02*
X1554Y2227D01*
X2475Y2227D02*
X2556Y2227D01*
X1473Y2226D02*
X1554Y2226D01*
X2475Y2226D02*
X2556Y2226D01*
X1474Y2225D02*
X1554Y2225D01*
X2475Y2225D02*
X2555Y2225D01*
X1474Y2224D02*
X1554Y2224D01*
X2475Y2224D02*
X2555Y2224D01*
X1474Y2223D02*
X1553Y2223D01*
X2476Y2223D02*
X2555Y2223D01*
X1475Y2222D02*
X1553Y2222D01*
X2476Y2222D02*
X2554Y2222D01*
X1475Y2221D02*
X1553Y2221D01*
X2476Y2221D02*
X2554Y2221D01*
X1475Y2220D02*
X1552Y2220D01*
X2477Y2220D02*
X2554Y2220D01*
X1476Y2219D02*
X1552Y2219D01*
X2477Y2219D02*
X2553Y2219D01*
X1476Y2218D02*
X1551Y2218D01*
X2478Y2218D02*
X2553Y2218D01*
X1477Y2217D02*
X1551Y2217D01*
X2478Y2217D02*
X2552Y2217D01*
X1477Y2216D02*
X1550Y2216D01*
X2479Y2216D02*
X2552Y2216D01*
X1478Y2215D02*
X1550Y2215D01*
X2479Y2215D02*
X2551Y2215D01*
X1478Y2214D02*
X1549Y2214D01*
X2480Y2214D02*
X2551Y2214D01*
X1479Y2213D02*
X1549Y2213D01*
X2480Y2213D02*
X2550Y2213D01*
X1480Y2212D02*
X1548Y2212D01*
X2481Y2212D02*
X2549Y2212D01*
X1480Y2211D02*
X1547Y2211D01*
X2482Y2211D02*
X2549Y2211D01*
X1481Y2210D02*
X1546Y2210D01*
X2483Y2210D02*
X2548Y2210D01*
X1482Y2209D02*
X1546Y2209D01*
X2483Y2209D02*
X2547Y2209D01*
X1483Y2208D02*
X1545Y2208D01*
X2484Y2208D02*
X2546Y2208D01*
X1484Y2207D02*
X1544Y2207D01*
X2485Y2207D02*
X2545Y2207D01*
X1485Y2206D02*
X1543Y2206D01*
X2486Y2206D02*
X2544Y2206D01*
X1486Y2205D02*
X1542Y2205D01*
X2487Y2205D02*
X2543Y2205D01*
X1487Y2204D02*
X1541Y2204D01*
X2488Y2204D02*
X2542Y2204D01*
X1488Y2203D02*
X1540Y2203D01*
X2489Y2203D02*
X2541Y2203D01*
X1489Y2202D02*
X1538Y2202D01*
X2491Y2202D02*
X2540Y2202D01*
X1491Y2201D02*
X1537Y2201D01*
X2492Y2201D02*
X2538Y2201D01*
X1492Y2200D02*
X1535Y2200D01*
X2494Y2200D02*
X2537Y2200D01*
X1494Y2199D02*
X1534Y2199D01*
X2495Y2199D02*
X2535Y2199D01*
X1496Y2198D02*
X1532Y2198D01*
X2497Y2198D02*
X2533Y2198D01*
X1498Y2197D02*
X1530Y2197D01*
X2499Y2197D02*
X2531Y2197D01*
X1501Y2196D02*
X1527Y2196D01*
X2502Y2196D02*
X2528Y2196D01*
X1504Y2195D02*
X1524Y2195D01*
X2505Y2195D02*
X2525Y2195D01*
X1509Y2194D02*
X1518Y2194D01*
X2511Y2194D02*
X2520Y2194D01*
X1508Y2177D02*
X1520Y2177D01*
X2509Y2177D02*
X2521Y2177D01*
X1503Y2176D02*
X1524Y2176D01*
X2505Y2176D02*
X2526Y2176D01*
X1500Y2175D02*
X1528Y2175D01*
X2501Y2175D02*
X2529Y2175D01*
X1497Y2174D02*
X1530Y2174D01*
X2499Y2174D02*
X2532Y2174D01*
X1495Y2173D02*
X1532Y2173D01*
X2497Y2173D02*
X2534Y2173D01*
X1493Y2172D02*
X1534Y2172D01*
X2495Y2172D02*
X2536Y2172D01*
X1492Y2171D02*
X1536Y2171D01*
X2493Y2171D02*
X2537Y2171D01*
X1490Y2170D02*
X1537Y2170D01*
X2492Y2170D02*
X2539Y2170D01*
X1489Y2169D02*
X1539Y2169D01*
X2490Y2169D02*
X2540Y2169D01*
X1488Y2168D02*
X1540Y2168D01*
X2489Y2168D02*
X2541Y2168D01*
X1486Y2167D02*
X1541Y2167D01*
X2488Y2167D02*
X2543Y2167D01*
X1485Y2166D02*
X1542Y2166D01*
X2487Y2166D02*
X2544Y2166D01*
X1484Y2165D02*
X1543Y2165D01*
X2486Y2165D02*
X2545Y2165D01*
X1483Y2164D02*
X1544Y2164D01*
X2485Y2164D02*
X2546Y2164D01*
X1483Y2163D02*
X1545Y2163D01*
X2484Y2163D02*
X2546Y2163D01*
X1482Y2162D02*
X1546Y2162D01*
X2483Y2162D02*
X2547Y2162D01*
X1481Y2161D02*
X1547Y2161D01*
X2482Y2161D02*
X2548Y2161D01*
X1480Y2160D02*
X1547Y2160D01*
X2482Y2160D02*
X2549Y2160D01*
X1479Y2159D02*
X1548Y2159D01*
X2481Y2159D02*
X2550Y2159D01*
X1479Y2158D02*
X1549Y2158D01*
X2480Y2158D02*
X2550Y2158D01*
X1478Y2157D02*
X1549Y2157D01*
X2480Y2157D02*
X2551Y2157D01*
X1478Y2156D02*
X1550Y2156D01*
X2479Y2156D02*
X2551Y2156D01*
X1477Y2155D02*
X1551Y2155D01*
X2478Y2155D02*
X2552Y2155D01*
X1477Y2154D02*
X1551Y2154D01*
X2478Y2154D02*
X2552Y2154D01*
X1476Y2153D02*
X1552Y2153D01*
X2477Y2153D02*
X2553Y2153D01*
X1476Y2152D02*
X1552Y2152D01*
X2477Y2152D02*
X2553Y2152D01*
X1475Y2151D02*
X1552Y2151D01*
X2477Y2151D02*
X2554Y2151D01*
X1475Y2150D02*
X1553Y2150D01*
X2476Y2150D02*
X2554Y2150D01*
X1475Y2149D02*
X1553Y2149D01*
X2476Y2149D02*
X2554Y2149D01*
X1474Y2148D02*
X1553Y2148D01*
X2476Y2148D02*
X2555Y2148D01*
X1474Y2147D02*
X1554Y2147D01*
X2475Y2147D02*
X2555Y2147D01*
X1474Y2146D02*
X1554Y2146D01*
X2475Y2146D02*
X2555Y2146D01*
X1473Y2145D02*
X1554Y2145D01*
X2475Y2145D02*
X2556Y2145D01*
X1473Y2144D02*
X1554Y2144D01*
X2475Y2144D02*
X2556Y2144D01*
X1473Y2143D02*
X1555Y2143D01*
X2474Y2143D02*
X2556Y2143D01*
X1473Y2142D02*
X1555Y2142D01*
X2474Y2142D02*
X2556Y2142D01*
X1473Y2141D02*
X1555Y2141D01*
X2474Y2141D02*
X2556Y2141D01*
X1473Y2140D02*
X1555Y2140D01*
X2474Y2140D02*
X2556Y2140D01*
X1472Y2139D02*
X1555Y2139D01*
X2474Y2139D02*
X2557Y2139D01*
X1472Y2138D02*
X1555Y2138D01*
X2474Y2138D02*
X2557Y2138D01*
X1472Y2137D02*
X1555Y2137D01*
X2474Y2137D02*
X2557Y2137D01*
X1472Y2136D02*
X1555Y2136D01*
X2474Y2136D02*
X2557Y2136D01*
X1472Y2135D02*
X1555Y2135D01*
X2474Y2135D02*
X2557Y2135D01*
X1472Y2134D02*
X1555Y2134D01*
X2474Y2134D02*
X2557Y2134D01*
X1472Y2133D02*
X1555Y2133D01*
X2474Y2133D02*
X2557Y2133D01*
X1472Y2132D02*
X1555Y2132D01*
X2474Y2132D02*
X2557Y2132D01*
X1473Y2131D02*
X1555Y2131D01*
X2474Y2131D02*
X2556Y2131D01*
X1473Y2130D02*
X1555Y2130D01*
X2474Y2130D02*
X2556Y2130D01*
X1473Y2129D02*
X1555Y2129D01*
X2474Y2129D02*
X2556Y2129D01*
X1473Y2128D02*
X1555Y2128D01*
X2474Y2128D02*
X2556Y2128D01*
X1473Y2127D02*
X1554Y2127D01*
X2475Y2127D02*
X2556Y2127D01*
X1473Y2126D02*
X1554Y2126D01*
X2475Y2126D02*
X2556Y2126D01*
X1474Y2125D02*
X1554Y2125D01*
X2475Y2125D02*
X2555Y2125D01*
X1474Y2124D02*
X1554Y2124D01*
X2475Y2124D02*
X2555Y2124D01*
X1474Y2123D02*
X1553Y2123D01*
X2476Y2123D02*
X2555Y2123D01*
X1475Y2122D02*
X1553Y2122D01*
X2476Y2122D02*
X2554Y2122D01*
X1475Y2121D02*
X1553Y2121D01*
X2476Y2121D02*
X2554Y2121D01*
X1475Y2120D02*
X1552Y2120D01*
X2477Y2120D02*
X2554Y2120D01*
X1476Y2119D02*
X1552Y2119D01*
X2477Y2119D02*
X2553Y2119D01*
X1476Y2118D02*
X1551Y2118D01*
X2478Y2118D02*
X2553Y2118D01*
X1477Y2117D02*
X1551Y2117D01*
X2478Y2117D02*
X2552Y2117D01*
X1477Y2116D02*
X1550Y2116D01*
X2479Y2116D02*
X2552Y2116D01*
X1478Y2115D02*
X1550Y2115D01*
X2479Y2115D02*
X2551Y2115D01*
X1478Y2114D02*
X1549Y2114D01*
X2480Y2114D02*
X2551Y2114D01*
X1479Y2113D02*
X1549Y2113D01*
X2480Y2113D02*
X2550Y2113D01*
X1480Y2112D02*
X1548Y2112D01*
X2481Y2112D02*
X2549Y2112D01*
X1480Y2111D02*
X1547Y2111D01*
X2482Y2111D02*
X2549Y2111D01*
X1481Y2110D02*
X1547Y2110D01*
X2482Y2110D02*
X2548Y2110D01*
X1482Y2109D02*
X1546Y2109D01*
X2483Y2109D02*
X2547Y2109D01*
X1483Y2108D02*
X1545Y2108D01*
X2484Y2108D02*
X2546Y2108D01*
X1484Y2107D02*
X1544Y2107D01*
X2485Y2107D02*
X2545Y2107D01*
X1484Y2106D02*
X1543Y2106D01*
X2486Y2106D02*
X2545Y2106D01*
X1485Y2105D02*
X1542Y2105D01*
X2487Y2105D02*
X2544Y2105D01*
X1487Y2104D02*
X1541Y2104D01*
X2488Y2104D02*
X2542Y2104D01*
X1488Y2103D02*
X1540Y2103D01*
X2489Y2103D02*
X2541Y2103D01*
X1489Y2102D02*
X1538Y2102D01*
X2491Y2102D02*
X2540Y2102D01*
X1490Y2101D02*
X1537Y2101D01*
X2492Y2101D02*
X2539Y2101D01*
X1492Y2100D02*
X1536Y2100D01*
X2493Y2100D02*
X2537Y2100D01*
X1494Y2099D02*
X1534Y2099D01*
X2495Y2099D02*
X2535Y2099D01*
X1496Y2098D02*
X1532Y2098D01*
X2497Y2098D02*
X2533Y2098D01*
X1498Y2097D02*
X1530Y2097D01*
X2499Y2097D02*
X2531Y2097D01*
X1500Y2096D02*
X1527Y2096D01*
X2502Y2096D02*
X2529Y2096D01*
X1504Y2095D02*
X1524Y2095D01*
X2505Y2095D02*
X2525Y2095D01*
X1509Y2094D02*
X1519Y2094D01*
X2510Y2094D02*
X2520Y2094D01*
X1509Y2077D02*
X1519Y2077D01*
X2510Y2077D02*
X2520Y2077D01*
X1504Y2076D02*
X1524Y2076D01*
X2505Y2076D02*
X2525Y2076D01*
X1500Y2075D02*
X1527Y2075D01*
X2502Y2075D02*
X2529Y2075D01*
X1498Y2074D02*
X1530Y2074D01*
X2499Y2074D02*
X2531Y2074D01*
X1496Y2073D02*
X1532Y2073D01*
X2497Y2073D02*
X2533Y2073D01*
X1494Y2072D02*
X1534Y2072D01*
X2495Y2072D02*
X2535Y2072D01*
X1492Y2071D02*
X1536Y2071D01*
X2493Y2071D02*
X2537Y2071D01*
X1491Y2070D02*
X1537Y2070D01*
X2492Y2070D02*
X2539Y2070D01*
X1489Y2069D02*
X1538Y2069D01*
X2491Y2069D02*
X2540Y2069D01*
X1488Y2068D02*
X1540Y2068D01*
X2489Y2068D02*
X2541Y2068D01*
X1487Y2067D02*
X1541Y2067D01*
X2488Y2067D02*
X2542Y2067D01*
X1486Y2066D02*
X1542Y2066D01*
X2487Y2066D02*
X2543Y2066D01*
X1484Y2065D02*
X1543Y2065D01*
X2486Y2065D02*
X2545Y2065D01*
X1484Y2064D02*
X1544Y2064D01*
X2485Y2064D02*
X2545Y2064D01*
X1483Y2063D02*
X1545Y2063D01*
X2484Y2063D02*
X2546Y2063D01*
X1482Y2062D02*
X1546Y2062D01*
X2483Y2062D02*
X2547Y2062D01*
X1481Y2061D02*
X1547Y2061D01*
X2482Y2061D02*
X2548Y2061D01*
X1480Y2060D02*
X1547Y2060D01*
X2482Y2060D02*
X2549Y2060D01*
X1480Y2059D02*
X1548Y2059D01*
X2481Y2059D02*
X2549Y2059D01*
X1479Y2058D02*
X1549Y2058D01*
X2480Y2058D02*
X2550Y2058D01*
X1478Y2057D02*
X1549Y2057D01*
X2480Y2057D02*
X2551Y2057D01*
X1478Y2056D02*
X1550Y2056D01*
X2479Y2056D02*
X2551Y2056D01*
X1477Y2055D02*
X1550Y2055D01*
X2479Y2055D02*
X2552Y2055D01*
X1477Y2054D02*
X1551Y2054D01*
X2478Y2054D02*
X2552Y2054D01*
X1476Y2053D02*
X1551Y2053D01*
X2478Y2053D02*
X2553Y2053D01*
X1476Y2052D02*
X1552Y2052D01*
X2477Y2052D02*
X2553Y2052D01*
X1475Y2051D02*
X1552Y2051D01*
X2477Y2051D02*
X2554Y2051D01*
X1475Y2050D02*
X1553Y2050D01*
X2476Y2050D02*
X2554Y2050D01*
X1475Y2049D02*
X1553Y2049D01*
X2476Y2049D02*
X2554Y2049D01*
X1474Y2048D02*
X1553Y2048D01*
X2476Y2048D02*
X2555Y2048D01*
X1474Y2047D02*
X1554Y2047D01*
X2475Y2047D02*
X2555Y2047D01*
X1474Y2046D02*
X1554Y2046D01*
X2475Y2046D02*
X2555Y2046D01*
X1473Y2045D02*
X1554Y2045D01*
X2475Y2045D02*
X2556Y2045D01*
X1473Y2044D02*
X1554Y2044D01*
X2475Y2044D02*
X2556Y2044D01*
X1473Y2043D02*
X1555Y2043D01*
X2474Y2043D02*
X2556Y2043D01*
X1473Y2042D02*
X1555Y2042D01*
X2474Y2042D02*
X2556Y2042D01*
X1473Y2041D02*
X1555Y2041D01*
X2474Y2041D02*
X2556Y2041D01*
X1473Y2040D02*
X1555Y2040D01*
X2474Y2040D02*
X2556Y2040D01*
X1472Y2039D02*
X1555Y2039D01*
X2474Y2039D02*
X2557Y2039D01*
X1472Y2038D02*
X1555Y2038D01*
X2474Y2038D02*
X2557Y2038D01*
X1472Y2037D02*
X1555Y2037D01*
X2474Y2037D02*
X2557Y2037D01*
X1472Y2036D02*
X1555Y2036D01*
X2474Y2036D02*
X2557Y2036D01*
X1472Y2035D02*
X1555Y2035D01*
X2474Y2035D02*
X2557Y2035D01*
X1472Y2034D02*
X1555Y2034D01*
X2474Y2034D02*
X2557Y2034D01*
X1472Y2033D02*
X1555Y2033D01*
X2474Y2033D02*
X2557Y2033D01*
X1472Y2032D02*
X1555Y2032D01*
X2474Y2032D02*
X2557Y2032D01*
X1473Y2031D02*
X1555Y2031D01*
X2474Y2031D02*
X2556Y2031D01*
X1473Y2030D02*
X1555Y2030D01*
X2474Y2030D02*
X2556Y2030D01*
X1473Y2029D02*
X1555Y2029D01*
X2474Y2029D02*
X2556Y2029D01*
X1473Y2028D02*
X1555Y2028D01*
X2474Y2028D02*
X2556Y2028D01*
X1473Y2027D02*
X1554Y2027D01*
X2475Y2027D02*
X2556Y2027D01*
X1473Y2026D02*
X1554Y2026D01*
X2475Y2026D02*
X2556Y2026D01*
X1474Y2025D02*
X1554Y2025D01*
X2475Y2025D02*
X2555Y2025D01*
X1474Y2024D02*
X1554Y2024D01*
X2475Y2024D02*
X2555Y2024D01*
X1474Y2023D02*
X1553Y2023D01*
X2476Y2023D02*
X2555Y2023D01*
X1475Y2022D02*
X1553Y2022D01*
X2476Y2022D02*
X2554Y2022D01*
X1475Y2021D02*
X1553Y2021D01*
X2476Y2021D02*
X2554Y2021D01*
X1475Y2020D02*
X1552Y2020D01*
X2477Y2020D02*
X2554Y2020D01*
X1476Y2019D02*
X1552Y2019D01*
X2477Y2019D02*
X2553Y2019D01*
X1476Y2018D02*
X1552Y2018D01*
X2477Y2018D02*
X2553Y2018D01*
X1477Y2017D02*
X1551Y2017D01*
X2478Y2017D02*
X2552Y2017D01*
X1477Y2016D02*
X1551Y2016D01*
X2478Y2016D02*
X2552Y2016D01*
X1478Y2015D02*
X1550Y2015D01*
X2479Y2015D02*
X2551Y2015D01*
X1478Y2014D02*
X1549Y2014D01*
X2480Y2014D02*
X2551Y2014D01*
X1479Y2013D02*
X1549Y2013D01*
X2480Y2013D02*
X2550Y2013D01*
X1479Y2012D02*
X1548Y2012D01*
X2481Y2012D02*
X2550Y2012D01*
X1480Y2011D02*
X1547Y2011D01*
X2482Y2011D02*
X2549Y2011D01*
X1481Y2010D02*
X1547Y2010D01*
X2482Y2010D02*
X2548Y2010D01*
X1482Y2009D02*
X1546Y2009D01*
X2483Y2009D02*
X2547Y2009D01*
X1483Y2008D02*
X1545Y2008D01*
X2484Y2008D02*
X2546Y2008D01*
X1483Y2007D02*
X1544Y2007D01*
X2485Y2007D02*
X2546Y2007D01*
X1484Y2006D02*
X1543Y2006D01*
X2486Y2006D02*
X2545Y2006D01*
X1485Y2005D02*
X1542Y2005D01*
X2487Y2005D02*
X2544Y2005D01*
X1486Y2004D02*
X1541Y2004D01*
X2488Y2004D02*
X2543Y2004D01*
X1488Y2003D02*
X1540Y2003D01*
X2489Y2003D02*
X2541Y2003D01*
X1489Y2002D02*
X1539Y2002D01*
X2490Y2002D02*
X2540Y2002D01*
X1490Y2001D02*
X1537Y2001D01*
X2492Y2001D02*
X2539Y2001D01*
X1492Y2000D02*
X1536Y2000D01*
X2493Y2000D02*
X2537Y2000D01*
X1493Y1999D02*
X1534Y1999D01*
X2495Y1999D02*
X2536Y1999D01*
X1495Y1998D02*
X1532Y1998D01*
X2497Y1998D02*
X2534Y1998D01*
X1497Y1997D02*
X1530Y1997D01*
X2499Y1997D02*
X2532Y1997D01*
X1500Y1996D02*
X1528Y1996D01*
X2501Y1996D02*
X2529Y1996D01*
X1503Y1995D02*
X1525Y1995D01*
X2505Y1995D02*
X2526Y1995D01*
X1508Y1994D02*
X1520Y1994D01*
X2509Y1994D02*
X2521Y1994D01*
X1510Y1977D02*
X1518Y1977D01*
X2511Y1977D02*
X2519Y1977D01*
X1504Y1976D02*
X1523Y1976D01*
X2506Y1976D02*
X2525Y1976D01*
X1501Y1975D02*
X1527Y1975D01*
X2502Y1975D02*
X2528Y1975D01*
X1498Y1974D02*
X1530Y1974D01*
X2499Y1974D02*
X2531Y1974D01*
X1496Y1973D02*
X1532Y1973D01*
X2497Y1973D02*
X2533Y1973D01*
X1494Y1972D02*
X1534Y1972D01*
X2495Y1972D02*
X2535Y1972D01*
X1492Y1971D02*
X1535Y1971D01*
X2494Y1971D02*
X2537Y1971D01*
X1491Y1970D02*
X1537Y1970D01*
X2492Y1970D02*
X2538Y1970D01*
X1489Y1969D02*
X1538Y1969D01*
X2491Y1969D02*
X2540Y1969D01*
X1488Y1968D02*
X1540Y1968D01*
X2489Y1968D02*
X2541Y1968D01*
X1487Y1967D02*
X1541Y1967D01*
X2488Y1967D02*
X2542Y1967D01*
X1486Y1966D02*
X1542Y1966D01*
X2487Y1966D02*
X2543Y1966D01*
X1485Y1965D02*
X1543Y1965D01*
X2486Y1965D02*
X2544Y1965D01*
X1484Y1964D02*
X1544Y1964D01*
X2485Y1964D02*
X2545Y1964D01*
X1483Y1963D02*
X1545Y1963D01*
X2484Y1963D02*
X2546Y1963D01*
X1482Y1962D02*
X1546Y1962D01*
X2483Y1962D02*
X2547Y1962D01*
X1481Y1961D02*
X1546Y1961D01*
X2483Y1961D02*
X2548Y1961D01*
X1480Y1960D02*
X1547Y1960D01*
X2482Y1960D02*
X2549Y1960D01*
X1480Y1959D02*
X1548Y1959D01*
X2481Y1959D02*
X2549Y1959D01*
X1479Y1958D02*
X1549Y1958D01*
X2480Y1958D02*
X2550Y1958D01*
X1478Y1957D02*
X1549Y1957D01*
X2480Y1957D02*
X2551Y1957D01*
X1478Y1956D02*
X1550Y1956D01*
X2479Y1956D02*
X2551Y1956D01*
X1477Y1955D02*
X1550Y1955D01*
X2479Y1955D02*
X2552Y1955D01*
X1477Y1954D02*
X1551Y1954D01*
X2478Y1954D02*
X2552Y1954D01*
X1476Y1953D02*
X1551Y1953D01*
X2478Y1953D02*
X2553Y1953D01*
X1476Y1952D02*
X1552Y1952D01*
X2477Y1952D02*
X2553Y1952D01*
X1475Y1951D02*
X1552Y1951D01*
X2477Y1951D02*
X2554Y1951D01*
X1475Y1950D02*
X1553Y1950D01*
X2476Y1950D02*
X2554Y1950D01*
X1475Y1949D02*
X1553Y1949D01*
X2476Y1949D02*
X2554Y1949D01*
X1474Y1948D02*
X1553Y1948D01*
X2476Y1948D02*
X2555Y1948D01*
X1474Y1947D02*
X1554Y1947D01*
X2475Y1947D02*
X2555Y1947D01*
X1474Y1946D02*
X1554Y1946D01*
X2475Y1946D02*
X2555Y1946D01*
X1473Y1945D02*
X1554Y1945D01*
X2475Y1945D02*
X2556Y1945D01*
X1473Y1944D02*
X1554Y1944D01*
X2475Y1944D02*
X2556Y1944D01*
X1473Y1943D02*
X1555Y1943D01*
X2474Y1943D02*
X2556Y1943D01*
X1473Y1942D02*
X1555Y1942D01*
X2474Y1942D02*
X2556Y1942D01*
X1473Y1941D02*
X1555Y1941D01*
X2474Y1941D02*
X2556Y1941D01*
X1473Y1940D02*
X1555Y1940D01*
X2474Y1940D02*
X2556Y1940D01*
X1472Y1939D02*
X1555Y1939D01*
X2474Y1939D02*
X2557Y1939D01*
X1472Y1938D02*
X1555Y1938D01*
X2474Y1938D02*
X2557Y1938D01*
X1472Y1937D02*
X1555Y1937D01*
X2474Y1937D02*
X2557Y1937D01*
X1472Y1936D02*
X1555Y1936D01*
X2474Y1936D02*
X2557Y1936D01*
X1472Y1935D02*
X1555Y1935D01*
X2474Y1935D02*
X2557Y1935D01*
X1472Y1934D02*
X1555Y1934D01*
X2474Y1934D02*
X2557Y1934D01*
X1472Y1933D02*
X1555Y1933D01*
X2474Y1933D02*
X2557Y1933D01*
X1472Y1932D02*
X1555Y1932D01*
X2474Y1932D02*
X2557Y1932D01*
X1473Y1931D02*
X1555Y1931D01*
X2474Y1931D02*
X2556Y1931D01*
X1473Y1930D02*
X1555Y1930D01*
X2474Y1930D02*
X2556Y1930D01*
X1473Y1929D02*
X1555Y1929D01*
X2474Y1929D02*
X2556Y1929D01*
X1473Y1928D02*
X1555Y1928D01*
X2474Y1928D02*
X2556Y1928D01*
X1473Y1927D02*
X1554Y1927D01*
X2475Y1927D02*
X2556Y1927D01*
X1473Y1926D02*
X1554Y1926D01*
X2475Y1926D02*
X2556Y1926D01*
X1474Y1925D02*
X1554Y1925D01*
X2475Y1925D02*
X2555Y1925D01*
X1474Y1924D02*
X1554Y1924D01*
X2475Y1924D02*
X2555Y1924D01*
X1474Y1923D02*
X1553Y1923D01*
X2476Y1923D02*
X2555Y1923D01*
X1474Y1922D02*
X1553Y1922D01*
X2476Y1922D02*
X2555Y1922D01*
X1475Y1921D02*
X1553Y1921D01*
X2476Y1921D02*
X2554Y1921D01*
X1475Y1920D02*
X1552Y1920D01*
X2477Y1920D02*
X2554Y1920D01*
X1476Y1919D02*
X1552Y1919D01*
X2477Y1919D02*
X2553Y1919D01*
X1476Y1918D02*
X1552Y1918D01*
X2477Y1918D02*
X2553Y1918D01*
X1477Y1917D02*
X1551Y1917D01*
X2478Y1917D02*
X2553Y1917D01*
X1477Y1916D02*
X1551Y1916D01*
X2478Y1916D02*
X2552Y1916D01*
X1478Y1915D02*
X1550Y1915D01*
X2479Y1915D02*
X2551Y1915D01*
X1478Y1914D02*
X1549Y1914D01*
X2480Y1914D02*
X2551Y1914D01*
X1479Y1913D02*
X1549Y1913D01*
X2480Y1913D02*
X2550Y1913D01*
X1479Y1912D02*
X1548Y1912D01*
X2481Y1912D02*
X2550Y1912D01*
X1480Y1911D02*
X1548Y1911D01*
X2482Y1911D02*
X2549Y1911D01*
X1481Y1910D02*
X1547Y1910D01*
X2482Y1910D02*
X2548Y1910D01*
X1482Y1909D02*
X1546Y1909D01*
X2483Y1909D02*
X2547Y1909D01*
X1482Y1908D02*
X1545Y1908D01*
X2484Y1908D02*
X2547Y1908D01*
X1483Y1907D02*
X1544Y1907D01*
X2485Y1907D02*
X2546Y1907D01*
X1484Y1906D02*
X1543Y1906D01*
X2486Y1906D02*
X2545Y1906D01*
X1485Y1905D02*
X1542Y1905D01*
X2487Y1905D02*
X2544Y1905D01*
X1486Y1904D02*
X1541Y1904D01*
X2488Y1904D02*
X2543Y1904D01*
X1487Y1903D02*
X1540Y1903D01*
X2489Y1903D02*
X2542Y1903D01*
X1489Y1902D02*
X1539Y1902D01*
X2490Y1902D02*
X2540Y1902D01*
X1490Y1901D02*
X1537Y1901D01*
X2492Y1901D02*
X2539Y1901D01*
X1492Y1900D02*
X1536Y1900D01*
X2493Y1900D02*
X2537Y1900D01*
X1493Y1899D02*
X1534Y1899D01*
X2495Y1899D02*
X2536Y1899D01*
X1495Y1898D02*
X1533Y1898D01*
X2496Y1898D02*
X2534Y1898D01*
X1497Y1897D02*
X1531Y1897D01*
X2498Y1897D02*
X2532Y1897D01*
X1499Y1896D02*
X1528Y1896D01*
X2501Y1896D02*
X2530Y1896D01*
X1503Y1895D02*
X1525Y1895D01*
X2504Y1895D02*
X2526Y1895D01*
X1507Y1894D02*
X1521Y1894D01*
X2508Y1894D02*
X2522Y1894D01*
X1511Y1877D02*
X1517Y1877D01*
X2512Y1877D02*
X2518Y1877D01*
X1505Y1876D02*
X1523Y1876D01*
X2506Y1876D02*
X2524Y1876D01*
X1501Y1875D02*
X1527Y1875D01*
X2502Y1875D02*
X2528Y1875D01*
X1498Y1874D02*
X1529Y1874D01*
X2500Y1874D02*
X2531Y1874D01*
X1496Y1873D02*
X1532Y1873D01*
X2497Y1873D02*
X2533Y1873D01*
X1494Y1872D02*
X1533Y1872D01*
X2496Y1872D02*
X2535Y1872D01*
X1492Y1871D02*
X1535Y1871D01*
X2494Y1871D02*
X2537Y1871D01*
X1491Y1870D02*
X1537Y1870D01*
X2492Y1870D02*
X2538Y1870D01*
X1490Y1869D02*
X1538Y1869D01*
X2491Y1869D02*
X2540Y1869D01*
X1488Y1868D02*
X1539Y1868D01*
X2490Y1868D02*
X2541Y1868D01*
X1487Y1867D02*
X1541Y1867D01*
X2488Y1867D02*
X2542Y1867D01*
X1486Y1866D02*
X1542Y1866D01*
X2487Y1866D02*
X2543Y1866D01*
X1485Y1865D02*
X1543Y1865D01*
X2486Y1865D02*
X2544Y1865D01*
X1484Y1864D02*
X1544Y1864D01*
X2485Y1864D02*
X2545Y1864D01*
X1483Y1863D02*
X1545Y1863D01*
X2484Y1863D02*
X2546Y1863D01*
X1482Y1862D02*
X1546Y1862D01*
X2483Y1862D02*
X2547Y1862D01*
X1481Y1861D02*
X1546Y1861D01*
X2483Y1861D02*
X2548Y1861D01*
X1480Y1860D02*
X1547Y1860D01*
X2482Y1860D02*
X2549Y1860D01*
X1480Y1859D02*
X1548Y1859D01*
X2481Y1859D02*
X2549Y1859D01*
X1479Y1858D02*
X1549Y1858D01*
X2481Y1858D02*
X2550Y1858D01*
X1478Y1857D02*
X1549Y1857D01*
X2480Y1857D02*
X2551Y1857D01*
X1478Y1856D02*
X1550Y1856D01*
X2479Y1856D02*
X2551Y1856D01*
X1477Y1855D02*
X1550Y1855D01*
X2479Y1855D02*
X2552Y1855D01*
X1477Y1854D02*
X1551Y1854D01*
X2478Y1854D02*
X2552Y1854D01*
X1476Y1853D02*
X1551Y1853D01*
X2478Y1853D02*
X2553Y1853D01*
X1476Y1852D02*
X1552Y1852D01*
X2477Y1852D02*
X2553Y1852D01*
X1475Y1851D02*
X1552Y1851D01*
X2477Y1851D02*
X2554Y1851D01*
X1475Y1850D02*
X1553Y1850D01*
X2476Y1850D02*
X2554Y1850D01*
X1475Y1849D02*
X1553Y1849D01*
X2476Y1849D02*
X2554Y1849D01*
X1474Y1848D02*
X1553Y1848D01*
X2476Y1848D02*
X2555Y1848D01*
X1474Y1847D02*
X1554Y1847D01*
X2475Y1847D02*
X2555Y1847D01*
X1474Y1846D02*
X1554Y1846D01*
X2475Y1846D02*
X2555Y1846D01*
X1474Y1845D02*
X1554Y1845D01*
X2475Y1845D02*
X2555Y1845D01*
X1473Y1844D02*
X1554Y1844D01*
X2475Y1844D02*
X2556Y1844D01*
X1473Y1843D02*
X1555Y1843D01*
X2474Y1843D02*
X2556Y1843D01*
X1473Y1842D02*
X1555Y1842D01*
X2474Y1842D02*
X2556Y1842D01*
X1473Y1841D02*
X1555Y1841D01*
X2474Y1841D02*
X2556Y1841D01*
X1473Y1840D02*
X1555Y1840D01*
X2474Y1840D02*
X2556Y1840D01*
X1472Y1839D02*
X1555Y1839D01*
X2474Y1839D02*
X2557Y1839D01*
X1472Y1838D02*
X1555Y1838D01*
X2474Y1838D02*
X2557Y1838D01*
X1472Y1837D02*
X1555Y1837D01*
X2474Y1837D02*
X2557Y1837D01*
X1472Y1836D02*
X1555Y1836D01*
X2474Y1836D02*
X2557Y1836D01*
X1472Y1835D02*
X1555Y1835D01*
X2474Y1835D02*
X2557Y1835D01*
X1472Y1834D02*
X1555Y1834D01*
X2474Y1834D02*
X2557Y1834D01*
X1472Y1833D02*
X1555Y1833D01*
X2474Y1833D02*
X2557Y1833D01*
X1472Y1832D02*
X1555Y1832D01*
X2474Y1832D02*
X2557Y1832D01*
X1473Y1831D02*
X1555Y1831D01*
X2474Y1831D02*
X2557Y1831D01*
X1473Y1830D02*
X1555Y1830D01*
X2474Y1830D02*
X2556Y1830D01*
X1473Y1829D02*
X1555Y1829D01*
X2474Y1829D02*
X2556Y1829D01*
X1473Y1828D02*
X1555Y1828D01*
X2474Y1828D02*
X2556Y1828D01*
X1473Y1827D02*
X1554Y1827D01*
X2475Y1827D02*
X2556Y1827D01*
X1473Y1826D02*
X1554Y1826D01*
X2475Y1826D02*
X2556Y1826D01*
X1474Y1825D02*
X1554Y1825D01*
X2475Y1825D02*
X2555Y1825D01*
X1474Y1824D02*
X1554Y1824D01*
X2475Y1824D02*
X2555Y1824D01*
X1474Y1823D02*
X1553Y1823D01*
X2476Y1823D02*
X2555Y1823D01*
X1474Y1822D02*
X1553Y1822D01*
X2476Y1822D02*
X2555Y1822D01*
X1475Y1821D02*
X1553Y1821D01*
X2476Y1821D02*
X2554Y1821D01*
X1475Y1820D02*
X1552Y1820D01*
X2477Y1820D02*
X2554Y1820D01*
X1475Y1819D02*
X1552Y1819D01*
X2477Y1819D02*
X2554Y1819D01*
X1476Y1818D02*
X1552Y1818D01*
X2477Y1818D02*
X2553Y1818D01*
X1476Y1817D02*
X1551Y1817D01*
X2478Y1817D02*
X2553Y1817D01*
X1477Y1816D02*
X1551Y1816D01*
X2478Y1816D02*
X2552Y1816D01*
X1477Y1815D02*
X1550Y1815D01*
X2479Y1815D02*
X2552Y1815D01*
X1478Y1814D02*
X1550Y1814D01*
X2479Y1814D02*
X2551Y1814D01*
X1479Y1813D02*
X1549Y1813D01*
X2480Y1813D02*
X2550Y1813D01*
X1479Y1812D02*
X1548Y1812D01*
X2481Y1812D02*
X2550Y1812D01*
X1480Y1811D02*
X1548Y1811D01*
X2481Y1811D02*
X2549Y1811D01*
X1481Y1810D02*
X1547Y1810D01*
X2482Y1810D02*
X2548Y1810D01*
X1481Y1809D02*
X1546Y1809D01*
X2483Y1809D02*
X2548Y1809D01*
X1482Y1808D02*
X1545Y1808D01*
X2484Y1808D02*
X2547Y1808D01*
X1483Y1807D02*
X1544Y1807D01*
X2485Y1807D02*
X2546Y1807D01*
X1484Y1806D02*
X1544Y1806D01*
X2485Y1806D02*
X2545Y1806D01*
X1485Y1805D02*
X1543Y1805D01*
X2486Y1805D02*
X2544Y1805D01*
X1486Y1804D02*
X1541Y1804D01*
X2488Y1804D02*
X2543Y1804D01*
X1487Y1803D02*
X1540Y1803D01*
X2489Y1803D02*
X2542Y1803D01*
X1489Y1802D02*
X1539Y1802D01*
X2490Y1802D02*
X2540Y1802D01*
X1490Y1801D02*
X1538Y1801D01*
X2491Y1801D02*
X2539Y1801D01*
X1491Y1800D02*
X1536Y1800D01*
X2493Y1800D02*
X2538Y1800D01*
X1493Y1799D02*
X1535Y1799D01*
X2494Y1799D02*
X2536Y1799D01*
X1495Y1798D02*
X1533Y1798D01*
X2496Y1798D02*
X2534Y1798D01*
X1497Y1797D02*
X1531Y1797D01*
X2498Y1797D02*
X2532Y1797D01*
X1499Y1796D02*
X1528Y1796D01*
X2501Y1796D02*
X2530Y1796D01*
X1502Y1795D02*
X1526Y1795D01*
X2503Y1795D02*
X2527Y1795D01*
X1506Y1794D02*
X1521Y1794D01*
X2508Y1794D02*
X2523Y1794D01*
X1513Y1777D02*
X1515Y1777D01*
X2514Y1777D02*
X2516Y1777D01*
X1505Y1776D02*
X1522Y1776D01*
X2507Y1776D02*
X2524Y1776D01*
X1501Y1775D02*
X1526Y1775D01*
X2503Y1775D02*
X2528Y1775D01*
X1499Y1774D02*
X1529Y1774D01*
X2500Y1774D02*
X2530Y1774D01*
X1496Y1773D02*
X1531Y1773D01*
X2498Y1773D02*
X2533Y1773D01*
X1494Y1772D02*
X1533Y1772D01*
X2496Y1772D02*
X2535Y1772D01*
X1493Y1771D02*
X1535Y1771D01*
X2494Y1771D02*
X2536Y1771D01*
X1491Y1770D02*
X1537Y1770D01*
X2492Y1770D02*
X2538Y1770D01*
X1490Y1769D02*
X1538Y1769D01*
X2491Y1769D02*
X2539Y1769D01*
X1488Y1768D02*
X1539Y1768D01*
X2490Y1768D02*
X2541Y1768D01*
X1487Y1767D02*
X1541Y1767D01*
X2488Y1767D02*
X2542Y1767D01*
X1486Y1766D02*
X1542Y1766D01*
X2487Y1766D02*
X2543Y1766D01*
X1485Y1765D02*
X1543Y1765D01*
X2486Y1765D02*
X2544Y1765D01*
X1484Y1764D02*
X1544Y1764D01*
X2485Y1764D02*
X2545Y1764D01*
X1483Y1763D02*
X1545Y1763D01*
X2484Y1763D02*
X2546Y1763D01*
X1482Y1762D02*
X1546Y1762D01*
X2484Y1762D02*
X2547Y1762D01*
X1481Y1761D02*
X1546Y1761D01*
X2483Y1761D02*
X2548Y1761D01*
X1481Y1760D02*
X1547Y1760D01*
X2482Y1760D02*
X2548Y1760D01*
X1480Y1759D02*
X1548Y1759D01*
X2481Y1759D02*
X2549Y1759D01*
X1479Y1758D02*
X1548Y1758D01*
X2481Y1758D02*
X2550Y1758D01*
X1479Y1757D02*
X1549Y1757D01*
X2480Y1757D02*
X2550Y1757D01*
X1478Y1756D02*
X1550Y1756D01*
X2479Y1756D02*
X2551Y1756D01*
X1477Y1755D02*
X1550Y1755D01*
X2479Y1755D02*
X2552Y1755D01*
X1477Y1754D02*
X1551Y1754D01*
X2478Y1754D02*
X2552Y1754D01*
X1476Y1753D02*
X1551Y1753D01*
X2478Y1753D02*
X2553Y1753D01*
X1476Y1752D02*
X1552Y1752D01*
X2477Y1752D02*
X2553Y1752D01*
X1475Y1751D02*
X1552Y1751D01*
X2477Y1751D02*
X2554Y1751D01*
X1475Y1750D02*
X1553Y1750D01*
X2476Y1750D02*
X2554Y1750D01*
X1475Y1749D02*
X1553Y1749D01*
X2476Y1749D02*
X2554Y1749D01*
X1474Y1748D02*
X1553Y1748D01*
X2476Y1748D02*
X2555Y1748D01*
X1474Y1747D02*
X1554Y1747D01*
X2475Y1747D02*
X2555Y1747D01*
X1474Y1746D02*
X1554Y1746D01*
X2475Y1746D02*
X2555Y1746D01*
X1474Y1745D02*
X1554Y1745D01*
X2475Y1745D02*
X2555Y1745D01*
X1473Y1744D02*
X1554Y1744D01*
X2475Y1744D02*
X2556Y1744D01*
X1473Y1743D02*
X1555Y1743D01*
X2475Y1743D02*
X2556Y1743D01*
X1473Y1742D02*
X1555Y1742D01*
X2474Y1742D02*
X2556Y1742D01*
X1473Y1741D02*
X1555Y1741D01*
X2474Y1741D02*
X2556Y1741D01*
X1473Y1740D02*
X1555Y1740D01*
X2474Y1740D02*
X2556Y1740D01*
X1472Y1739D02*
X1555Y1739D01*
X2474Y1739D02*
X2557Y1739D01*
X1472Y1738D02*
X1555Y1738D01*
X2474Y1738D02*
X2557Y1738D01*
X1472Y1737D02*
X1555Y1737D01*
X2474Y1737D02*
X2557Y1737D01*
X1472Y1736D02*
X1555Y1736D01*
X2474Y1736D02*
X2557Y1736D01*
X1472Y1735D02*
X1555Y1735D01*
X2474Y1735D02*
X2557Y1735D01*
X1472Y1734D02*
X1555Y1734D01*
X2474Y1734D02*
X2557Y1734D01*
X1472Y1733D02*
X1555Y1733D01*
X2474Y1733D02*
X2557Y1733D01*
X1472Y1732D02*
X1555Y1732D01*
X2474Y1732D02*
X2557Y1732D01*
X1472Y1731D02*
X1555Y1731D01*
X2474Y1731D02*
X2557Y1731D01*
X1473Y1730D02*
X1555Y1730D01*
X2474Y1730D02*
X2556Y1730D01*
X1473Y1729D02*
X1555Y1729D01*
X2474Y1729D02*
X2556Y1729D01*
X1473Y1728D02*
X1555Y1728D01*
X2474Y1728D02*
X2556Y1728D01*
X1473Y1727D02*
X1555Y1727D01*
X2475Y1727D02*
X2556Y1727D01*
X1473Y1726D02*
X1554Y1726D01*
X2475Y1726D02*
X2556Y1726D01*
X1474Y1725D02*
X1554Y1725D01*
X2475Y1725D02*
X2555Y1725D01*
X1474Y1724D02*
X1554Y1724D01*
X2475Y1724D02*
X2555Y1724D01*
X1474Y1723D02*
X1554Y1723D01*
X2475Y1723D02*
X2555Y1723D01*
X1474Y1722D02*
X1553Y1722D01*
X2476Y1722D02*
X2555Y1722D01*
X1475Y1721D02*
X1553Y1721D01*
X2476Y1721D02*
X2554Y1721D01*
X1475Y1720D02*
X1553Y1720D01*
X2476Y1720D02*
X2554Y1720D01*
X1475Y1719D02*
X1552Y1719D01*
X2477Y1719D02*
X2554Y1719D01*
X1476Y1718D02*
X1552Y1718D01*
X2477Y1718D02*
X2553Y1718D01*
X1476Y1717D02*
X1551Y1717D01*
X2478Y1717D02*
X2553Y1717D01*
X1477Y1716D02*
X1551Y1716D01*
X2478Y1716D02*
X2552Y1716D01*
X1477Y1715D02*
X1550Y1715D01*
X2479Y1715D02*
X2552Y1715D01*
X1478Y1714D02*
X1550Y1714D01*
X2479Y1714D02*
X2551Y1714D01*
X1479Y1713D02*
X1549Y1713D01*
X2480Y1713D02*
X2550Y1713D01*
X1479Y1712D02*
X1548Y1712D01*
X2481Y1712D02*
X2550Y1712D01*
X1480Y1711D02*
X1548Y1711D01*
X2481Y1711D02*
X2549Y1711D01*
X1481Y1710D02*
X1547Y1710D01*
X2482Y1710D02*
X2548Y1710D01*
X1481Y1709D02*
X1546Y1709D01*
X2483Y1709D02*
X2548Y1709D01*
X1482Y1708D02*
X1545Y1708D01*
X2484Y1708D02*
X2547Y1708D01*
X1483Y1707D02*
X1545Y1707D01*
X2484Y1707D02*
X2546Y1707D01*
X1484Y1706D02*
X1544Y1706D01*
X2485Y1706D02*
X2545Y1706D01*
X1485Y1705D02*
X1543Y1705D01*
X2486Y1705D02*
X2544Y1705D01*
X1486Y1704D02*
X1542Y1704D01*
X2487Y1704D02*
X2543Y1704D01*
X1487Y1703D02*
X1540Y1703D01*
X2489Y1703D02*
X2542Y1703D01*
X1488Y1702D02*
X1539Y1702D01*
X2490Y1702D02*
X2541Y1702D01*
X1490Y1701D02*
X1538Y1701D01*
X2491Y1701D02*
X2539Y1701D01*
X1491Y1700D02*
X1536Y1700D01*
X2493Y1700D02*
X2538Y1700D01*
X1493Y1699D02*
X1535Y1699D01*
X2494Y1699D02*
X2536Y1699D01*
X1494Y1698D02*
X1533Y1698D01*
X2496Y1698D02*
X2535Y1698D01*
X1496Y1697D02*
X1531Y1697D01*
X2498Y1697D02*
X2533Y1697D01*
X1499Y1696D02*
X1529Y1696D01*
X2500Y1696D02*
X2530Y1696D01*
X1502Y1695D02*
X1526Y1695D01*
X2503Y1695D02*
X2527Y1695D01*
X1506Y1694D02*
X1522Y1694D01*
X2507Y1694D02*
X2524Y1694D01*
X1514Y1693D02*
X1514Y1693D01*
X2515Y1693D02*
X2515Y1693D01*
X1506Y1676D02*
X1522Y1676D01*
X2507Y1676D02*
X2523Y1676D01*
X1502Y1675D02*
X1526Y1675D01*
X2503Y1675D02*
X2527Y1675D01*
X1499Y1674D02*
X1529Y1674D01*
X2500Y1674D02*
X2530Y1674D01*
X1497Y1673D02*
X1531Y1673D01*
X2498Y1673D02*
X2532Y1673D01*
X1495Y1672D02*
X1533Y1672D01*
X2496Y1672D02*
X2534Y1672D01*
X1493Y1671D02*
X1535Y1671D01*
X2494Y1671D02*
X2536Y1671D01*
X1491Y1670D02*
X1536Y1670D01*
X2493Y1670D02*
X2538Y1670D01*
X1490Y1669D02*
X1538Y1669D01*
X2491Y1669D02*
X2539Y1669D01*
X1489Y1668D02*
X1539Y1668D01*
X2490Y1668D02*
X2541Y1668D01*
X1487Y1667D02*
X1540Y1667D01*
X2489Y1667D02*
X2542Y1667D01*
X1486Y1666D02*
X1542Y1666D01*
X2487Y1666D02*
X2543Y1666D01*
X1485Y1665D02*
X1543Y1665D01*
X2486Y1665D02*
X2544Y1665D01*
X1484Y1664D02*
X1544Y1664D01*
X2485Y1664D02*
X2545Y1664D01*
X1483Y1663D02*
X1545Y1663D01*
X2485Y1663D02*
X2546Y1663D01*
X1482Y1662D02*
X1545Y1662D01*
X2484Y1662D02*
X2547Y1662D01*
X1481Y1661D02*
X1546Y1661D01*
X2483Y1661D02*
X2548Y1661D01*
X1481Y1660D02*
X1547Y1660D01*
X2482Y1660D02*
X2548Y1660D01*
X1480Y1659D02*
X1548Y1659D01*
X2481Y1659D02*
X2549Y1659D01*
X1479Y1658D02*
X1548Y1658D01*
X2481Y1658D02*
X2550Y1658D01*
X1479Y1657D02*
X1549Y1657D01*
X2480Y1657D02*
X2550Y1657D01*
X1478Y1656D02*
X1550Y1656D01*
X2479Y1656D02*
X2551Y1656D01*
X1477Y1655D02*
X1550Y1655D01*
X2479Y1655D02*
X2552Y1655D01*
X1477Y1654D02*
X1551Y1654D01*
X2478Y1654D02*
X2552Y1654D01*
X1476Y1653D02*
X1551Y1653D01*
X2478Y1653D02*
X2553Y1653D01*
X1476Y1652D02*
X1552Y1652D01*
X2477Y1652D02*
X2553Y1652D01*
X1475Y1651D02*
X1552Y1651D01*
X2477Y1651D02*
X2554Y1651D01*
X1475Y1650D02*
X1553Y1650D01*
X2477Y1650D02*
X2554Y1650D01*
X1475Y1649D02*
X1553Y1649D01*
X2476Y1649D02*
X2554Y1649D01*
X1474Y1648D02*
X1553Y1648D01*
X2476Y1648D02*
X2555Y1648D01*
X1474Y1647D02*
X1554Y1647D01*
X2475Y1647D02*
X2555Y1647D01*
X1474Y1646D02*
X1554Y1646D01*
X2475Y1646D02*
X2555Y1646D01*
X1474Y1645D02*
X1554Y1645D01*
X2475Y1645D02*
X2555Y1645D01*
X1473Y1644D02*
X1554Y1644D01*
X2475Y1644D02*
X2556Y1644D01*
X1473Y1643D02*
X1554Y1643D01*
X2475Y1643D02*
X2556Y1643D01*
X1473Y1642D02*
X1555Y1642D01*
X2474Y1642D02*
X2556Y1642D01*
X1473Y1641D02*
X1555Y1641D01*
X2474Y1641D02*
X2556Y1641D01*
X1473Y1640D02*
X1555Y1640D01*
X2474Y1640D02*
X2556Y1640D01*
X1473Y1639D02*
X1555Y1639D01*
X2474Y1639D02*
X2557Y1639D01*
X1472Y1638D02*
X1555Y1638D01*
X2474Y1638D02*
X2557Y1638D01*
X1472Y1637D02*
X1555Y1637D01*
X2474Y1637D02*
X2557Y1637D01*
X1472Y1636D02*
X1555Y1636D01*
X2474Y1636D02*
X2557Y1636D01*
X1472Y1635D02*
X1555Y1635D01*
X2474Y1635D02*
X2557Y1635D01*
X1472Y1634D02*
X1555Y1634D01*
X2474Y1634D02*
X2557Y1634D01*
X1472Y1633D02*
X1555Y1633D01*
X2474Y1633D02*
X2557Y1633D01*
X1472Y1632D02*
X1555Y1632D01*
X2474Y1632D02*
X2557Y1632D01*
X1472Y1631D02*
X1555Y1631D01*
X2474Y1631D02*
X2557Y1631D01*
X1473Y1630D02*
X1555Y1630D01*
X2474Y1630D02*
X2556Y1630D01*
X1473Y1629D02*
X1555Y1629D01*
X2474Y1629D02*
X2556Y1629D01*
X1473Y1628D02*
X1555Y1628D01*
X2474Y1628D02*
X2556Y1628D01*
X1473Y1627D02*
X1555Y1627D01*
X2474Y1627D02*
X2556Y1627D01*
X1473Y1626D02*
X1554Y1626D01*
X2475Y1626D02*
X2556Y1626D01*
X1474Y1625D02*
X1554Y1625D01*
X2475Y1625D02*
X2555Y1625D01*
X1474Y1624D02*
X1554Y1624D01*
X2475Y1624D02*
X2555Y1624D01*
X1474Y1623D02*
X1554Y1623D01*
X2475Y1623D02*
X2555Y1623D01*
X1474Y1622D02*
X1553Y1622D01*
X2476Y1622D02*
X2555Y1622D01*
X1475Y1621D02*
X1553Y1621D01*
X2476Y1621D02*
X2554Y1621D01*
X1475Y1620D02*
X1553Y1620D01*
X2476Y1620D02*
X2554Y1620D01*
X1475Y1619D02*
X1552Y1619D01*
X2477Y1619D02*
X2554Y1619D01*
X1476Y1618D02*
X1552Y1618D01*
X2477Y1618D02*
X2553Y1618D01*
X1476Y1617D02*
X1551Y1617D01*
X2478Y1617D02*
X2553Y1617D01*
X1477Y1616D02*
X1551Y1616D01*
X2478Y1616D02*
X2552Y1616D01*
X1477Y1615D02*
X1550Y1615D01*
X2479Y1615D02*
X2552Y1615D01*
X1478Y1614D02*
X1550Y1614D01*
X2479Y1614D02*
X2551Y1614D01*
X1479Y1613D02*
X1549Y1613D01*
X2480Y1613D02*
X2550Y1613D01*
X1479Y1612D02*
X1548Y1612D01*
X2481Y1612D02*
X2550Y1612D01*
X1480Y1611D02*
X1548Y1611D01*
X2481Y1611D02*
X2549Y1611D01*
X1481Y1610D02*
X1547Y1610D01*
X2482Y1610D02*
X2548Y1610D01*
X1481Y1609D02*
X1546Y1609D01*
X2483Y1609D02*
X2548Y1609D01*
X1482Y1608D02*
X1546Y1608D01*
X2483Y1608D02*
X2547Y1608D01*
X1483Y1607D02*
X1545Y1607D01*
X2484Y1607D02*
X2546Y1607D01*
X1484Y1606D02*
X1544Y1606D01*
X2485Y1606D02*
X2545Y1606D01*
X1485Y1605D02*
X1543Y1605D01*
X2486Y1605D02*
X2544Y1605D01*
X1486Y1604D02*
X1542Y1604D01*
X2487Y1604D02*
X2543Y1604D01*
X1487Y1603D02*
X1541Y1603D01*
X2488Y1603D02*
X2542Y1603D01*
X1488Y1602D02*
X1539Y1602D01*
X2490Y1602D02*
X2541Y1602D01*
X1490Y1601D02*
X1538Y1601D01*
X2491Y1601D02*
X2539Y1601D01*
X1491Y1600D02*
X1537Y1600D01*
X2492Y1600D02*
X2538Y1600D01*
X1493Y1599D02*
X1535Y1599D01*
X2494Y1599D02*
X2536Y1599D01*
X1494Y1598D02*
X1533Y1598D01*
X2496Y1598D02*
X2535Y1598D01*
X1496Y1597D02*
X1531Y1597D01*
X2498Y1597D02*
X2533Y1597D01*
X1498Y1596D02*
X1529Y1596D01*
X2500Y1596D02*
X2531Y1596D01*
X1501Y1595D02*
X1526Y1595D01*
X2503Y1595D02*
X2528Y1595D01*
X1505Y1594D02*
X1523Y1594D01*
X2506Y1594D02*
X2524Y1594D01*
X1512Y1593D02*
X1516Y1593D01*
X2513Y1593D02*
X2517Y1593D01*
X1506Y1576D02*
X1521Y1576D01*
X2508Y1576D02*
X2523Y1576D01*
X1502Y1575D02*
X1525Y1575D01*
X2504Y1575D02*
X2527Y1575D01*
X1499Y1574D02*
X1528Y1574D01*
X2501Y1574D02*
X2530Y1574D01*
X1497Y1573D02*
X1531Y1573D01*
X2498Y1573D02*
X2532Y1573D01*
X1495Y1572D02*
X1533Y1572D01*
X2496Y1572D02*
X2534Y1572D01*
X1493Y1571D02*
X1534Y1571D01*
X2495Y1571D02*
X2536Y1571D01*
X1492Y1570D02*
X1536Y1570D01*
X2493Y1570D02*
X2538Y1570D01*
X1490Y1569D02*
X1538Y1569D01*
X2491Y1569D02*
X2539Y1569D01*
X1489Y1568D02*
X1539Y1568D01*
X2490Y1568D02*
X2540Y1568D01*
X1487Y1567D02*
X1540Y1567D01*
X2489Y1567D02*
X2542Y1567D01*
X1486Y1566D02*
X1541Y1566D01*
X2488Y1566D02*
X2543Y1566D01*
X1485Y1565D02*
X1542Y1565D01*
X2487Y1565D02*
X2544Y1565D01*
X1484Y1564D02*
X1543Y1564D01*
X2486Y1564D02*
X2545Y1564D01*
X1483Y1563D02*
X1544Y1563D01*
X2485Y1563D02*
X2546Y1563D01*
X1482Y1562D02*
X1545Y1562D01*
X2484Y1562D02*
X2547Y1562D01*
X1482Y1561D02*
X1546Y1561D01*
X2483Y1561D02*
X2547Y1561D01*
X1481Y1560D02*
X1547Y1560D01*
X2482Y1560D02*
X2548Y1560D01*
X1480Y1559D02*
X1548Y1559D01*
X2481Y1559D02*
X2549Y1559D01*
X1479Y1558D02*
X1548Y1558D01*
X2481Y1558D02*
X2550Y1558D01*
X1479Y1557D02*
X1549Y1557D01*
X2480Y1557D02*
X2550Y1557D01*
X1478Y1556D02*
X1550Y1556D01*
X2480Y1556D02*
X2551Y1556D01*
X1478Y1555D02*
X1550Y1555D01*
X2479Y1555D02*
X2552Y1555D01*
X1477Y1554D02*
X1551Y1554D01*
X2478Y1554D02*
X2552Y1554D01*
X1476Y1553D02*
X1551Y1553D01*
X2478Y1553D02*
X2553Y1553D01*
X1476Y1552D02*
X1552Y1552D01*
X2477Y1552D02*
X2553Y1552D01*
X1476Y1551D02*
X1552Y1551D01*
X2477Y1551D02*
X2553Y1551D01*
X1475Y1550D02*
X1552Y1550D01*
X2477Y1550D02*
X2554Y1550D01*
X1475Y1549D02*
X1553Y1549D01*
X2476Y1549D02*
X2554Y1549D01*
X1474Y1548D02*
X1553Y1548D01*
X2476Y1548D02*
X2555Y1548D01*
X1474Y1547D02*
X1553Y1547D01*
X2476Y1547D02*
X2555Y1547D01*
X1474Y1546D02*
X1554Y1546D01*
X2475Y1546D02*
X2555Y1546D01*
X1474Y1545D02*
X1554Y1545D01*
X2475Y1545D02*
X2555Y1545D01*
X1473Y1544D02*
X1554Y1544D01*
X2475Y1544D02*
X2556Y1544D01*
X1473Y1543D02*
X1554Y1543D01*
X2475Y1543D02*
X2556Y1543D01*
X1473Y1542D02*
X1555Y1542D01*
X2474Y1542D02*
X2556Y1542D01*
X1473Y1541D02*
X1555Y1541D01*
X2474Y1541D02*
X2556Y1541D01*
X1473Y1540D02*
X1555Y1540D01*
X2474Y1540D02*
X2556Y1540D01*
X1473Y1539D02*
X1555Y1539D01*
X2474Y1539D02*
X2556Y1539D01*
X1472Y1538D02*
X1555Y1538D01*
X2474Y1538D02*
X2557Y1538D01*
X1472Y1537D02*
X1555Y1537D01*
X2474Y1537D02*
X2557Y1537D01*
X1472Y1536D02*
X1555Y1536D01*
X2474Y1536D02*
X2557Y1536D01*
X1472Y1535D02*
X1555Y1535D01*
X2474Y1535D02*
X2557Y1535D01*
X1472Y1534D02*
X1555Y1534D01*
X2474Y1534D02*
X2557Y1534D01*
X1472Y1533D02*
X1555Y1533D01*
X2474Y1533D02*
X2557Y1533D01*
X1472Y1532D02*
X1555Y1532D01*
X2474Y1532D02*
X2557Y1532D01*
X1472Y1531D02*
X1555Y1531D01*
X2474Y1531D02*
X2557Y1531D01*
X1473Y1530D02*
X1555Y1530D01*
X2474Y1530D02*
X2556Y1530D01*
X1473Y1529D02*
X1555Y1529D01*
X2474Y1529D02*
X2556Y1529D01*
X1473Y1528D02*
X1555Y1528D01*
X2474Y1528D02*
X2556Y1528D01*
X1473Y1527D02*
X1555Y1527D01*
X2474Y1527D02*
X2556Y1527D01*
X1473Y1526D02*
X1554Y1526D01*
X2475Y1526D02*
X2556Y1526D01*
X1474Y1525D02*
X1554Y1525D01*
X2475Y1525D02*
X2555Y1525D01*
X1474Y1524D02*
X1554Y1524D01*
X2475Y1524D02*
X2555Y1524D01*
X1474Y1523D02*
X1554Y1523D01*
X2475Y1523D02*
X2555Y1523D01*
X1474Y1522D02*
X1553Y1522D01*
X2476Y1522D02*
X2555Y1522D01*
X1475Y1521D02*
X1553Y1521D01*
X2476Y1521D02*
X2554Y1521D01*
X1475Y1520D02*
X1553Y1520D01*
X2476Y1520D02*
X2554Y1520D01*
X1475Y1519D02*
X1552Y1519D01*
X2477Y1519D02*
X2554Y1519D01*
X1476Y1518D02*
X1552Y1518D01*
X2477Y1518D02*
X2553Y1518D01*
X1476Y1517D02*
X1551Y1517D01*
X2478Y1517D02*
X2553Y1517D01*
X1477Y1516D02*
X1551Y1516D01*
X2478Y1516D02*
X2552Y1516D01*
X1477Y1515D02*
X1550Y1515D01*
X2479Y1515D02*
X2552Y1515D01*
X1478Y1514D02*
X1550Y1514D01*
X2479Y1514D02*
X2551Y1514D01*
X1478Y1513D02*
X1549Y1513D01*
X2480Y1513D02*
X2551Y1513D01*
X1479Y1512D02*
X1549Y1512D01*
X2480Y1512D02*
X2550Y1512D01*
X1480Y1511D02*
X1548Y1511D01*
X2481Y1511D02*
X2549Y1511D01*
X1480Y1510D02*
X1547Y1510D01*
X2482Y1510D02*
X2549Y1510D01*
X1481Y1509D02*
X1546Y1509D01*
X2483Y1509D02*
X2548Y1509D01*
X1482Y1508D02*
X1546Y1508D01*
X2483Y1508D02*
X2547Y1508D01*
X1483Y1507D02*
X1545Y1507D01*
X2484Y1507D02*
X2546Y1507D01*
X1484Y1506D02*
X1544Y1506D01*
X2485Y1506D02*
X2545Y1506D01*
X1485Y1505D02*
X1543Y1505D01*
X2486Y1505D02*
X2544Y1505D01*
X1486Y1504D02*
X1542Y1504D01*
X2487Y1504D02*
X2543Y1504D01*
X1487Y1503D02*
X1541Y1503D01*
X2488Y1503D02*
X2542Y1503D01*
X1488Y1502D02*
X1540Y1502D01*
X2489Y1502D02*
X2541Y1502D01*
X1489Y1501D02*
X1538Y1501D01*
X2491Y1501D02*
X2540Y1501D01*
X1491Y1500D02*
X1537Y1500D01*
X2492Y1500D02*
X2538Y1500D01*
X1492Y1499D02*
X1535Y1499D01*
X2494Y1499D02*
X2537Y1499D01*
X1494Y1498D02*
X1534Y1498D01*
X2495Y1498D02*
X2535Y1498D01*
X1496Y1497D02*
X1532Y1497D01*
X2497Y1497D02*
X2533Y1497D01*
X1498Y1496D02*
X1530Y1496D01*
X2499Y1496D02*
X2531Y1496D01*
X1501Y1495D02*
X1527Y1495D01*
X2502Y1495D02*
X2528Y1495D01*
X1504Y1494D02*
X1523Y1494D01*
X2506Y1494D02*
X2525Y1494D01*
X1510Y1493D02*
X1518Y1493D01*
X2511Y1493D02*
X2519Y1493D01*
X1507Y1476D02*
X1520Y1476D01*
X2509Y1476D02*
X2522Y1476D01*
X1503Y1475D02*
X1525Y1475D01*
X2504Y1475D02*
X2526Y1475D01*
X1500Y1474D02*
X1528Y1474D01*
X2501Y1474D02*
X2529Y1474D01*
X1497Y1473D02*
X1530Y1473D01*
X2499Y1473D02*
X2532Y1473D01*
X1495Y1472D02*
X1533Y1472D01*
X2497Y1472D02*
X2534Y1472D01*
X1493Y1471D02*
X1534Y1471D01*
X2495Y1471D02*
X2536Y1471D01*
X1492Y1470D02*
X1536Y1470D01*
X2493Y1470D02*
X2537Y1470D01*
X1490Y1469D02*
X1537Y1469D01*
X2492Y1469D02*
X2539Y1469D01*
X1489Y1468D02*
X1539Y1468D01*
X2490Y1468D02*
X2540Y1468D01*
X1488Y1467D02*
X1540Y1467D01*
X2489Y1467D02*
X2541Y1467D01*
X1486Y1466D02*
X1541Y1466D01*
X2488Y1466D02*
X2543Y1466D01*
X1485Y1465D02*
X1542Y1465D01*
X2487Y1465D02*
X2544Y1465D01*
X1484Y1464D02*
X1543Y1464D01*
X2486Y1464D02*
X2545Y1464D01*
X1483Y1463D02*
X1544Y1463D01*
X2485Y1463D02*
X2546Y1463D01*
X1482Y1462D02*
X1545Y1462D01*
X2484Y1462D02*
X2547Y1462D01*
X1482Y1461D02*
X1546Y1461D01*
X2483Y1461D02*
X2547Y1461D01*
X1481Y1460D02*
X1547Y1460D01*
X2482Y1460D02*
X2548Y1460D01*
X1480Y1459D02*
X1547Y1459D01*
X2482Y1459D02*
X2549Y1459D01*
X1479Y1458D02*
X1548Y1458D01*
X2481Y1458D02*
X2550Y1458D01*
X1479Y1457D02*
X1549Y1457D01*
X2480Y1457D02*
X2550Y1457D01*
X1478Y1456D02*
X1549Y1456D01*
X2480Y1456D02*
X2551Y1456D01*
X1478Y1455D02*
X1550Y1455D01*
X2479Y1455D02*
X2551Y1455D01*
X1477Y1454D02*
X1551Y1454D01*
X2478Y1454D02*
X2552Y1454D01*
X1477Y1453D02*
X1551Y1453D01*
X2478Y1453D02*
X2552Y1453D01*
X1476Y1452D02*
X1552Y1452D01*
X2477Y1452D02*
X2553Y1452D01*
X1476Y1451D02*
X1552Y1451D01*
X2477Y1451D02*
X2553Y1451D01*
X1475Y1450D02*
X1552Y1450D01*
X2477Y1450D02*
X2554Y1450D01*
X1475Y1449D02*
X1553Y1449D01*
X2476Y1449D02*
X2554Y1449D01*
X1474Y1448D02*
X1553Y1448D01*
X2476Y1448D02*
X2555Y1448D01*
X1474Y1447D02*
X1553Y1447D01*
X2476Y1447D02*
X2555Y1447D01*
X1474Y1446D02*
X1554Y1446D01*
X2475Y1446D02*
X2555Y1446D01*
X1474Y1445D02*
X1554Y1445D01*
X2475Y1445D02*
X2555Y1445D01*
X1473Y1444D02*
X1554Y1444D01*
X2475Y1444D02*
X2556Y1444D01*
X1473Y1443D02*
X1554Y1443D01*
X2475Y1443D02*
X2556Y1443D01*
X1473Y1442D02*
X1555Y1442D01*
X2474Y1442D02*
X2556Y1442D01*
X1473Y1441D02*
X1555Y1441D01*
X2474Y1441D02*
X2556Y1441D01*
X1473Y1440D02*
X1555Y1440D01*
X2474Y1440D02*
X2556Y1440D01*
X1473Y1439D02*
X1555Y1439D01*
X2474Y1439D02*
X2556Y1439D01*
X1472Y1438D02*
X1555Y1438D01*
X2474Y1438D02*
X2557Y1438D01*
X1472Y1437D02*
X1555Y1437D01*
X2474Y1437D02*
X2557Y1437D01*
X1472Y1436D02*
X1555Y1436D01*
X2474Y1436D02*
X2557Y1436D01*
X1472Y1435D02*
X1555Y1435D01*
X2474Y1435D02*
X2557Y1435D01*
X1472Y1434D02*
X1555Y1434D01*
X2474Y1434D02*
X2557Y1434D01*
X1472Y1433D02*
X1555Y1433D01*
X2474Y1433D02*
X2557Y1433D01*
X1472Y1432D02*
X1555Y1432D01*
X2474Y1432D02*
X2557Y1432D01*
X1472Y1431D02*
X1555Y1431D01*
X2474Y1431D02*
X2557Y1431D01*
X1473Y1430D02*
X1555Y1430D01*
X2474Y1430D02*
X2556Y1430D01*
X1473Y1429D02*
X1555Y1429D01*
X2474Y1429D02*
X2556Y1429D01*
X1473Y1428D02*
X1555Y1428D01*
X2474Y1428D02*
X2556Y1428D01*
X1473Y1427D02*
X1555Y1427D01*
X2474Y1427D02*
X2556Y1427D01*
X1473Y1426D02*
X1554Y1426D01*
X2475Y1426D02*
X2556Y1426D01*
X1473Y1425D02*
X1554Y1425D01*
X2475Y1425D02*
X2556Y1425D01*
X1474Y1424D02*
X1554Y1424D01*
X2475Y1424D02*
X2555Y1424D01*
X1474Y1423D02*
X1554Y1423D01*
X2475Y1423D02*
X2555Y1423D01*
X1474Y1422D02*
X1553Y1422D01*
X2476Y1422D02*
X2555Y1422D01*
X1475Y1421D02*
X1553Y1421D01*
X2476Y1421D02*
X2554Y1421D01*
X1475Y1420D02*
X1553Y1420D01*
X2476Y1420D02*
X2554Y1420D01*
X1475Y1419D02*
X1552Y1419D01*
X2477Y1419D02*
X2554Y1419D01*
X1476Y1418D02*
X1552Y1418D01*
X2477Y1418D02*
X2553Y1418D01*
X1476Y1417D02*
X1551Y1417D01*
X2478Y1417D02*
X2553Y1417D01*
X1477Y1416D02*
X1551Y1416D01*
X2478Y1416D02*
X2552Y1416D01*
X1477Y1415D02*
X1550Y1415D01*
X2479Y1415D02*
X2552Y1415D01*
X1478Y1414D02*
X1550Y1414D01*
X2479Y1414D02*
X2551Y1414D01*
X1478Y1413D02*
X1549Y1413D01*
X2480Y1413D02*
X2551Y1413D01*
X1479Y1412D02*
X1549Y1412D01*
X2480Y1412D02*
X2550Y1412D01*
X1480Y1411D02*
X1548Y1411D01*
X2481Y1411D02*
X2549Y1411D01*
X1480Y1410D02*
X1547Y1410D01*
X2482Y1410D02*
X2549Y1410D01*
X1481Y1409D02*
X1547Y1409D01*
X2483Y1409D02*
X2548Y1409D01*
X1482Y1408D02*
X1546Y1408D01*
X2483Y1408D02*
X2547Y1408D01*
X1483Y1407D02*
X1545Y1407D01*
X2484Y1407D02*
X2546Y1407D01*
X1484Y1406D02*
X1544Y1406D01*
X2485Y1406D02*
X2545Y1406D01*
X1485Y1405D02*
X1543Y1405D01*
X2486Y1405D02*
X2545Y1405D01*
X1486Y1404D02*
X1542Y1404D01*
X2487Y1404D02*
X2543Y1404D01*
X1487Y1403D02*
X1541Y1403D01*
X2488Y1403D02*
X2542Y1403D01*
X1488Y1402D02*
X1540Y1402D01*
X2489Y1402D02*
X2541Y1402D01*
X1489Y1401D02*
X1538Y1401D01*
X2491Y1401D02*
X2540Y1401D01*
X1491Y1400D02*
X1537Y1400D01*
X2492Y1400D02*
X2538Y1400D01*
X1492Y1399D02*
X1535Y1399D01*
X2494Y1399D02*
X2537Y1399D01*
X1494Y1398D02*
X1534Y1398D01*
X2495Y1398D02*
X2535Y1398D01*
X1496Y1397D02*
X1532Y1397D01*
X2497Y1397D02*
X2533Y1397D01*
X1498Y1396D02*
X1530Y1396D01*
X2499Y1396D02*
X2531Y1396D01*
X1500Y1395D02*
X1527Y1395D01*
X2502Y1395D02*
X2529Y1395D01*
X1504Y1394D02*
X1524Y1394D01*
X2505Y1394D02*
X2525Y1394D01*
X1509Y1393D02*
X1518Y1393D01*
X2511Y1393D02*
X2520Y1393D01*
X1508Y1376D02*
X1519Y1376D01*
X2510Y1376D02*
X2521Y1376D01*
X1503Y1375D02*
X1524Y1375D01*
X2505Y1375D02*
X2526Y1375D01*
X1500Y1374D02*
X1528Y1374D01*
X2501Y1374D02*
X2529Y1374D01*
X1497Y1373D02*
X1530Y1373D01*
X2499Y1373D02*
X2532Y1373D01*
X1495Y1372D02*
X1532Y1372D01*
X2497Y1372D02*
X2534Y1372D01*
X1494Y1371D02*
X1534Y1371D01*
X2495Y1371D02*
X2535Y1371D01*
X1492Y1370D02*
X1536Y1370D01*
X2493Y1370D02*
X2537Y1370D01*
X1490Y1369D02*
X1537Y1369D01*
X2492Y1369D02*
X2539Y1369D01*
X1489Y1368D02*
X1539Y1368D01*
X2490Y1368D02*
X2540Y1368D01*
X1488Y1367D02*
X1540Y1367D01*
X2489Y1367D02*
X2541Y1367D01*
X1487Y1366D02*
X1541Y1366D01*
X2488Y1366D02*
X2542Y1366D01*
X1485Y1365D02*
X1542Y1365D01*
X2487Y1365D02*
X2544Y1365D01*
X1484Y1364D02*
X1543Y1364D01*
X2486Y1364D02*
X2545Y1364D01*
X1483Y1363D02*
X1544Y1363D01*
X2485Y1363D02*
X2546Y1363D01*
X1483Y1362D02*
X1545Y1362D01*
X2484Y1362D02*
X2546Y1362D01*
X1482Y1361D02*
X1546Y1361D01*
X2483Y1361D02*
X2547Y1361D01*
X1481Y1360D02*
X1547Y1360D01*
X2482Y1360D02*
X2548Y1360D01*
X1480Y1359D02*
X1547Y1359D01*
X2482Y1359D02*
X2549Y1359D01*
X1480Y1358D02*
X1548Y1358D01*
X2481Y1358D02*
X2550Y1358D01*
X1479Y1357D02*
X1549Y1357D01*
X2480Y1357D02*
X2550Y1357D01*
X1478Y1356D02*
X1549Y1356D01*
X2480Y1356D02*
X2551Y1356D01*
X1478Y1355D02*
X1550Y1355D01*
X2479Y1355D02*
X2551Y1355D01*
X1477Y1354D02*
X1551Y1354D01*
X2478Y1354D02*
X2552Y1354D01*
X1477Y1353D02*
X1551Y1353D01*
X2478Y1353D02*
X2552Y1353D01*
X1476Y1352D02*
X1552Y1352D01*
X2478Y1352D02*
X2553Y1352D01*
X1476Y1351D02*
X1552Y1351D01*
X2477Y1351D02*
X2553Y1351D01*
X1475Y1350D02*
X1552Y1350D01*
X2477Y1350D02*
X2554Y1350D01*
X1475Y1349D02*
X1553Y1349D01*
X2476Y1349D02*
X2554Y1349D01*
X1475Y1348D02*
X1553Y1348D01*
X2476Y1348D02*
X2554Y1348D01*
X1474Y1347D02*
X1553Y1347D01*
X2476Y1347D02*
X2555Y1347D01*
X1474Y1346D02*
X1554Y1346D01*
X2475Y1346D02*
X2555Y1346D01*
X1474Y1345D02*
X1554Y1345D01*
X2475Y1345D02*
X2555Y1345D01*
X1473Y1344D02*
X1554Y1344D01*
X2475Y1344D02*
X2556Y1344D01*
X1473Y1343D02*
X1554Y1343D01*
X2475Y1343D02*
X2556Y1343D01*
X1473Y1342D02*
X1555Y1342D01*
X2474Y1342D02*
X2556Y1342D01*
X1473Y1341D02*
X1555Y1341D01*
X2474Y1341D02*
X2556Y1341D01*
X1473Y1340D02*
X1555Y1340D01*
X2474Y1340D02*
X2556Y1340D01*
X1473Y1339D02*
X1555Y1339D01*
X2474Y1339D02*
X2556Y1339D01*
X1472Y1338D02*
X1555Y1338D01*
X2474Y1338D02*
X2557Y1338D01*
X1472Y1337D02*
X1555Y1337D01*
X2474Y1337D02*
X2557Y1337D01*
X1472Y1336D02*
X1555Y1336D01*
X2474Y1336D02*
X2557Y1336D01*
X1472Y1335D02*
X1555Y1335D01*
X2474Y1335D02*
X2557Y1335D01*
X1472Y1334D02*
X1555Y1334D01*
X2474Y1334D02*
X2557Y1334D01*
X1472Y1333D02*
X1555Y1333D01*
X2474Y1333D02*
X2557Y1333D01*
X1472Y1332D02*
X1555Y1332D01*
X2474Y1332D02*
X2557Y1332D01*
X1472Y1331D02*
X1555Y1331D01*
X2474Y1331D02*
X2557Y1331D01*
X1473Y1330D02*
X1555Y1330D01*
X2474Y1330D02*
X2556Y1330D01*
X1473Y1329D02*
X1555Y1329D01*
X2474Y1329D02*
X2556Y1329D01*
X1473Y1328D02*
X1555Y1328D01*
X2474Y1328D02*
X2556Y1328D01*
X1473Y1327D02*
X1555Y1327D01*
X2474Y1327D02*
X2556Y1327D01*
X1473Y1326D02*
X1554Y1326D01*
X2475Y1326D02*
X2556Y1326D01*
X1473Y1325D02*
X1554Y1325D01*
X2475Y1325D02*
X2556Y1325D01*
X1474Y1324D02*
X1554Y1324D01*
X2475Y1324D02*
X2555Y1324D01*
X1474Y1323D02*
X1554Y1323D01*
X2475Y1323D02*
X2555Y1323D01*
X1474Y1322D02*
X1553Y1322D01*
X2476Y1322D02*
X2555Y1322D01*
X1475Y1321D02*
X1553Y1321D01*
X2476Y1321D02*
X2554Y1321D01*
X1475Y1320D02*
X1553Y1320D01*
X2476Y1320D02*
X2554Y1320D01*
X1475Y1319D02*
X1552Y1319D01*
X2477Y1319D02*
X2554Y1319D01*
X1476Y1318D02*
X1552Y1318D01*
X2477Y1318D02*
X2553Y1318D01*
X1476Y1317D02*
X1551Y1317D01*
X2478Y1317D02*
X2553Y1317D01*
X1477Y1316D02*
X1551Y1316D01*
X2478Y1316D02*
X2552Y1316D01*
X1477Y1315D02*
X1551Y1315D01*
X2479Y1315D02*
X2552Y1315D01*
X1478Y1314D02*
X1550Y1314D01*
X2479Y1314D02*
X2551Y1314D01*
X1478Y1313D02*
X1549Y1313D01*
X2480Y1313D02*
X2551Y1313D01*
X1479Y1312D02*
X1549Y1312D01*
X2480Y1312D02*
X2550Y1312D01*
X1480Y1311D02*
X1548Y1311D01*
X2481Y1311D02*
X2549Y1311D01*
X1480Y1310D02*
X1547Y1310D01*
X2482Y1310D02*
X2549Y1310D01*
X1481Y1309D02*
X1547Y1309D01*
X2482Y1309D02*
X2548Y1309D01*
X1482Y1308D02*
X1546Y1308D01*
X2483Y1308D02*
X2547Y1308D01*
X1483Y1307D02*
X1545Y1307D01*
X2484Y1307D02*
X2546Y1307D01*
X1483Y1306D02*
X1544Y1306D01*
X2485Y1306D02*
X2546Y1306D01*
X1484Y1305D02*
X1543Y1305D01*
X2486Y1305D02*
X2545Y1305D01*
X1485Y1304D02*
X1542Y1304D01*
X2487Y1304D02*
X2544Y1304D01*
X1487Y1303D02*
X1541Y1303D01*
X2488Y1303D02*
X2542Y1303D01*
X1488Y1302D02*
X1540Y1302D01*
X2489Y1302D02*
X2541Y1302D01*
X1489Y1301D02*
X1539Y1301D01*
X2490Y1301D02*
X2540Y1301D01*
X1490Y1300D02*
X1537Y1300D01*
X2492Y1300D02*
X2539Y1300D01*
X1492Y1299D02*
X1536Y1299D01*
X2493Y1299D02*
X2537Y1299D01*
X1494Y1298D02*
X1534Y1298D01*
X2495Y1298D02*
X2535Y1298D01*
X1495Y1297D02*
X1532Y1297D01*
X2497Y1297D02*
X2534Y1297D01*
X1497Y1296D02*
X1530Y1296D01*
X2499Y1296D02*
X2532Y1296D01*
X1500Y1295D02*
X1527Y1295D01*
X2502Y1295D02*
X2529Y1295D01*
X1503Y1294D02*
X1524Y1294D01*
X2505Y1294D02*
X2526Y1294D01*
X1508Y1293D02*
X1519Y1293D01*
X2510Y1293D02*
X2521Y1293D01*
X1509Y1276D02*
X1519Y1276D01*
X2510Y1276D02*
X2520Y1276D01*
X1504Y1275D02*
X1524Y1275D01*
X2505Y1275D02*
X2525Y1275D01*
X1500Y1274D02*
X1527Y1274D01*
X2502Y1274D02*
X2529Y1274D01*
X1498Y1273D02*
X1530Y1273D01*
X2499Y1273D02*
X2531Y1273D01*
X1496Y1272D02*
X1532Y1272D01*
X2497Y1272D02*
X2533Y1272D01*
X1494Y1271D02*
X1534Y1271D01*
X2495Y1271D02*
X2535Y1271D01*
X1492Y1270D02*
X1535Y1270D01*
X2494Y1270D02*
X2537Y1270D01*
X1491Y1269D02*
X1537Y1269D01*
X2492Y1269D02*
X2538Y1269D01*
X1489Y1268D02*
X1538Y1268D01*
X2491Y1268D02*
X2540Y1268D01*
X1488Y1267D02*
X1540Y1267D01*
X2489Y1267D02*
X2541Y1267D01*
X1487Y1266D02*
X1541Y1266D01*
X2488Y1266D02*
X2542Y1266D01*
X1486Y1265D02*
X1542Y1265D01*
X2487Y1265D02*
X2543Y1265D01*
X1484Y1264D02*
X1543Y1264D01*
X2486Y1264D02*
X2545Y1264D01*
X1484Y1263D02*
X1544Y1263D01*
X2485Y1263D02*
X2545Y1263D01*
X1483Y1262D02*
X1545Y1262D01*
X2484Y1262D02*
X2546Y1262D01*
X1482Y1261D02*
X1546Y1261D01*
X2483Y1261D02*
X2547Y1261D01*
X1481Y1260D02*
X1547Y1260D01*
X2482Y1260D02*
X2548Y1260D01*
X1480Y1259D02*
X1547Y1259D01*
X2482Y1259D02*
X2549Y1259D01*
X1480Y1258D02*
X1548Y1258D01*
X2481Y1258D02*
X2549Y1258D01*
X1479Y1257D02*
X1549Y1257D01*
X2480Y1257D02*
X2550Y1257D01*
X1478Y1256D02*
X1549Y1256D01*
X2480Y1256D02*
X2551Y1256D01*
X1478Y1255D02*
X1550Y1255D01*
X2479Y1255D02*
X2551Y1255D01*
X1477Y1254D02*
X1550Y1254D01*
X2479Y1254D02*
X2552Y1254D01*
X1477Y1253D02*
X1551Y1253D01*
X2478Y1253D02*
X2552Y1253D01*
X1476Y1252D02*
X1551Y1252D01*
X2478Y1252D02*
X2553Y1252D01*
X1476Y1251D02*
X1552Y1251D01*
X2477Y1251D02*
X2553Y1251D01*
X1475Y1250D02*
X1552Y1250D01*
X2477Y1250D02*
X2554Y1250D01*
X1475Y1249D02*
X1553Y1249D01*
X2476Y1249D02*
X2554Y1249D01*
X1475Y1248D02*
X1553Y1248D01*
X2476Y1248D02*
X2554Y1248D01*
X1474Y1247D02*
X1553Y1247D01*
X2476Y1247D02*
X2555Y1247D01*
X1474Y1246D02*
X1554Y1246D01*
X2475Y1246D02*
X2555Y1246D01*
X1474Y1245D02*
X1554Y1245D01*
X2475Y1245D02*
X2555Y1245D01*
X1473Y1244D02*
X1554Y1244D01*
X2475Y1244D02*
X2556Y1244D01*
X1473Y1243D02*
X1554Y1243D01*
X2475Y1243D02*
X2556Y1243D01*
X1473Y1242D02*
X1555Y1242D01*
X2474Y1242D02*
X2556Y1242D01*
X1473Y1241D02*
X1555Y1241D01*
X2474Y1241D02*
X2556Y1241D01*
X1473Y1240D02*
X1555Y1240D01*
X2474Y1240D02*
X2556Y1240D01*
X1473Y1239D02*
X1555Y1239D01*
X2474Y1239D02*
X2556Y1239D01*
X1472Y1238D02*
X1555Y1238D01*
X2474Y1238D02*
X2557Y1238D01*
X1472Y1237D02*
X1555Y1237D01*
X2474Y1237D02*
X2557Y1237D01*
X1472Y1236D02*
X1555Y1236D01*
X2474Y1236D02*
X2557Y1236D01*
X1472Y1235D02*
X1555Y1235D01*
X2474Y1235D02*
X2557Y1235D01*
X1472Y1234D02*
X1555Y1234D01*
X2474Y1234D02*
X2557Y1234D01*
X1472Y1233D02*
X1555Y1233D01*
X2474Y1233D02*
X2557Y1233D01*
X1472Y1232D02*
X1555Y1232D01*
X2474Y1232D02*
X2557Y1232D01*
X1472Y1231D02*
X1555Y1231D01*
X2474Y1231D02*
X2557Y1231D01*
X1473Y1230D02*
X1555Y1230D01*
X2474Y1230D02*
X2556Y1230D01*
X1473Y1229D02*
X1555Y1229D01*
X2474Y1229D02*
X2556Y1229D01*
X1473Y1228D02*
X1555Y1228D01*
X2474Y1228D02*
X2556Y1228D01*
X1473Y1227D02*
X1555Y1227D01*
X2474Y1227D02*
X2556Y1227D01*
X1473Y1226D02*
X1554Y1226D01*
X2475Y1226D02*
X2556Y1226D01*
X1473Y1225D02*
X1554Y1225D01*
X2475Y1225D02*
X2556Y1225D01*
X1474Y1224D02*
X1554Y1224D01*
X2475Y1224D02*
X2555Y1224D01*
X1474Y1223D02*
X1554Y1223D01*
X2475Y1223D02*
X2555Y1223D01*
X1474Y1222D02*
X1553Y1222D01*
X2476Y1222D02*
X2555Y1222D01*
X1474Y1221D02*
X1553Y1221D01*
X2476Y1221D02*
X2555Y1221D01*
X1475Y1220D02*
X1553Y1220D01*
X2476Y1220D02*
X2554Y1220D01*
X1475Y1219D02*
X1552Y1219D01*
X2477Y1219D02*
X2554Y1219D01*
X1476Y1218D02*
X1552Y1218D01*
X2477Y1218D02*
X2553Y1218D01*
X1476Y1217D02*
X1552Y1217D01*
X2477Y1217D02*
X2553Y1217D01*
X1477Y1216D02*
X1551Y1216D01*
X2478Y1216D02*
X2552Y1216D01*
X1477Y1215D02*
X1551Y1215D01*
X2478Y1215D02*
X2552Y1215D01*
X1478Y1214D02*
X1550Y1214D01*
X2479Y1214D02*
X2551Y1214D01*
X1478Y1213D02*
X1549Y1213D01*
X2480Y1213D02*
X2551Y1213D01*
X1479Y1212D02*
X1549Y1212D01*
X2480Y1212D02*
X2550Y1212D01*
X1479Y1211D02*
X1548Y1211D01*
X2481Y1211D02*
X2550Y1211D01*
X1480Y1210D02*
X1547Y1210D01*
X2482Y1210D02*
X2549Y1210D01*
X1481Y1209D02*
X1547Y1209D01*
X2482Y1209D02*
X2548Y1209D01*
X1482Y1208D02*
X1546Y1208D01*
X2483Y1208D02*
X2547Y1208D01*
X1482Y1207D02*
X1545Y1207D01*
X2484Y1207D02*
X2547Y1207D01*
X1483Y1206D02*
X1544Y1206D01*
X2485Y1206D02*
X2546Y1206D01*
X1484Y1205D02*
X1543Y1205D01*
X2486Y1205D02*
X2545Y1205D01*
X1485Y1204D02*
X1542Y1204D01*
X2487Y1204D02*
X2544Y1204D01*
X1486Y1203D02*
X1541Y1203D01*
X2488Y1203D02*
X2543Y1203D01*
X1488Y1202D02*
X1540Y1202D01*
X2489Y1202D02*
X2541Y1202D01*
X1489Y1201D02*
X1539Y1201D01*
X2490Y1201D02*
X2540Y1201D01*
X1490Y1200D02*
X1537Y1200D01*
X2492Y1200D02*
X2539Y1200D01*
X1492Y1199D02*
X1536Y1199D01*
X2493Y1199D02*
X2537Y1199D01*
X1493Y1198D02*
X1534Y1198D01*
X2495Y1198D02*
X2536Y1198D01*
X1495Y1197D02*
X1532Y1197D01*
X2497Y1197D02*
X2534Y1197D01*
X1497Y1196D02*
X1530Y1196D01*
X2499Y1196D02*
X2532Y1196D01*
X1500Y1195D02*
X1528Y1195D01*
X2501Y1195D02*
X2529Y1195D01*
X1503Y1194D02*
X1525Y1194D01*
X2504Y1194D02*
X2526Y1194D01*
X1507Y1193D02*
X1520Y1193D01*
X2509Y1193D02*
X2522Y1193D01*
X1510Y1176D02*
X1518Y1176D01*
X2511Y1176D02*
X2519Y1176D01*
X1504Y1175D02*
X1523Y1175D01*
X2506Y1175D02*
X2525Y1175D01*
X1501Y1174D02*
X1527Y1174D01*
X2502Y1174D02*
X2528Y1174D01*
X1498Y1173D02*
X1530Y1173D01*
X2499Y1173D02*
X2531Y1173D01*
X1496Y1172D02*
X1532Y1172D01*
X2497Y1172D02*
X2533Y1172D01*
X1494Y1171D02*
X1534Y1171D01*
X2495Y1171D02*
X2535Y1171D01*
X1492Y1170D02*
X1535Y1170D01*
X2494Y1170D02*
X2537Y1170D01*
X1491Y1169D02*
X1537Y1169D01*
X2492Y1169D02*
X2538Y1169D01*
X1489Y1168D02*
X1538Y1168D01*
X2491Y1168D02*
X2540Y1168D01*
X1488Y1167D02*
X1540Y1167D01*
X2489Y1167D02*
X2541Y1167D01*
X1487Y1166D02*
X1541Y1166D01*
X2488Y1166D02*
X2542Y1166D01*
X1486Y1165D02*
X1542Y1165D01*
X2487Y1165D02*
X2543Y1165D01*
X1485Y1164D02*
X1543Y1164D01*
X2486Y1164D02*
X2544Y1164D01*
X1484Y1163D02*
X1544Y1163D01*
X2485Y1163D02*
X2545Y1163D01*
X1483Y1162D02*
X1545Y1162D01*
X2484Y1162D02*
X2546Y1162D01*
X1482Y1161D02*
X1546Y1161D01*
X2483Y1161D02*
X2547Y1161D01*
X1481Y1160D02*
X1546Y1160D01*
X2483Y1160D02*
X2548Y1160D01*
X1480Y1159D02*
X1547Y1159D01*
X2482Y1159D02*
X2549Y1159D01*
X1480Y1158D02*
X1548Y1158D01*
X2481Y1158D02*
X2549Y1158D01*
X1479Y1157D02*
X1549Y1157D01*
X2480Y1157D02*
X2550Y1157D01*
X1478Y1156D02*
X1549Y1156D01*
X2480Y1156D02*
X2551Y1156D01*
X1478Y1155D02*
X1550Y1155D01*
X2479Y1155D02*
X2551Y1155D01*
X1477Y1154D02*
X1550Y1154D01*
X2479Y1154D02*
X2552Y1154D01*
X1477Y1153D02*
X1551Y1153D01*
X2478Y1153D02*
X2552Y1153D01*
X1476Y1152D02*
X1551Y1152D01*
X2478Y1152D02*
X2553Y1152D01*
X1476Y1151D02*
X1552Y1151D01*
X2477Y1151D02*
X2553Y1151D01*
X1475Y1150D02*
X1552Y1150D01*
X2477Y1150D02*
X2554Y1150D01*
X1475Y1149D02*
X1553Y1149D01*
X2476Y1149D02*
X2554Y1149D01*
X1475Y1148D02*
X1553Y1148D01*
X2476Y1148D02*
X2554Y1148D01*
X1474Y1147D02*
X1553Y1147D01*
X2476Y1147D02*
X2555Y1147D01*
X1474Y1146D02*
X1554Y1146D01*
X2475Y1146D02*
X2555Y1146D01*
X1474Y1145D02*
X1554Y1145D01*
X2475Y1145D02*
X2555Y1145D01*
X1474Y1144D02*
X1554Y1144D01*
X2475Y1144D02*
X2556Y1144D01*
X1473Y1143D02*
X1554Y1143D01*
X2475Y1143D02*
X2556Y1143D01*
X1473Y1142D02*
X1555Y1142D01*
X2474Y1142D02*
X2556Y1142D01*
X1473Y1141D02*
X1555Y1141D01*
X2474Y1141D02*
X2556Y1141D01*
X1473Y1140D02*
X1555Y1140D01*
X2474Y1140D02*
X2556Y1140D01*
X1473Y1139D02*
X1555Y1139D01*
X2474Y1139D02*
X2556Y1139D01*
X1472Y1138D02*
X1555Y1138D01*
X2474Y1138D02*
X2557Y1138D01*
X1472Y1137D02*
X1555Y1137D01*
X2474Y1137D02*
X2557Y1137D01*
X1472Y1136D02*
X1555Y1136D01*
X2474Y1136D02*
X2557Y1136D01*
X1472Y1135D02*
X1555Y1135D01*
X2474Y1135D02*
X2557Y1135D01*
X1472Y1134D02*
X1555Y1134D01*
X2474Y1134D02*
X2557Y1134D01*
X1472Y1133D02*
X1555Y1133D01*
X2474Y1133D02*
X2557Y1133D01*
X1472Y1132D02*
X1555Y1132D01*
X2474Y1132D02*
X2557Y1132D01*
X1472Y1131D02*
X1555Y1131D01*
X2474Y1131D02*
X2557Y1131D01*
X1473Y1130D02*
X1555Y1130D01*
X2474Y1130D02*
X2556Y1130D01*
X1473Y1129D02*
X1555Y1129D01*
X2474Y1129D02*
X2556Y1129D01*
X1473Y1128D02*
X1555Y1128D01*
X2474Y1128D02*
X2556Y1128D01*
X1473Y1127D02*
X1555Y1127D01*
X2474Y1127D02*
X2556Y1127D01*
X1473Y1126D02*
X1554Y1126D01*
X2475Y1126D02*
X2556Y1126D01*
X1473Y1125D02*
X1554Y1125D01*
X2475Y1125D02*
X2556Y1125D01*
X1474Y1124D02*
X1554Y1124D01*
X2475Y1124D02*
X2555Y1124D01*
X1474Y1123D02*
X1554Y1123D01*
X2475Y1123D02*
X2555Y1123D01*
X1474Y1122D02*
X1553Y1122D01*
X2476Y1122D02*
X2555Y1122D01*
X1474Y1121D02*
X1553Y1121D01*
X2476Y1121D02*
X2555Y1121D01*
X1475Y1120D02*
X1553Y1120D01*
X2476Y1120D02*
X2554Y1120D01*
X1475Y1119D02*
X1552Y1119D01*
X2477Y1119D02*
X2554Y1119D01*
X1476Y1118D02*
X1552Y1118D01*
X2477Y1118D02*
X2553Y1118D01*
X1476Y1117D02*
X1552Y1117D01*
X2477Y1117D02*
X2553Y1117D01*
X1476Y1116D02*
X1551Y1116D01*
X2478Y1116D02*
X2553Y1116D01*
X1477Y1115D02*
X1551Y1115D01*
X2478Y1115D02*
X2552Y1115D01*
X1478Y1114D02*
X1550Y1114D01*
X2479Y1114D02*
X2551Y1114D01*
X1478Y1113D02*
X1549Y1113D01*
X2480Y1113D02*
X2551Y1113D01*
X1479Y1112D02*
X1549Y1112D01*
X2480Y1112D02*
X2550Y1112D01*
X1479Y1111D02*
X1548Y1111D01*
X2481Y1111D02*
X2550Y1111D01*
X1480Y1110D02*
X1548Y1110D01*
X2481Y1110D02*
X2549Y1110D01*
X1481Y1109D02*
X1547Y1109D01*
X2482Y1109D02*
X2548Y1109D01*
X1482Y1108D02*
X1546Y1108D01*
X2483Y1108D02*
X2547Y1108D01*
X1482Y1107D02*
X1545Y1107D01*
X2484Y1107D02*
X2547Y1107D01*
X1483Y1106D02*
X1544Y1106D01*
X2485Y1106D02*
X2546Y1106D01*
X1484Y1105D02*
X1543Y1105D01*
X2486Y1105D02*
X2545Y1105D01*
X1485Y1104D02*
X1542Y1104D01*
X2487Y1104D02*
X2544Y1104D01*
X1486Y1103D02*
X1541Y1103D01*
X2488Y1103D02*
X2543Y1103D01*
X1487Y1102D02*
X1540Y1102D01*
X2489Y1102D02*
X2542Y1102D01*
X1489Y1101D02*
X1539Y1101D01*
X2490Y1101D02*
X2540Y1101D01*
X1490Y1100D02*
X1538Y1100D01*
X2491Y1100D02*
X2539Y1100D01*
X1492Y1099D02*
X1536Y1099D01*
X2493Y1099D02*
X2537Y1099D01*
X1493Y1098D02*
X1534Y1098D01*
X2495Y1098D02*
X2536Y1098D01*
X1495Y1097D02*
X1533Y1097D01*
X2496Y1097D02*
X2534Y1097D01*
X1497Y1096D02*
X1531Y1096D01*
X2498Y1096D02*
X2532Y1096D01*
X1499Y1095D02*
X1528Y1095D01*
X2501Y1095D02*
X2530Y1095D01*
X1502Y1094D02*
X1525Y1094D01*
X2504Y1094D02*
X2527Y1094D01*
X1507Y1093D02*
X1521Y1093D01*
X2508Y1093D02*
X2522Y1093D01*
X1511Y1076D02*
X1516Y1076D01*
X2513Y1076D02*
X2518Y1076D01*
X1505Y1075D02*
X1523Y1075D01*
X2506Y1075D02*
X2524Y1075D01*
X1501Y1074D02*
X1526Y1074D01*
X2503Y1074D02*
X2528Y1074D01*
X1498Y1073D02*
X1529Y1073D01*
X2500Y1073D02*
X2531Y1073D01*
X1496Y1072D02*
X1531Y1072D01*
X2498Y1072D02*
X2533Y1072D01*
X1494Y1071D02*
X1533Y1071D01*
X2496Y1071D02*
X2535Y1071D01*
X1493Y1070D02*
X1535Y1070D01*
X2494Y1070D02*
X2536Y1070D01*
X1491Y1069D02*
X1537Y1069D01*
X2492Y1069D02*
X2538Y1069D01*
X1490Y1068D02*
X1538Y1068D01*
X2491Y1068D02*
X2539Y1068D01*
X1488Y1067D02*
X1539Y1067D01*
X2490Y1067D02*
X2541Y1067D01*
X1487Y1066D02*
X1541Y1066D01*
X2488Y1066D02*
X2542Y1066D01*
X1486Y1065D02*
X1542Y1065D01*
X2487Y1065D02*
X2543Y1065D01*
X1485Y1064D02*
X1543Y1064D01*
X2486Y1064D02*
X2544Y1064D01*
X1484Y1063D02*
X1544Y1063D01*
X2485Y1063D02*
X2545Y1063D01*
X1483Y1062D02*
X1545Y1062D01*
X2484Y1062D02*
X2546Y1062D01*
X1482Y1061D02*
X1546Y1061D01*
X2483Y1061D02*
X2547Y1061D01*
X1481Y1060D02*
X1546Y1060D01*
X2483Y1060D02*
X2548Y1060D01*
X1481Y1059D02*
X1547Y1059D01*
X2482Y1059D02*
X2548Y1059D01*
X1480Y1058D02*
X1548Y1058D01*
X2481Y1058D02*
X2549Y1058D01*
X1479Y1057D02*
X1548Y1057D01*
X2481Y1057D02*
X2550Y1057D01*
X1479Y1056D02*
X1549Y1056D01*
X2480Y1056D02*
X2551Y1056D01*
X1478Y1055D02*
X1550Y1055D01*
X2479Y1055D02*
X2551Y1055D01*
X1477Y1054D02*
X1550Y1054D01*
X2479Y1054D02*
X2552Y1054D01*
X1477Y1053D02*
X1551Y1053D01*
X2478Y1053D02*
X2552Y1053D01*
X1476Y1052D02*
X1551Y1052D01*
X2478Y1052D02*
X2553Y1052D01*
X1476Y1051D02*
X1552Y1051D01*
X2477Y1051D02*
X2553Y1051D01*
X1475Y1050D02*
X1552Y1050D01*
X2477Y1050D02*
X2554Y1050D01*
X1475Y1049D02*
X1553Y1049D01*
X2476Y1049D02*
X2554Y1049D01*
X1475Y1048D02*
X1553Y1048D01*
X2476Y1048D02*
X2554Y1048D01*
X1474Y1047D02*
X1553Y1047D01*
X2476Y1047D02*
X2555Y1047D01*
X1474Y1046D02*
X1554Y1046D01*
X2475Y1046D02*
X2555Y1046D01*
X1474Y1045D02*
X1554Y1045D01*
X2475Y1045D02*
X2555Y1045D01*
X1474Y1044D02*
X1554Y1044D01*
X2475Y1044D02*
X2555Y1044D01*
X1473Y1043D02*
X1554Y1043D01*
X2475Y1043D02*
X2556Y1043D01*
X1473Y1042D02*
X1555Y1042D01*
X2474Y1042D02*
X2556Y1042D01*
X1473Y1041D02*
X1555Y1041D01*
X2474Y1041D02*
X2556Y1041D01*
X1473Y1040D02*
X1555Y1040D01*
X2474Y1040D02*
X2556Y1040D01*
X1473Y1039D02*
X1555Y1039D01*
X2474Y1039D02*
X2556Y1039D01*
X1472Y1038D02*
X1555Y1038D01*
X2474Y1038D02*
X2557Y1038D01*
X1472Y1037D02*
X1555Y1037D01*
X2474Y1037D02*
X2557Y1037D01*
X1472Y1036D02*
X1555Y1036D01*
X2474Y1036D02*
X2557Y1036D01*
X1472Y1035D02*
X1555Y1035D01*
X2474Y1035D02*
X2557Y1035D01*
X1472Y1034D02*
X1555Y1034D01*
X2474Y1034D02*
X2557Y1034D01*
X1472Y1033D02*
X1555Y1033D01*
X2474Y1033D02*
X2557Y1033D01*
X1472Y1032D02*
X1555Y1032D01*
X2474Y1032D02*
X2557Y1032D01*
X1472Y1031D02*
X1555Y1031D01*
X2474Y1031D02*
X2557Y1031D01*
X1473Y1030D02*
X1555Y1030D01*
X2474Y1030D02*
X2557Y1030D01*
X1473Y1029D02*
X1555Y1029D01*
X2474Y1029D02*
X2556Y1029D01*
X1473Y1028D02*
X1555Y1028D01*
X2474Y1028D02*
X2556Y1028D01*
X1473Y1027D02*
X1555Y1027D01*
X2474Y1027D02*
X2556Y1027D01*
X1473Y1026D02*
X1554Y1026D01*
X2475Y1026D02*
X2556Y1026D01*
X1473Y1025D02*
X1554Y1025D01*
X2475Y1025D02*
X2556Y1025D01*
X1474Y1024D02*
X1554Y1024D01*
X2475Y1024D02*
X2555Y1024D01*
X1474Y1023D02*
X1554Y1023D01*
X2475Y1023D02*
X2555Y1023D01*
X1474Y1022D02*
X1554Y1022D01*
X2476Y1022D02*
X2555Y1022D01*
X1474Y1021D02*
X1553Y1021D01*
X2476Y1021D02*
X2555Y1021D01*
X1475Y1020D02*
X1553Y1020D01*
X2476Y1020D02*
X2554Y1020D01*
X1475Y1019D02*
X1552Y1019D01*
X2477Y1019D02*
X2554Y1019D01*
X1475Y1018D02*
X1552Y1018D01*
X2477Y1018D02*
X2554Y1018D01*
X1476Y1017D02*
X1552Y1017D01*
X2477Y1017D02*
X2553Y1017D01*
X1476Y1016D02*
X1551Y1016D01*
X2478Y1016D02*
X2553Y1016D01*
X1477Y1015D02*
X1551Y1015D01*
X2478Y1015D02*
X2552Y1015D01*
X1477Y1014D02*
X1550Y1014D01*
X2479Y1014D02*
X2552Y1014D01*
X1478Y1013D02*
X1550Y1013D01*
X2479Y1013D02*
X2551Y1013D01*
X1479Y1012D02*
X1549Y1012D01*
X2480Y1012D02*
X2550Y1012D01*
X1479Y1011D02*
X1548Y1011D01*
X2481Y1011D02*
X2550Y1011D01*
X1480Y1010D02*
X1548Y1010D01*
X2481Y1010D02*
X2549Y1010D01*
X1481Y1009D02*
X1547Y1009D01*
X2482Y1009D02*
X2548Y1009D01*
X1481Y1008D02*
X1546Y1008D01*
X2483Y1008D02*
X2548Y1008D01*
X1482Y1007D02*
X1545Y1007D01*
X2484Y1007D02*
X2547Y1007D01*
X1483Y1006D02*
X1544Y1006D01*
X2485Y1006D02*
X2546Y1006D01*
X1484Y1005D02*
X1544Y1005D01*
X2485Y1005D02*
X2545Y1005D01*
X1485Y1004D02*
X1543Y1004D01*
X2486Y1004D02*
X2544Y1004D01*
X1486Y1003D02*
X1541Y1003D01*
X2488Y1003D02*
X2543Y1003D01*
X1487Y1002D02*
X1540Y1002D01*
X2489Y1002D02*
X2542Y1002D01*
X1489Y1001D02*
X1539Y1001D01*
X2490Y1001D02*
X2540Y1001D01*
X1490Y1000D02*
X1538Y1000D01*
X2491Y1000D02*
X2539Y1000D01*
X1491Y999D02*
X1536Y999D01*
X2493Y999D02*
X2538Y999D01*
X1493Y998D02*
X1535Y998D01*
X2494Y998D02*
X2536Y998D01*
X1495Y997D02*
X1533Y997D01*
X2496Y997D02*
X2534Y997D01*
X1497Y996D02*
X1531Y996D01*
X2498Y996D02*
X2532Y996D01*
X1499Y995D02*
X1529Y995D01*
X2500Y995D02*
X2530Y995D01*
X1502Y994D02*
X1526Y994D01*
X2503Y994D02*
X2527Y994D01*
X1506Y993D02*
X1522Y993D01*
X2507Y993D02*
X2523Y993D01*
D02*
G04 End of Mask0*
M02*