; NON-PLATED HOLES START AT T1
; THROUGH (PLATED) HOLES START AT T100
M48
INCH
T100C0.042000
T101C0.040000
T102C0.035000
T103C0.031496
T104C0.039370
T105C0.031497
T106C0.031492
T107C0.035050
T108C0.078740
T109C0.035433
%
T100
X001916Y006353
X001916Y009333
T101
X010777Y027094
X010777Y024094
T102
X028296Y011871
X001668Y018713
X002668Y018713
X028481Y007612
X028296Y013872
X028481Y005612
X002129Y025953
X002129Y023953
X002588Y021851
X001588Y021851
T103
X010494Y009931
X008407Y020316
X010407Y020316
X008444Y006353
X012416Y016992
X010416Y016992
X012407Y020316
X012494Y009931
X008499Y013381
X010499Y013381
X012444Y006353
X008494Y009931
X012499Y013381
X008416Y016992
X010444Y006353
T104
X001872Y014439
X001872Y015439
X001872Y013439
T105
X028296Y015289
X028296Y016273
X006311Y025986
X005326Y025986
T106
X006444Y006353
X006407Y020316
X006494Y009931
X006499Y013381
X006416Y016992
T107
X015133Y018349
X015133Y021353
X015133Y017347
X025148Y011339
X015133Y022354
X015133Y016346
X015133Y024357
X025148Y019350
X025148Y022354
X015133Y011339
X025148Y018349
X025148Y016346
X025148Y010337
X025148Y020352
X025148Y012340
X025148Y021353
X025148Y015344
X025148Y017347
X025148Y014343
X025148Y013342
X015133Y015344
X015133Y012340
X015133Y010337
X015133Y014343
X025148Y024357
X015133Y013342
X015133Y019350
X015133Y020352
X025148Y023356
X015133Y023356
T108
X007839Y002057
X025839Y002057
X028034Y031380
X002034Y031380
X012034Y031380
X006034Y031380
X016034Y031380
X022034Y031380
X024034Y031380
X017839Y002057
X011839Y002057
X014034Y031380
X027839Y002057
X010034Y031380
X013839Y002057
X021839Y002057
X003839Y002057
X019839Y002057
X018034Y031380
X009839Y002057
X005839Y002057
X004034Y031380
X020034Y031380
X015839Y002057
X026034Y031380
X008034Y031380
X001839Y002057
X023839Y002057
T109
X027089Y025941
X026279Y007381
X008931Y004441
X019483Y016330
X009153Y025492
X012372Y007912
X010334Y029429
X017945Y028213
X021247Y029008
X006420Y015505
X008169Y014665
X012406Y011554
X009693Y011418
X020740Y005225
X012406Y021997
X008489Y027925
X012893Y014665
T00
M30
