; NON-PLATED HOLES START AT T1
; THROUGH (PLATED) HOLES START AT T100
M48
INCH
T100C0.035433
T101C0.031492
T102C0.040000
T103C0.031497
T104C0.035000
T105C0.031496
T106C0.035050
T107C0.078740
%
T100
X010137Y021358
X008034Y015377
X022435Y022379
X001719Y015413
X009940Y023130
X009350Y024901
X010551Y015784
X021358Y025689
X011909Y021555
X005547Y015439
X007368Y008067
X008145Y004578
T101
X005444Y006464
X005383Y009968
X005351Y013418
X005305Y017029
X005148Y020316
T102
X010777Y027094
X010777Y024094
T103
X028037Y015178
X028037Y016162
X003623Y025319
X004607Y025319
T104
X001833Y022508
X028037Y005834
X001833Y024508
X028037Y007834
X028111Y011723
X028111Y013723
T105
X011351Y013418
X007383Y009968
X009383Y009968
X011148Y020316
X011444Y006464
X009444Y006464
X007305Y017029
X007444Y006464
X011383Y009968
X007351Y013418
X011305Y017029
X009351Y013418
X009148Y020316
X007148Y020316
X009305Y017029
T106
X015133Y016346
X025148Y011339
X015133Y017347
X025148Y010337
X015133Y024357
X025148Y013342
X025148Y016346
X025148Y012340
X025148Y023356
X025148Y014343
X015133Y013342
X025148Y021353
X015133Y015344
X015133Y011339
X015133Y022354
X015133Y020352
X015133Y019350
X015133Y018349
X015133Y023356
X025148Y017347
X025148Y015344
X025148Y022354
X025148Y024357
X025148Y019350
X015133Y012340
X015133Y021353
X015133Y010337
X025148Y018349
X015133Y014343
X025148Y020352
T107
X011839Y002057
X012034Y031380
X010034Y031380
X018034Y031380
X021839Y002057
X023839Y002057
X027839Y002057
X009839Y002057
X015839Y002057
X004034Y031380
X019839Y002057
X020034Y031380
X016034Y031380
X013839Y002057
X001839Y002057
X006034Y031380
X002034Y031380
X003839Y002057
X022034Y031380
X028034Y031380
X025839Y002057
X017839Y002057
X007839Y002057
X008034Y031380
X024034Y031380
X026034Y031380
X005839Y002057
X014034Y031380
T00
M30
