G04 MADE WITH FRITZING*
G04 WWW.FRITZING.ORG*
G04 DOUBLE SIDED*
G04 HOLES PLATED*
G04 CONTOUR ON CENTER OF CONTOUR VECTOR*
%ASAXBY*%
%FSLAX23Y23*%
%MOIN*%
%OFA0B0*%
%SFA1.0B1.0*%
%ADD10R,2.992130X3.346460X2.976130X3.330460*%
%ADD11C,0.008000*%
%ADD12R,0.001000X0.001000*%
%LNSILK0*%
G90*
G70*
G54D11*
X4Y3342D02*
X2988Y3342D01*
X2988Y4D01*
X4Y4D01*
X4Y3342D01*
D02*
G54D12*
X2217Y2385D02*
X2294Y2385D01*
X2217Y2384D02*
X2294Y2384D01*
X2217Y2383D02*
X2294Y2383D01*
X2217Y2382D02*
X2294Y2382D01*
X2217Y2381D02*
X2294Y2381D01*
X2217Y2380D02*
X2294Y2380D01*
X2217Y2379D02*
X2294Y2379D01*
X2217Y2378D02*
X2294Y2378D01*
X2217Y2377D02*
X2294Y2377D01*
X2217Y2376D02*
X2294Y2376D01*
X2217Y2375D02*
X2226Y2375D01*
X2251Y2375D02*
X2260Y2375D01*
X2285Y2375D02*
X2294Y2375D01*
X2217Y2374D02*
X2226Y2374D01*
X2251Y2374D02*
X2260Y2374D01*
X2285Y2374D02*
X2294Y2374D01*
X2217Y2373D02*
X2226Y2373D01*
X2251Y2373D02*
X2260Y2373D01*
X2285Y2373D02*
X2294Y2373D01*
X2217Y2372D02*
X2226Y2372D01*
X2251Y2372D02*
X2260Y2372D01*
X2285Y2372D02*
X2294Y2372D01*
X2217Y2371D02*
X2226Y2371D01*
X2251Y2371D02*
X2260Y2371D01*
X2285Y2371D02*
X2294Y2371D01*
X2217Y2370D02*
X2226Y2370D01*
X2251Y2370D02*
X2260Y2370D01*
X2285Y2370D02*
X2294Y2370D01*
X2217Y2369D02*
X2226Y2369D01*
X2251Y2369D02*
X2260Y2369D01*
X2285Y2369D02*
X2294Y2369D01*
X2217Y2368D02*
X2226Y2368D01*
X2251Y2368D02*
X2260Y2368D01*
X2285Y2368D02*
X2294Y2368D01*
X2217Y2367D02*
X2226Y2367D01*
X2251Y2367D02*
X2260Y2367D01*
X2285Y2367D02*
X2294Y2367D01*
X2217Y2366D02*
X2226Y2366D01*
X2251Y2366D02*
X2260Y2366D01*
X2285Y2366D02*
X2294Y2366D01*
X2217Y2365D02*
X2226Y2365D01*
X2251Y2365D02*
X2260Y2365D01*
X2285Y2365D02*
X2294Y2365D01*
X2217Y2364D02*
X2226Y2364D01*
X2251Y2364D02*
X2260Y2364D01*
X2285Y2364D02*
X2294Y2364D01*
X2217Y2363D02*
X2226Y2363D01*
X2251Y2363D02*
X2260Y2363D01*
X2285Y2363D02*
X2294Y2363D01*
X2217Y2362D02*
X2226Y2362D01*
X2251Y2362D02*
X2260Y2362D01*
X2285Y2362D02*
X2294Y2362D01*
X2217Y2361D02*
X2226Y2361D01*
X2251Y2361D02*
X2260Y2361D01*
X2285Y2361D02*
X2294Y2361D01*
X2217Y2360D02*
X2226Y2360D01*
X2251Y2360D02*
X2260Y2360D01*
X2285Y2360D02*
X2294Y2360D01*
X2217Y2359D02*
X2226Y2359D01*
X2251Y2359D02*
X2260Y2359D01*
X2285Y2359D02*
X2294Y2359D01*
X2217Y2358D02*
X2226Y2358D01*
X2252Y2358D02*
X2259Y2358D01*
X2285Y2358D02*
X2294Y2358D01*
X2217Y2357D02*
X2226Y2357D01*
X2253Y2357D02*
X2258Y2357D01*
X2285Y2357D02*
X2294Y2357D01*
X2217Y2356D02*
X2226Y2356D01*
X2285Y2356D02*
X2294Y2356D01*
X2217Y2355D02*
X2226Y2355D01*
X2285Y2355D02*
X2294Y2355D01*
X2217Y2354D02*
X2226Y2354D01*
X2285Y2354D02*
X2294Y2354D01*
X2217Y2353D02*
X2226Y2353D01*
X2285Y2353D02*
X2294Y2353D01*
X2217Y2352D02*
X2226Y2352D01*
X2285Y2352D02*
X2294Y2352D01*
X2217Y2351D02*
X2226Y2351D01*
X2285Y2351D02*
X2294Y2351D01*
X2217Y2350D02*
X2226Y2350D01*
X2285Y2350D02*
X2294Y2350D01*
X2217Y2349D02*
X2226Y2349D01*
X2285Y2349D02*
X2294Y2349D01*
X2217Y2348D02*
X2226Y2348D01*
X2285Y2348D02*
X2294Y2348D01*
X2217Y2347D02*
X2226Y2347D01*
X2285Y2347D02*
X2294Y2347D01*
X2217Y2346D02*
X2226Y2346D01*
X2285Y2346D02*
X2294Y2346D01*
X2217Y2345D02*
X2226Y2345D01*
X2285Y2345D02*
X2294Y2345D01*
X2217Y2344D02*
X2226Y2344D01*
X2285Y2344D02*
X2294Y2344D01*
X2217Y2343D02*
X2226Y2343D01*
X2285Y2343D02*
X2294Y2343D01*
X2217Y2342D02*
X2226Y2342D01*
X2285Y2342D02*
X2294Y2342D01*
X2217Y2341D02*
X2226Y2341D01*
X2285Y2341D02*
X2294Y2341D01*
X2217Y2340D02*
X2226Y2340D01*
X2285Y2340D02*
X2294Y2340D01*
X2218Y2339D02*
X2226Y2339D01*
X2285Y2339D02*
X2293Y2339D01*
X2218Y2338D02*
X2225Y2338D01*
X2286Y2338D02*
X2293Y2338D01*
X2219Y2337D02*
X2224Y2337D01*
X2287Y2337D02*
X2292Y2337D01*
X2241Y2313D02*
X2291Y2313D01*
X2240Y2312D02*
X2293Y2312D01*
X2239Y2311D02*
X2293Y2311D01*
X2238Y2310D02*
X2294Y2310D01*
X2238Y2309D02*
X2294Y2309D01*
X2238Y2308D02*
X2294Y2308D01*
X2239Y2307D02*
X2294Y2307D01*
X2239Y2306D02*
X2293Y2306D01*
X2240Y2305D02*
X2292Y2305D01*
X2241Y2304D02*
X2291Y2304D01*
X2246Y2303D02*
X2257Y2303D01*
X2246Y2302D02*
X2257Y2302D01*
X2245Y2301D02*
X2256Y2301D01*
X2244Y2300D02*
X2256Y2300D01*
X2244Y2299D02*
X2255Y2299D01*
X2243Y2298D02*
X2254Y2298D01*
X2243Y2297D02*
X2254Y2297D01*
X2242Y2296D02*
X2253Y2296D01*
X2241Y2295D02*
X2252Y2295D01*
X2241Y2294D02*
X2252Y2294D01*
X2240Y2293D02*
X2251Y2293D01*
X2240Y2292D02*
X2250Y2292D01*
X2239Y2291D02*
X2250Y2291D01*
X2239Y2290D02*
X2249Y2290D01*
X2239Y2289D02*
X2248Y2289D01*
X2238Y2288D02*
X2248Y2288D01*
X2238Y2287D02*
X2247Y2287D01*
X2238Y2286D02*
X2247Y2286D01*
X2238Y2285D02*
X2247Y2285D01*
X2238Y2284D02*
X2247Y2284D01*
X2238Y2283D02*
X2247Y2283D01*
X2238Y2282D02*
X2247Y2282D01*
X2238Y2281D02*
X2247Y2281D01*
X2238Y2280D02*
X2247Y2280D01*
X2238Y2279D02*
X2248Y2279D01*
X2238Y2278D02*
X2248Y2278D01*
X2239Y2277D02*
X2249Y2277D01*
X2239Y2276D02*
X2250Y2276D01*
X2239Y2275D02*
X2258Y2275D01*
X2240Y2274D02*
X2287Y2274D01*
X2240Y2273D02*
X2292Y2273D01*
X2241Y2272D02*
X2293Y2272D01*
X2241Y2271D02*
X2293Y2271D01*
X2242Y2270D02*
X2294Y2270D01*
X2243Y2269D02*
X2294Y2269D01*
X2244Y2268D02*
X2294Y2268D01*
X2246Y2267D02*
X2294Y2267D01*
X2248Y2266D02*
X2293Y2266D01*
X2257Y2265D02*
X2292Y2265D01*
X2288Y2264D02*
X2289Y2264D01*
X2253Y2241D02*
X2275Y2241D01*
X2250Y2240D02*
X2278Y2240D01*
X2248Y2239D02*
X2280Y2239D01*
X2247Y2238D02*
X2281Y2238D01*
X2246Y2237D02*
X2282Y2237D01*
X2245Y2236D02*
X2283Y2236D01*
X2309Y2236D02*
X2312Y2236D01*
X2244Y2235D02*
X2284Y2235D01*
X2308Y2235D02*
X2314Y2235D01*
X2243Y2234D02*
X2285Y2234D01*
X2307Y2234D02*
X2314Y2234D01*
X2242Y2233D02*
X2286Y2233D01*
X2306Y2233D02*
X2315Y2233D01*
X2241Y2232D02*
X2286Y2232D01*
X2306Y2232D02*
X2315Y2232D01*
X2241Y2231D02*
X2254Y2231D01*
X2274Y2231D02*
X2287Y2231D01*
X2306Y2231D02*
X2315Y2231D01*
X2240Y2230D02*
X2252Y2230D01*
X2276Y2230D02*
X2288Y2230D01*
X2306Y2230D02*
X2315Y2230D01*
X2240Y2229D02*
X2251Y2229D01*
X2277Y2229D02*
X2288Y2229D01*
X2306Y2229D02*
X2315Y2229D01*
X2239Y2228D02*
X2250Y2228D01*
X2278Y2228D02*
X2289Y2228D01*
X2306Y2228D02*
X2315Y2228D01*
X2239Y2227D02*
X2249Y2227D01*
X2279Y2227D02*
X2289Y2227D01*
X2306Y2227D02*
X2315Y2227D01*
X2239Y2226D02*
X2249Y2226D01*
X2280Y2226D02*
X2289Y2226D01*
X2306Y2226D02*
X2315Y2226D01*
X2238Y2225D02*
X2248Y2225D01*
X2280Y2225D02*
X2290Y2225D01*
X2306Y2225D02*
X2315Y2225D01*
X2238Y2224D02*
X2247Y2224D01*
X2281Y2224D02*
X2290Y2224D01*
X2306Y2224D02*
X2315Y2224D01*
X2238Y2223D02*
X2247Y2223D01*
X2281Y2223D02*
X2290Y2223D01*
X2306Y2223D02*
X2315Y2223D01*
X2238Y2222D02*
X2247Y2222D01*
X2281Y2222D02*
X2290Y2222D01*
X2306Y2222D02*
X2315Y2222D01*
X2238Y2221D02*
X2247Y2221D01*
X2281Y2221D02*
X2290Y2221D01*
X2306Y2221D02*
X2315Y2221D01*
X2238Y2220D02*
X2247Y2220D01*
X2281Y2220D02*
X2290Y2220D01*
X2306Y2220D02*
X2315Y2220D01*
X2238Y2219D02*
X2247Y2219D01*
X2281Y2219D02*
X2290Y2219D01*
X2306Y2219D02*
X2315Y2219D01*
X2238Y2218D02*
X2247Y2218D01*
X2281Y2218D02*
X2290Y2218D01*
X2306Y2218D02*
X2315Y2218D01*
X2238Y2217D02*
X2247Y2217D01*
X2281Y2217D02*
X2290Y2217D01*
X2306Y2217D02*
X2315Y2217D01*
X2238Y2216D02*
X2247Y2216D01*
X2281Y2216D02*
X2290Y2216D01*
X2306Y2216D02*
X2315Y2216D01*
X2238Y2215D02*
X2247Y2215D01*
X2281Y2215D02*
X2290Y2215D01*
X2306Y2215D02*
X2315Y2215D01*
X2238Y2214D02*
X2248Y2214D01*
X2280Y2214D02*
X2290Y2214D01*
X2306Y2214D02*
X2315Y2214D01*
X2238Y2213D02*
X2248Y2213D01*
X2280Y2213D02*
X2290Y2213D01*
X2306Y2213D02*
X2315Y2213D01*
X2239Y2212D02*
X2249Y2212D01*
X2279Y2212D02*
X2289Y2212D01*
X2306Y2212D02*
X2315Y2212D01*
X2239Y2211D02*
X2249Y2211D01*
X2279Y2211D02*
X2289Y2211D01*
X2306Y2211D02*
X2315Y2211D01*
X2239Y2210D02*
X2250Y2210D01*
X2278Y2210D02*
X2289Y2210D01*
X2306Y2210D02*
X2315Y2210D01*
X2240Y2209D02*
X2251Y2209D01*
X2277Y2209D02*
X2288Y2209D01*
X2306Y2209D02*
X2315Y2209D01*
X2240Y2208D02*
X2252Y2208D01*
X2276Y2208D02*
X2288Y2208D01*
X2306Y2208D02*
X2315Y2208D01*
X2241Y2207D02*
X2253Y2207D01*
X2275Y2207D02*
X2287Y2207D01*
X2305Y2207D02*
X2315Y2207D01*
X2241Y2206D02*
X2254Y2206D01*
X2274Y2206D02*
X2287Y2206D01*
X2304Y2206D02*
X2315Y2206D01*
X2242Y2205D02*
X2255Y2205D01*
X2273Y2205D02*
X2286Y2205D01*
X2303Y2205D02*
X2314Y2205D01*
X2243Y2204D02*
X2255Y2204D01*
X2273Y2204D02*
X2285Y2204D01*
X2302Y2204D02*
X2314Y2204D01*
X2244Y2203D02*
X2256Y2203D01*
X2272Y2203D02*
X2284Y2203D01*
X2301Y2203D02*
X2313Y2203D01*
X2245Y2202D02*
X2258Y2202D01*
X2270Y2202D02*
X2283Y2202D01*
X2300Y2202D02*
X2313Y2202D01*
X2241Y2201D02*
X2312Y2201D01*
X2240Y2200D02*
X2311Y2200D01*
X2239Y2199D02*
X2310Y2199D01*
X2238Y2198D02*
X2309Y2198D01*
X2238Y2197D02*
X2308Y2197D01*
X2238Y2196D02*
X2307Y2196D01*
X2239Y2195D02*
X2306Y2195D01*
X2239Y2194D02*
X2305Y2194D01*
X2240Y2193D02*
X2303Y2193D01*
X2241Y2192D02*
X2301Y2192D01*
X2243Y2164D02*
X2243Y2164D01*
X2289Y2164D02*
X2290Y2164D01*
X2240Y2163D02*
X2245Y2163D01*
X2287Y2163D02*
X2292Y2163D01*
X2239Y2162D02*
X2246Y2162D01*
X2286Y2162D02*
X2293Y2162D01*
X2239Y2161D02*
X2247Y2161D01*
X2285Y2161D02*
X2294Y2161D01*
X2238Y2160D02*
X2247Y2160D01*
X2285Y2160D02*
X2294Y2160D01*
X2238Y2159D02*
X2247Y2159D01*
X2285Y2159D02*
X2294Y2159D01*
X2238Y2158D02*
X2247Y2158D01*
X2285Y2158D02*
X2294Y2158D01*
X2238Y2157D02*
X2247Y2157D01*
X2285Y2157D02*
X2294Y2157D01*
X2238Y2156D02*
X2247Y2156D01*
X2285Y2156D02*
X2294Y2156D01*
X2238Y2155D02*
X2247Y2155D01*
X2285Y2155D02*
X2294Y2155D01*
X2217Y2154D02*
X2222Y2154D01*
X2238Y2154D02*
X2247Y2154D01*
X2285Y2154D02*
X2294Y2154D01*
X2215Y2153D02*
X2224Y2153D01*
X2238Y2153D02*
X2247Y2153D01*
X2285Y2153D02*
X2294Y2153D01*
X2214Y2152D02*
X2225Y2152D01*
X2238Y2152D02*
X2247Y2152D01*
X2285Y2152D02*
X2294Y2152D01*
X2213Y2151D02*
X2226Y2151D01*
X2238Y2151D02*
X2247Y2151D01*
X2285Y2151D02*
X2294Y2151D01*
X2213Y2150D02*
X2226Y2150D01*
X2238Y2150D02*
X2247Y2150D01*
X2285Y2150D02*
X2294Y2150D01*
X2213Y2149D02*
X2226Y2149D01*
X2238Y2149D02*
X2294Y2149D01*
X2213Y2148D02*
X2226Y2148D01*
X2238Y2148D02*
X2294Y2148D01*
X2213Y2147D02*
X2226Y2147D01*
X2238Y2147D02*
X2294Y2147D01*
X2213Y2146D02*
X2226Y2146D01*
X2238Y2146D02*
X2294Y2146D01*
X2213Y2145D02*
X2226Y2145D01*
X2238Y2145D02*
X2294Y2145D01*
X2213Y2144D02*
X2226Y2144D01*
X2238Y2144D02*
X2294Y2144D01*
X2213Y2143D02*
X2226Y2143D01*
X2238Y2143D02*
X2294Y2143D01*
X2213Y2142D02*
X2226Y2142D01*
X2239Y2142D02*
X2294Y2142D01*
X2214Y2141D02*
X2225Y2141D01*
X2239Y2141D02*
X2294Y2141D01*
X2215Y2140D02*
X2224Y2140D01*
X2241Y2140D02*
X2294Y2140D01*
X2285Y2139D02*
X2294Y2139D01*
X2285Y2138D02*
X2294Y2138D01*
X2285Y2137D02*
X2294Y2137D01*
X2285Y2136D02*
X2294Y2136D01*
X2285Y2135D02*
X2294Y2135D01*
X2285Y2134D02*
X2294Y2134D01*
X2285Y2133D02*
X2294Y2133D01*
X2285Y2132D02*
X2294Y2132D01*
X2285Y2131D02*
X2294Y2131D01*
X2285Y2130D02*
X2294Y2130D01*
X2285Y2129D02*
X2294Y2129D01*
X2285Y2128D02*
X2294Y2128D01*
X2286Y2127D02*
X2293Y2127D01*
X2286Y2126D02*
X2293Y2126D01*
X2287Y2125D02*
X2291Y2125D01*
X2241Y2096D02*
X2291Y2096D01*
X2239Y2095D02*
X2293Y2095D01*
X2239Y2094D02*
X2293Y2094D01*
X2238Y2093D02*
X2294Y2093D01*
X2238Y2092D02*
X2294Y2092D01*
X2238Y2091D02*
X2294Y2091D01*
X2239Y2090D02*
X2294Y2090D01*
X2239Y2089D02*
X2293Y2089D01*
X2240Y2088D02*
X2292Y2088D01*
X2242Y2087D02*
X2291Y2087D01*
X2246Y2086D02*
X2257Y2086D01*
X2246Y2085D02*
X2257Y2085D01*
X2245Y2084D02*
X2256Y2084D01*
X2244Y2083D02*
X2255Y2083D01*
X2244Y2082D02*
X2255Y2082D01*
X2243Y2081D02*
X2254Y2081D01*
X2242Y2080D02*
X2254Y2080D01*
X2242Y2079D02*
X2253Y2079D01*
X2241Y2078D02*
X2252Y2078D01*
X2241Y2077D02*
X2252Y2077D01*
X2240Y2076D02*
X2251Y2076D01*
X2240Y2075D02*
X2250Y2075D01*
X2239Y2074D02*
X2250Y2074D01*
X2239Y2073D02*
X2249Y2073D01*
X2239Y2072D02*
X2248Y2072D01*
X2238Y2071D02*
X2248Y2071D01*
X2238Y2070D02*
X2247Y2070D01*
X2238Y2069D02*
X2247Y2069D01*
X2238Y2068D02*
X2247Y2068D01*
X2238Y2067D02*
X2247Y2067D01*
X2238Y2066D02*
X2247Y2066D01*
X2238Y2065D02*
X2247Y2065D01*
X2238Y2064D02*
X2247Y2064D01*
X2238Y2063D02*
X2247Y2063D01*
X2238Y2062D02*
X2248Y2062D01*
X2238Y2061D02*
X2248Y2061D01*
X2239Y2060D02*
X2249Y2060D01*
X2239Y2059D02*
X2250Y2059D01*
X2239Y2058D02*
X2262Y2058D01*
X2240Y2057D02*
X2289Y2057D01*
X2240Y2056D02*
X2292Y2056D01*
X2241Y2055D02*
X2293Y2055D01*
X2241Y2054D02*
X2294Y2054D01*
X2242Y2053D02*
X2294Y2053D01*
X2243Y2052D02*
X2294Y2052D01*
X2245Y2051D02*
X2294Y2051D01*
X2246Y2050D02*
X2294Y2050D01*
X2249Y2049D02*
X2293Y2049D01*
X2261Y2048D02*
X2292Y2048D01*
X2253Y2024D02*
X2280Y2024D01*
X2250Y2023D02*
X2283Y2023D01*
X2248Y2022D02*
X2284Y2022D01*
X2247Y2021D02*
X2286Y2021D01*
X2246Y2020D02*
X2287Y2020D01*
X2245Y2019D02*
X2288Y2019D01*
X2244Y2018D02*
X2288Y2018D01*
X2243Y2017D02*
X2289Y2017D01*
X2242Y2016D02*
X2290Y2016D01*
X2241Y2015D02*
X2291Y2015D01*
X2241Y2014D02*
X2253Y2014D01*
X2264Y2014D02*
X2273Y2014D01*
X2279Y2014D02*
X2292Y2014D01*
X2240Y2013D02*
X2252Y2013D01*
X2264Y2013D02*
X2273Y2013D01*
X2280Y2013D02*
X2292Y2013D01*
X2240Y2012D02*
X2251Y2012D01*
X2264Y2012D02*
X2273Y2012D01*
X2281Y2012D02*
X2293Y2012D01*
X2239Y2011D02*
X2250Y2011D01*
X2264Y2011D02*
X2273Y2011D01*
X2282Y2011D02*
X2293Y2011D01*
X2239Y2010D02*
X2249Y2010D01*
X2264Y2010D02*
X2273Y2010D01*
X2283Y2010D02*
X2293Y2010D01*
X2239Y2009D02*
X2248Y2009D01*
X2264Y2009D02*
X2273Y2009D01*
X2284Y2009D02*
X2294Y2009D01*
X2238Y2008D02*
X2248Y2008D01*
X2264Y2008D02*
X2273Y2008D01*
X2284Y2008D02*
X2294Y2008D01*
X2238Y2007D02*
X2247Y2007D01*
X2264Y2007D02*
X2273Y2007D01*
X2285Y2007D02*
X2294Y2007D01*
X2238Y2006D02*
X2247Y2006D01*
X2264Y2006D02*
X2273Y2006D01*
X2285Y2006D02*
X2294Y2006D01*
X2238Y2005D02*
X2247Y2005D01*
X2264Y2005D02*
X2273Y2005D01*
X2285Y2005D02*
X2294Y2005D01*
X2238Y2004D02*
X2247Y2004D01*
X2264Y2004D02*
X2273Y2004D01*
X2285Y2004D02*
X2294Y2004D01*
X2238Y2003D02*
X2247Y2003D01*
X2264Y2003D02*
X2273Y2003D01*
X2285Y2003D02*
X2294Y2003D01*
X2238Y2002D02*
X2247Y2002D01*
X2264Y2002D02*
X2273Y2002D01*
X2285Y2002D02*
X2294Y2002D01*
X2238Y2001D02*
X2247Y2001D01*
X2264Y2001D02*
X2273Y2001D01*
X2285Y2001D02*
X2294Y2001D01*
X2238Y2000D02*
X2247Y2000D01*
X2264Y2000D02*
X2273Y2000D01*
X2285Y2000D02*
X2294Y2000D01*
X2238Y1999D02*
X2247Y1999D01*
X2264Y1999D02*
X2273Y1999D01*
X2285Y1999D02*
X2294Y1999D01*
X2238Y1998D02*
X2247Y1998D01*
X2264Y1998D02*
X2273Y1998D01*
X2285Y1998D02*
X2294Y1998D01*
X2238Y1997D02*
X2247Y1997D01*
X2264Y1997D02*
X2273Y1997D01*
X2285Y1997D02*
X2294Y1997D01*
X2238Y1996D02*
X2247Y1996D01*
X2264Y1996D02*
X2273Y1996D01*
X2285Y1996D02*
X2294Y1996D01*
X2238Y1995D02*
X2247Y1995D01*
X2264Y1995D02*
X2273Y1995D01*
X2285Y1995D02*
X2294Y1995D01*
X2238Y1994D02*
X2247Y1994D01*
X2264Y1994D02*
X2273Y1994D01*
X2285Y1994D02*
X2294Y1994D01*
X2238Y1993D02*
X2247Y1993D01*
X2264Y1993D02*
X2273Y1993D01*
X2285Y1993D02*
X2294Y1993D01*
X2238Y1992D02*
X2248Y1992D01*
X2264Y1992D02*
X2273Y1992D01*
X2285Y1992D02*
X2294Y1992D01*
X2238Y1991D02*
X2248Y1991D01*
X2264Y1991D02*
X2273Y1991D01*
X2285Y1991D02*
X2294Y1991D01*
X2239Y1990D02*
X2248Y1990D01*
X2264Y1990D02*
X2273Y1990D01*
X2285Y1990D02*
X2294Y1990D01*
X2239Y1989D02*
X2249Y1989D01*
X2264Y1989D02*
X2273Y1989D01*
X2285Y1989D02*
X2294Y1989D01*
X2239Y1988D02*
X2250Y1988D01*
X2264Y1988D02*
X2273Y1988D01*
X2285Y1988D02*
X2294Y1988D01*
X2240Y1987D02*
X2251Y1987D01*
X2264Y1987D02*
X2273Y1987D01*
X2285Y1987D02*
X2294Y1987D01*
X2240Y1986D02*
X2252Y1986D01*
X2264Y1986D02*
X2273Y1986D01*
X2285Y1986D02*
X2294Y1986D01*
X2241Y1985D02*
X2254Y1985D01*
X2264Y1985D02*
X2273Y1985D01*
X2285Y1985D02*
X2294Y1985D01*
X2242Y1984D02*
X2273Y1984D01*
X2285Y1984D02*
X2294Y1984D01*
X2242Y1983D02*
X2273Y1983D01*
X2285Y1983D02*
X2294Y1983D01*
X2243Y1982D02*
X2273Y1982D01*
X2285Y1982D02*
X2294Y1982D01*
X2244Y1981D02*
X2273Y1981D01*
X2285Y1981D02*
X2294Y1981D01*
X2245Y1980D02*
X2273Y1980D01*
X2285Y1980D02*
X2294Y1980D01*
X2246Y1979D02*
X2273Y1979D01*
X2285Y1979D02*
X2294Y1979D01*
X2247Y1978D02*
X2272Y1978D01*
X2285Y1978D02*
X2294Y1978D01*
X2248Y1977D02*
X2272Y1977D01*
X2286Y1977D02*
X2293Y1977D01*
X2250Y1976D02*
X2271Y1976D01*
X2287Y1976D02*
X2292Y1976D01*
X2253Y1975D02*
X2269Y1975D01*
X2288Y1975D02*
X2291Y1975D01*
X2217Y1952D02*
X2290Y1952D01*
X2217Y1951D02*
X2292Y1951D01*
X2217Y1950D02*
X2293Y1950D01*
X2217Y1949D02*
X2294Y1949D01*
X2217Y1948D02*
X2294Y1948D01*
X2217Y1947D02*
X2294Y1947D01*
X2217Y1946D02*
X2294Y1946D01*
X2217Y1945D02*
X2293Y1945D01*
X2217Y1944D02*
X2293Y1944D01*
X2217Y1943D02*
X2292Y1943D01*
X2217Y1942D02*
X2226Y1942D01*
X2242Y1942D02*
X2252Y1942D01*
X2217Y1941D02*
X2226Y1941D01*
X2242Y1941D02*
X2252Y1941D01*
X2217Y1940D02*
X2226Y1940D01*
X2242Y1940D02*
X2252Y1940D01*
X2217Y1939D02*
X2226Y1939D01*
X2242Y1939D02*
X2252Y1939D01*
X2217Y1938D02*
X2226Y1938D01*
X2242Y1938D02*
X2252Y1938D01*
X2217Y1937D02*
X2226Y1937D01*
X2242Y1937D02*
X2252Y1937D01*
X2217Y1936D02*
X2226Y1936D01*
X2242Y1936D02*
X2252Y1936D01*
X2217Y1935D02*
X2226Y1935D01*
X2242Y1935D02*
X2252Y1935D01*
X2217Y1934D02*
X2226Y1934D01*
X2242Y1934D02*
X2254Y1934D01*
X2217Y1933D02*
X2226Y1933D01*
X2242Y1933D02*
X2255Y1933D01*
X2217Y1932D02*
X2226Y1932D01*
X2242Y1932D02*
X2257Y1932D01*
X2217Y1931D02*
X2226Y1931D01*
X2242Y1931D02*
X2259Y1931D01*
X2217Y1930D02*
X2226Y1930D01*
X2242Y1930D02*
X2260Y1930D01*
X2217Y1929D02*
X2226Y1929D01*
X2242Y1929D02*
X2262Y1929D01*
X2217Y1928D02*
X2226Y1928D01*
X2242Y1928D02*
X2264Y1928D01*
X2217Y1927D02*
X2226Y1927D01*
X2242Y1927D02*
X2266Y1927D01*
X2217Y1926D02*
X2226Y1926D01*
X2242Y1926D02*
X2267Y1926D01*
X2217Y1925D02*
X2226Y1925D01*
X2242Y1925D02*
X2269Y1925D01*
X2217Y1924D02*
X2226Y1924D01*
X2242Y1924D02*
X2271Y1924D01*
X2217Y1923D02*
X2226Y1923D01*
X2242Y1923D02*
X2272Y1923D01*
X2217Y1922D02*
X2226Y1922D01*
X2242Y1922D02*
X2252Y1922D01*
X2255Y1922D02*
X2274Y1922D01*
X2217Y1921D02*
X2226Y1921D01*
X2242Y1921D02*
X2252Y1921D01*
X2257Y1921D02*
X2276Y1921D01*
X2217Y1920D02*
X2226Y1920D01*
X2242Y1920D02*
X2252Y1920D01*
X2258Y1920D02*
X2278Y1920D01*
X2217Y1919D02*
X2226Y1919D01*
X2242Y1919D02*
X2252Y1919D01*
X2260Y1919D02*
X2279Y1919D01*
X2217Y1918D02*
X2226Y1918D01*
X2242Y1918D02*
X2252Y1918D01*
X2262Y1918D02*
X2281Y1918D01*
X2217Y1917D02*
X2226Y1917D01*
X2242Y1917D02*
X2252Y1917D01*
X2264Y1917D02*
X2283Y1917D01*
X2217Y1916D02*
X2226Y1916D01*
X2242Y1916D02*
X2251Y1916D01*
X2265Y1916D02*
X2284Y1916D01*
X2217Y1915D02*
X2227Y1915D01*
X2242Y1915D02*
X2251Y1915D01*
X2267Y1915D02*
X2286Y1915D01*
X2217Y1914D02*
X2228Y1914D01*
X2241Y1914D02*
X2251Y1914D01*
X2269Y1914D02*
X2288Y1914D01*
X2218Y1913D02*
X2229Y1913D01*
X2239Y1913D02*
X2251Y1913D01*
X2270Y1913D02*
X2290Y1913D01*
X2218Y1912D02*
X2250Y1912D01*
X2272Y1912D02*
X2291Y1912D01*
X2219Y1911D02*
X2250Y1911D01*
X2274Y1911D02*
X2293Y1911D01*
X2219Y1910D02*
X2249Y1910D01*
X2276Y1910D02*
X2293Y1910D01*
X2220Y1909D02*
X2249Y1909D01*
X2277Y1909D02*
X2294Y1909D01*
X2221Y1908D02*
X2248Y1908D01*
X2279Y1908D02*
X2294Y1908D01*
X2221Y1907D02*
X2247Y1907D01*
X2281Y1907D02*
X2294Y1907D01*
X2223Y1906D02*
X2246Y1906D01*
X2282Y1906D02*
X2294Y1906D01*
X2224Y1905D02*
X2245Y1905D01*
X2284Y1905D02*
X2293Y1905D01*
X2226Y1904D02*
X2243Y1904D01*
X2286Y1904D02*
X2293Y1904D01*
X2228Y1903D02*
X2240Y1903D01*
X2288Y1903D02*
X2291Y1903D01*
X2252Y1879D02*
X2281Y1879D01*
X2249Y1878D02*
X2283Y1878D01*
X2248Y1877D02*
X2285Y1877D01*
X2246Y1876D02*
X2286Y1876D01*
X2245Y1875D02*
X2287Y1875D01*
X2244Y1874D02*
X2288Y1874D01*
X2244Y1873D02*
X2289Y1873D01*
X2243Y1872D02*
X2290Y1872D01*
X2242Y1871D02*
X2290Y1871D01*
X2241Y1870D02*
X2291Y1870D01*
X2240Y1869D02*
X2253Y1869D01*
X2279Y1869D02*
X2292Y1869D01*
X2240Y1868D02*
X2252Y1868D01*
X2281Y1868D02*
X2292Y1868D01*
X2239Y1867D02*
X2251Y1867D01*
X2282Y1867D02*
X2293Y1867D01*
X2239Y1866D02*
X2250Y1866D01*
X2283Y1866D02*
X2293Y1866D01*
X2239Y1865D02*
X2249Y1865D01*
X2283Y1865D02*
X2293Y1865D01*
X2238Y1864D02*
X2248Y1864D01*
X2284Y1864D02*
X2294Y1864D01*
X2238Y1863D02*
X2248Y1863D01*
X2285Y1863D02*
X2294Y1863D01*
X2238Y1862D02*
X2247Y1862D01*
X2285Y1862D02*
X2294Y1862D01*
X2238Y1861D02*
X2247Y1861D01*
X2285Y1861D02*
X2294Y1861D01*
X2238Y1860D02*
X2247Y1860D01*
X2285Y1860D02*
X2294Y1860D01*
X2238Y1859D02*
X2247Y1859D01*
X2285Y1859D02*
X2294Y1859D01*
X2238Y1858D02*
X2247Y1858D01*
X2285Y1858D02*
X2294Y1858D01*
X2238Y1857D02*
X2247Y1857D01*
X2285Y1857D02*
X2294Y1857D01*
X2238Y1856D02*
X2247Y1856D01*
X2285Y1856D02*
X2294Y1856D01*
X2238Y1855D02*
X2247Y1855D01*
X2285Y1855D02*
X2294Y1855D01*
X2238Y1854D02*
X2247Y1854D01*
X2285Y1854D02*
X2294Y1854D01*
X2238Y1853D02*
X2247Y1853D01*
X2285Y1853D02*
X2294Y1853D01*
X2238Y1852D02*
X2247Y1852D01*
X2285Y1852D02*
X2294Y1852D01*
X2238Y1851D02*
X2247Y1851D01*
X2285Y1851D02*
X2294Y1851D01*
X2238Y1850D02*
X2247Y1850D01*
X2285Y1850D02*
X2294Y1850D01*
X2238Y1849D02*
X2247Y1849D01*
X2285Y1849D02*
X2294Y1849D01*
X2238Y1848D02*
X2247Y1848D01*
X2285Y1848D02*
X2294Y1848D01*
X2238Y1847D02*
X2248Y1847D01*
X2285Y1847D02*
X2294Y1847D01*
X2238Y1846D02*
X2248Y1846D01*
X2284Y1846D02*
X2294Y1846D01*
X2239Y1845D02*
X2249Y1845D01*
X2283Y1845D02*
X2293Y1845D01*
X2239Y1844D02*
X2249Y1844D01*
X2282Y1844D02*
X2293Y1844D01*
X2239Y1843D02*
X2250Y1843D01*
X2282Y1843D02*
X2293Y1843D01*
X2240Y1842D02*
X2251Y1842D01*
X2281Y1842D02*
X2292Y1842D01*
X2240Y1841D02*
X2253Y1841D01*
X2279Y1841D02*
X2292Y1841D01*
X2241Y1840D02*
X2291Y1840D01*
X2242Y1839D02*
X2290Y1839D01*
X2243Y1838D02*
X2289Y1838D01*
X2244Y1837D02*
X2289Y1837D01*
X2244Y1836D02*
X2288Y1836D01*
X2245Y1835D02*
X2287Y1835D01*
X2246Y1834D02*
X2286Y1834D01*
X2247Y1833D02*
X2284Y1833D01*
X2249Y1832D02*
X2283Y1832D01*
X2251Y1831D02*
X2281Y1831D01*
X2252Y1807D02*
X2280Y1807D01*
X2250Y1806D02*
X2283Y1806D01*
X2248Y1805D02*
X2284Y1805D01*
X2247Y1804D02*
X2286Y1804D01*
X2246Y1803D02*
X2287Y1803D01*
X2245Y1802D02*
X2288Y1802D01*
X2244Y1801D02*
X2289Y1801D01*
X2243Y1800D02*
X2289Y1800D01*
X2242Y1799D02*
X2290Y1799D01*
X2241Y1798D02*
X2291Y1798D01*
X2241Y1797D02*
X2253Y1797D01*
X2279Y1797D02*
X2292Y1797D01*
X2240Y1796D02*
X2252Y1796D01*
X2280Y1796D02*
X2292Y1796D01*
X2239Y1795D02*
X2251Y1795D01*
X2281Y1795D02*
X2293Y1795D01*
X2239Y1794D02*
X2250Y1794D01*
X2282Y1794D02*
X2293Y1794D01*
X2239Y1793D02*
X2249Y1793D01*
X2283Y1793D02*
X2293Y1793D01*
X2239Y1792D02*
X2248Y1792D01*
X2284Y1792D02*
X2294Y1792D01*
X2238Y1791D02*
X2248Y1791D01*
X2284Y1791D02*
X2294Y1791D01*
X2238Y1790D02*
X2247Y1790D01*
X2285Y1790D02*
X2294Y1790D01*
X2238Y1789D02*
X2247Y1789D01*
X2285Y1789D02*
X2294Y1789D01*
X2238Y1788D02*
X2247Y1788D01*
X2285Y1788D02*
X2294Y1788D01*
X2238Y1787D02*
X2247Y1787D01*
X2285Y1787D02*
X2294Y1787D01*
X2238Y1786D02*
X2247Y1786D01*
X2285Y1786D02*
X2294Y1786D01*
X2238Y1785D02*
X2247Y1785D01*
X2285Y1785D02*
X2294Y1785D01*
X2238Y1784D02*
X2247Y1784D01*
X2285Y1784D02*
X2294Y1784D01*
X2238Y1783D02*
X2247Y1783D01*
X2285Y1783D02*
X2294Y1783D01*
X2238Y1782D02*
X2247Y1782D01*
X2285Y1782D02*
X2294Y1782D01*
X2238Y1781D02*
X2247Y1781D01*
X2285Y1781D02*
X2294Y1781D01*
X2238Y1780D02*
X2247Y1780D01*
X2285Y1780D02*
X2294Y1780D01*
X2238Y1779D02*
X2247Y1779D01*
X2285Y1779D02*
X2294Y1779D01*
X2238Y1778D02*
X2247Y1778D01*
X2285Y1778D02*
X2294Y1778D01*
X2238Y1777D02*
X2247Y1777D01*
X2285Y1777D02*
X2294Y1777D01*
X2238Y1776D02*
X2247Y1776D01*
X2285Y1776D02*
X2294Y1776D01*
X2238Y1775D02*
X2248Y1775D01*
X2285Y1775D02*
X2294Y1775D01*
X2238Y1774D02*
X2248Y1774D01*
X2284Y1774D02*
X2294Y1774D01*
X2239Y1773D02*
X2249Y1773D01*
X2283Y1773D02*
X2294Y1773D01*
X2239Y1772D02*
X2249Y1772D01*
X2283Y1772D02*
X2293Y1772D01*
X2239Y1771D02*
X2250Y1771D01*
X2282Y1771D02*
X2293Y1771D01*
X2240Y1770D02*
X2251Y1770D01*
X2281Y1770D02*
X2292Y1770D01*
X2240Y1769D02*
X2252Y1769D01*
X2280Y1769D02*
X2292Y1769D01*
X2241Y1768D02*
X2255Y1768D01*
X2278Y1768D02*
X2291Y1768D01*
X2242Y1767D02*
X2291Y1767D01*
X2242Y1766D02*
X2290Y1766D01*
X2243Y1765D02*
X2289Y1765D01*
X2244Y1764D02*
X2288Y1764D01*
X2245Y1763D02*
X2287Y1763D01*
X2246Y1762D02*
X2286Y1762D01*
X2247Y1761D02*
X2285Y1761D01*
X2249Y1760D02*
X2284Y1760D01*
X2250Y1759D02*
X2282Y1759D01*
X2254Y1758D02*
X2279Y1758D01*
X2243Y1736D02*
X2290Y1736D01*
X2240Y1735D02*
X2292Y1735D01*
X2239Y1734D02*
X2293Y1734D01*
X2239Y1733D02*
X2294Y1733D01*
X2238Y1732D02*
X2294Y1732D01*
X2238Y1731D02*
X2294Y1731D01*
X2238Y1730D02*
X2294Y1730D01*
X2239Y1729D02*
X2293Y1729D01*
X2239Y1728D02*
X2293Y1728D01*
X2240Y1727D02*
X2292Y1727D01*
X2241Y1726D02*
X2254Y1726D01*
X2241Y1725D02*
X2253Y1725D01*
X2240Y1724D02*
X2252Y1724D01*
X2240Y1723D02*
X2251Y1723D01*
X2239Y1722D02*
X2250Y1722D01*
X2239Y1721D02*
X2249Y1721D01*
X2238Y1720D02*
X2249Y1720D01*
X2238Y1719D02*
X2248Y1719D01*
X2238Y1718D02*
X2247Y1718D01*
X2238Y1717D02*
X2247Y1717D01*
X2238Y1716D02*
X2248Y1716D01*
X2238Y1715D02*
X2291Y1715D01*
X2239Y1714D02*
X2292Y1714D01*
X2239Y1713D02*
X2293Y1713D01*
X2240Y1712D02*
X2294Y1712D01*
X2240Y1711D02*
X2294Y1711D01*
X2241Y1710D02*
X2294Y1710D01*
X2242Y1709D02*
X2294Y1709D01*
X2243Y1708D02*
X2293Y1708D01*
X2242Y1707D02*
X2292Y1707D01*
X2241Y1706D02*
X2291Y1706D01*
X2241Y1705D02*
X2253Y1705D01*
X2240Y1704D02*
X2252Y1704D01*
X2239Y1703D02*
X2251Y1703D01*
X2239Y1702D02*
X2250Y1702D01*
X2239Y1701D02*
X2249Y1701D01*
X2239Y1700D02*
X2248Y1700D01*
X2239Y1699D02*
X2248Y1699D01*
X2239Y1698D02*
X2247Y1698D01*
X2239Y1697D02*
X2248Y1697D01*
X2239Y1696D02*
X2259Y1696D01*
X2239Y1695D02*
X2287Y1695D01*
X2239Y1694D02*
X2292Y1694D01*
X2240Y1693D02*
X2293Y1693D01*
X2240Y1692D02*
X2293Y1692D01*
X2241Y1691D02*
X2294Y1691D01*
X2242Y1690D02*
X2294Y1690D01*
X2243Y1689D02*
X2294Y1689D01*
X2244Y1688D02*
X2294Y1688D01*
X2246Y1687D02*
X2293Y1687D01*
X2259Y1686D02*
X2292Y1686D01*
X2286Y1685D02*
X2290Y1685D01*
X2252Y1663D02*
X2279Y1663D01*
X2246Y1662D02*
X2284Y1662D01*
X2244Y1661D02*
X2286Y1661D01*
X2242Y1660D02*
X2288Y1660D01*
X2241Y1659D02*
X2289Y1659D01*
X2239Y1658D02*
X2290Y1658D01*
X2238Y1657D02*
X2291Y1657D01*
X2237Y1656D02*
X2292Y1656D01*
X2235Y1655D02*
X2292Y1655D01*
X2234Y1654D02*
X2293Y1654D01*
X2233Y1653D02*
X2293Y1653D01*
X2232Y1652D02*
X2248Y1652D01*
X2283Y1652D02*
X2293Y1652D01*
X2230Y1651D02*
X2246Y1651D01*
X2284Y1651D02*
X2294Y1651D01*
X2229Y1650D02*
X2244Y1650D01*
X2284Y1650D02*
X2294Y1650D01*
X2228Y1649D02*
X2243Y1649D01*
X2285Y1649D02*
X2294Y1649D01*
X2226Y1648D02*
X2242Y1648D01*
X2285Y1648D02*
X2294Y1648D01*
X2225Y1647D02*
X2241Y1647D01*
X2285Y1647D02*
X2294Y1647D01*
X2224Y1646D02*
X2239Y1646D01*
X2285Y1646D02*
X2294Y1646D01*
X2223Y1645D02*
X2238Y1645D01*
X2285Y1645D02*
X2294Y1645D01*
X2222Y1644D02*
X2237Y1644D01*
X2285Y1644D02*
X2294Y1644D01*
X2220Y1643D02*
X2235Y1643D01*
X2285Y1643D02*
X2294Y1643D01*
X2220Y1642D02*
X2234Y1642D01*
X2285Y1642D02*
X2294Y1642D01*
X2219Y1641D02*
X2233Y1641D01*
X2285Y1641D02*
X2294Y1641D01*
X2218Y1640D02*
X2232Y1640D01*
X2285Y1640D02*
X2294Y1640D01*
X2218Y1639D02*
X2230Y1639D01*
X2285Y1639D02*
X2294Y1639D01*
X2218Y1638D02*
X2229Y1638D01*
X2263Y1638D02*
X2265Y1638D01*
X2285Y1638D02*
X2294Y1638D01*
X2217Y1637D02*
X2228Y1637D01*
X2261Y1637D02*
X2267Y1637D01*
X2285Y1637D02*
X2294Y1637D01*
X2217Y1636D02*
X2227Y1636D01*
X2260Y1636D02*
X2268Y1636D01*
X2285Y1636D02*
X2294Y1636D01*
X2217Y1635D02*
X2226Y1635D01*
X2260Y1635D02*
X2268Y1635D01*
X2285Y1635D02*
X2294Y1635D01*
X2217Y1634D02*
X2226Y1634D01*
X2260Y1634D02*
X2268Y1634D01*
X2285Y1634D02*
X2294Y1634D01*
X2217Y1633D02*
X2226Y1633D01*
X2259Y1633D02*
X2268Y1633D01*
X2285Y1633D02*
X2294Y1633D01*
X2217Y1632D02*
X2226Y1632D01*
X2259Y1632D02*
X2269Y1632D01*
X2285Y1632D02*
X2294Y1632D01*
X2217Y1631D02*
X2226Y1631D01*
X2259Y1631D02*
X2269Y1631D01*
X2285Y1631D02*
X2294Y1631D01*
X2217Y1630D02*
X2226Y1630D01*
X2259Y1630D02*
X2269Y1630D01*
X2285Y1630D02*
X2294Y1630D01*
X2217Y1629D02*
X2226Y1629D01*
X2259Y1629D02*
X2269Y1629D01*
X2285Y1629D02*
X2294Y1629D01*
X2217Y1628D02*
X2226Y1628D01*
X2259Y1628D02*
X2269Y1628D01*
X2285Y1628D02*
X2294Y1628D01*
X2217Y1627D02*
X2226Y1627D01*
X2259Y1627D02*
X2269Y1627D01*
X2285Y1627D02*
X2294Y1627D01*
X2217Y1626D02*
X2226Y1626D01*
X2259Y1626D02*
X2269Y1626D01*
X2284Y1626D02*
X2294Y1626D01*
X2217Y1625D02*
X2226Y1625D01*
X2259Y1625D02*
X2269Y1625D01*
X2283Y1625D02*
X2294Y1625D01*
X2217Y1624D02*
X2226Y1624D01*
X2259Y1624D02*
X2269Y1624D01*
X2282Y1624D02*
X2293Y1624D01*
X2217Y1623D02*
X2226Y1623D01*
X2259Y1623D02*
X2293Y1623D01*
X2217Y1622D02*
X2226Y1622D01*
X2259Y1622D02*
X2293Y1622D01*
X2217Y1621D02*
X2226Y1621D01*
X2259Y1621D02*
X2292Y1621D01*
X2217Y1620D02*
X2226Y1620D01*
X2259Y1620D02*
X2291Y1620D01*
X2217Y1619D02*
X2226Y1619D01*
X2259Y1619D02*
X2291Y1619D01*
X2217Y1618D02*
X2226Y1618D01*
X2259Y1618D02*
X2290Y1618D01*
X2217Y1617D02*
X2226Y1617D01*
X2259Y1617D02*
X2289Y1617D01*
X2218Y1616D02*
X2225Y1616D01*
X2259Y1616D02*
X2287Y1616D01*
X2218Y1615D02*
X2225Y1615D01*
X2259Y1615D02*
X2286Y1615D01*
X2220Y1614D02*
X2224Y1614D01*
X2259Y1614D02*
X2283Y1614D01*
X2241Y1590D02*
X2266Y1590D01*
X2240Y1589D02*
X2283Y1589D01*
X2239Y1588D02*
X2286Y1588D01*
X2238Y1587D02*
X2287Y1587D01*
X2238Y1586D02*
X2289Y1586D01*
X2238Y1585D02*
X2290Y1585D01*
X2239Y1584D02*
X2291Y1584D01*
X2239Y1583D02*
X2291Y1583D01*
X2240Y1582D02*
X2292Y1582D01*
X2242Y1581D02*
X2292Y1581D01*
X2265Y1580D02*
X2293Y1580D01*
X2282Y1579D02*
X2293Y1579D01*
X2283Y1578D02*
X2294Y1578D01*
X2284Y1577D02*
X2294Y1577D01*
X2285Y1576D02*
X2294Y1576D01*
X2285Y1575D02*
X2294Y1575D01*
X2285Y1574D02*
X2294Y1574D01*
X2285Y1573D02*
X2294Y1573D01*
X2285Y1572D02*
X2294Y1572D01*
X2285Y1571D02*
X2294Y1571D01*
X2285Y1570D02*
X2294Y1570D01*
X2285Y1569D02*
X2294Y1569D01*
X2285Y1568D02*
X2294Y1568D01*
X2285Y1567D02*
X2294Y1567D01*
X2284Y1566D02*
X2294Y1566D01*
X2283Y1565D02*
X2293Y1565D01*
X2283Y1564D02*
X2293Y1564D01*
X2282Y1563D02*
X2293Y1563D01*
X2281Y1562D02*
X2292Y1562D01*
X2281Y1561D02*
X2292Y1561D01*
X2280Y1560D02*
X2291Y1560D01*
X2280Y1559D02*
X2290Y1559D01*
X2279Y1558D02*
X2290Y1558D01*
X2278Y1557D02*
X2289Y1557D01*
X2278Y1556D02*
X2289Y1556D01*
X2277Y1555D02*
X2288Y1555D01*
X2276Y1554D02*
X2287Y1554D01*
X2276Y1553D02*
X2287Y1553D01*
X2275Y1552D02*
X2286Y1552D01*
X2243Y1551D02*
X2289Y1551D01*
X2240Y1550D02*
X2292Y1550D01*
X2239Y1549D02*
X2293Y1549D01*
X2239Y1548D02*
X2294Y1548D01*
X2238Y1547D02*
X2294Y1547D01*
X2238Y1546D02*
X2294Y1546D01*
X2238Y1545D02*
X2294Y1545D01*
X2239Y1544D02*
X2294Y1544D01*
X2239Y1543D02*
X2293Y1543D01*
X2240Y1542D02*
X2292Y1542D01*
X2243Y1541D02*
X2289Y1541D01*
X2271Y1518D02*
X2283Y1518D01*
X2268Y1517D02*
X2285Y1517D01*
X2266Y1516D02*
X2287Y1516D01*
X2265Y1515D02*
X2289Y1515D01*
X2264Y1514D02*
X2290Y1514D01*
X2263Y1513D02*
X2291Y1513D01*
X2262Y1512D02*
X2291Y1512D01*
X2261Y1511D02*
X2292Y1511D01*
X2261Y1510D02*
X2292Y1510D01*
X2260Y1509D02*
X2293Y1509D01*
X2241Y1508D02*
X2245Y1508D01*
X2260Y1508D02*
X2272Y1508D01*
X2282Y1508D02*
X2293Y1508D01*
X2240Y1507D02*
X2246Y1507D01*
X2260Y1507D02*
X2270Y1507D01*
X2283Y1507D02*
X2294Y1507D01*
X2239Y1506D02*
X2247Y1506D01*
X2260Y1506D02*
X2269Y1506D01*
X2284Y1506D02*
X2294Y1506D01*
X2238Y1505D02*
X2247Y1505D01*
X2260Y1505D02*
X2269Y1505D01*
X2285Y1505D02*
X2294Y1505D01*
X2238Y1504D02*
X2247Y1504D01*
X2259Y1504D02*
X2269Y1504D01*
X2285Y1504D02*
X2294Y1504D01*
X2238Y1503D02*
X2247Y1503D01*
X2259Y1503D02*
X2269Y1503D01*
X2285Y1503D02*
X2294Y1503D01*
X2238Y1502D02*
X2247Y1502D01*
X2259Y1502D02*
X2269Y1502D01*
X2285Y1502D02*
X2294Y1502D01*
X2238Y1501D02*
X2247Y1501D01*
X2259Y1501D02*
X2269Y1501D01*
X2285Y1501D02*
X2294Y1501D01*
X2238Y1500D02*
X2247Y1500D01*
X2259Y1500D02*
X2269Y1500D01*
X2285Y1500D02*
X2294Y1500D01*
X2238Y1499D02*
X2247Y1499D01*
X2259Y1499D02*
X2269Y1499D01*
X2285Y1499D02*
X2294Y1499D01*
X2238Y1498D02*
X2247Y1498D01*
X2259Y1498D02*
X2269Y1498D01*
X2285Y1498D02*
X2294Y1498D01*
X2238Y1497D02*
X2247Y1497D01*
X2259Y1497D02*
X2269Y1497D01*
X2285Y1497D02*
X2294Y1497D01*
X2238Y1496D02*
X2247Y1496D01*
X2259Y1496D02*
X2269Y1496D01*
X2285Y1496D02*
X2294Y1496D01*
X2238Y1495D02*
X2247Y1495D01*
X2259Y1495D02*
X2269Y1495D01*
X2285Y1495D02*
X2294Y1495D01*
X2238Y1494D02*
X2247Y1494D01*
X2259Y1494D02*
X2269Y1494D01*
X2285Y1494D02*
X2294Y1494D01*
X2238Y1493D02*
X2247Y1493D01*
X2259Y1493D02*
X2269Y1493D01*
X2285Y1493D02*
X2294Y1493D01*
X2238Y1492D02*
X2247Y1492D01*
X2259Y1492D02*
X2269Y1492D01*
X2285Y1492D02*
X2294Y1492D01*
X2238Y1491D02*
X2247Y1491D01*
X2259Y1491D02*
X2269Y1491D01*
X2285Y1491D02*
X2294Y1491D01*
X2238Y1490D02*
X2247Y1490D01*
X2259Y1490D02*
X2269Y1490D01*
X2285Y1490D02*
X2294Y1490D01*
X2238Y1489D02*
X2247Y1489D01*
X2259Y1489D02*
X2269Y1489D01*
X2284Y1489D02*
X2294Y1489D01*
X2238Y1488D02*
X2247Y1488D01*
X2259Y1488D02*
X2269Y1488D01*
X2284Y1488D02*
X2294Y1488D01*
X2238Y1487D02*
X2247Y1487D01*
X2259Y1487D02*
X2269Y1487D01*
X2283Y1487D02*
X2294Y1487D01*
X2238Y1486D02*
X2247Y1486D01*
X2259Y1486D02*
X2269Y1486D01*
X2283Y1486D02*
X2293Y1486D01*
X2238Y1485D02*
X2247Y1485D01*
X2259Y1485D02*
X2269Y1485D01*
X2282Y1485D02*
X2293Y1485D01*
X2238Y1484D02*
X2247Y1484D01*
X2259Y1484D02*
X2269Y1484D01*
X2281Y1484D02*
X2292Y1484D01*
X2238Y1483D02*
X2248Y1483D01*
X2259Y1483D02*
X2269Y1483D01*
X2281Y1483D02*
X2291Y1483D01*
X2238Y1482D02*
X2248Y1482D01*
X2260Y1482D02*
X2269Y1482D01*
X2280Y1482D02*
X2291Y1482D01*
X2239Y1481D02*
X2249Y1481D01*
X2260Y1481D02*
X2270Y1481D01*
X2280Y1481D02*
X2290Y1481D01*
X2239Y1480D02*
X2254Y1480D01*
X2260Y1480D02*
X2271Y1480D01*
X2279Y1480D02*
X2290Y1480D01*
X2239Y1479D02*
X2289Y1479D01*
X2240Y1478D02*
X2291Y1478D01*
X2240Y1477D02*
X2293Y1477D01*
X2241Y1476D02*
X2293Y1476D01*
X2242Y1475D02*
X2294Y1475D01*
X2243Y1474D02*
X2294Y1474D01*
X2244Y1473D02*
X2294Y1473D01*
X2246Y1472D02*
X2294Y1472D01*
X2248Y1471D02*
X2293Y1471D01*
X2252Y1470D02*
X2292Y1470D01*
X2280Y1469D02*
X2291Y1469D01*
X2242Y1446D02*
X2290Y1446D01*
X2240Y1445D02*
X2292Y1445D01*
X2239Y1444D02*
X2293Y1444D01*
X2239Y1443D02*
X2294Y1443D01*
X2238Y1442D02*
X2294Y1442D01*
X2238Y1441D02*
X2294Y1441D01*
X2238Y1440D02*
X2294Y1440D01*
X2239Y1439D02*
X2293Y1439D01*
X2239Y1438D02*
X2293Y1438D01*
X2241Y1437D02*
X2292Y1437D01*
X2249Y1436D02*
X2262Y1436D01*
X2248Y1435D02*
X2261Y1435D01*
X2247Y1434D02*
X2260Y1434D01*
X2247Y1433D02*
X2259Y1433D01*
X2246Y1432D02*
X2258Y1432D01*
X2245Y1431D02*
X2257Y1431D01*
X2244Y1430D02*
X2256Y1430D01*
X2243Y1429D02*
X2255Y1429D01*
X2242Y1428D02*
X2255Y1428D01*
X2241Y1427D02*
X2254Y1427D01*
X2241Y1426D02*
X2253Y1426D01*
X2240Y1425D02*
X2252Y1425D01*
X2239Y1424D02*
X2251Y1424D01*
X2238Y1423D02*
X2250Y1423D01*
X2238Y1422D02*
X2249Y1422D01*
X2238Y1421D02*
X2249Y1421D01*
X2238Y1420D02*
X2248Y1420D01*
X2238Y1419D02*
X2247Y1419D01*
X2238Y1418D02*
X2247Y1418D01*
X2238Y1417D02*
X2247Y1417D01*
X2238Y1416D02*
X2247Y1416D01*
X2238Y1415D02*
X2247Y1415D01*
X2238Y1414D02*
X2247Y1414D01*
X2238Y1413D02*
X2247Y1413D01*
X2238Y1412D02*
X2247Y1412D01*
X2238Y1411D02*
X2247Y1411D01*
X2238Y1410D02*
X2248Y1410D01*
X2238Y1409D02*
X2248Y1409D01*
X2239Y1408D02*
X2249Y1408D01*
X2239Y1407D02*
X2250Y1407D01*
X2239Y1406D02*
X2257Y1406D01*
X2240Y1405D02*
X2258Y1405D01*
X2240Y1404D02*
X2259Y1404D01*
X2241Y1403D02*
X2260Y1403D01*
X2242Y1402D02*
X2260Y1402D01*
X2243Y1401D02*
X2260Y1401D01*
X2244Y1400D02*
X2260Y1400D01*
X2245Y1399D02*
X2259Y1399D01*
X2247Y1398D02*
X2259Y1398D01*
X2249Y1397D02*
X2257Y1397D01*
X2251Y1373D02*
X2281Y1373D01*
X2249Y1372D02*
X2283Y1372D01*
X2248Y1371D02*
X2285Y1371D01*
X2246Y1370D02*
X2286Y1370D01*
X2245Y1369D02*
X2287Y1369D01*
X2244Y1368D02*
X2288Y1368D01*
X2244Y1367D02*
X2289Y1367D01*
X2243Y1366D02*
X2290Y1366D01*
X2242Y1365D02*
X2291Y1365D01*
X2241Y1364D02*
X2291Y1364D01*
X2240Y1363D02*
X2253Y1363D01*
X2279Y1363D02*
X2292Y1363D01*
X2240Y1362D02*
X2252Y1362D01*
X2281Y1362D02*
X2292Y1362D01*
X2239Y1361D02*
X2251Y1361D01*
X2282Y1361D02*
X2293Y1361D01*
X2239Y1360D02*
X2250Y1360D01*
X2283Y1360D02*
X2293Y1360D01*
X2239Y1359D02*
X2249Y1359D01*
X2283Y1359D02*
X2294Y1359D01*
X2238Y1358D02*
X2248Y1358D01*
X2284Y1358D02*
X2294Y1358D01*
X2238Y1357D02*
X2248Y1357D01*
X2285Y1357D02*
X2294Y1357D01*
X2238Y1356D02*
X2247Y1356D01*
X2285Y1356D02*
X2294Y1356D01*
X2238Y1355D02*
X2247Y1355D01*
X2285Y1355D02*
X2294Y1355D01*
X2238Y1354D02*
X2247Y1354D01*
X2285Y1354D02*
X2294Y1354D01*
X2238Y1353D02*
X2247Y1353D01*
X2285Y1353D02*
X2294Y1353D01*
X2238Y1352D02*
X2247Y1352D01*
X2285Y1352D02*
X2294Y1352D01*
X2238Y1351D02*
X2247Y1351D01*
X2285Y1351D02*
X2294Y1351D01*
X2238Y1350D02*
X2247Y1350D01*
X2285Y1350D02*
X2294Y1350D01*
X2238Y1349D02*
X2247Y1349D01*
X2285Y1349D02*
X2294Y1349D01*
X2238Y1348D02*
X2247Y1348D01*
X2285Y1348D02*
X2294Y1348D01*
X2238Y1347D02*
X2247Y1347D01*
X2285Y1347D02*
X2294Y1347D01*
X2238Y1346D02*
X2248Y1346D01*
X2285Y1346D02*
X2294Y1346D01*
X2239Y1345D02*
X2248Y1345D01*
X2284Y1345D02*
X2294Y1345D01*
X2239Y1344D02*
X2249Y1344D01*
X2283Y1344D02*
X2293Y1344D01*
X2239Y1343D02*
X2250Y1343D01*
X2282Y1343D02*
X2293Y1343D01*
X2239Y1342D02*
X2251Y1342D01*
X2281Y1342D02*
X2293Y1342D01*
X2240Y1341D02*
X2252Y1341D01*
X2281Y1341D02*
X2292Y1341D01*
X2240Y1340D02*
X2252Y1340D01*
X2280Y1340D02*
X2292Y1340D01*
X2241Y1339D02*
X2253Y1339D01*
X2279Y1339D02*
X2291Y1339D01*
X2242Y1338D02*
X2254Y1338D01*
X2278Y1338D02*
X2291Y1338D01*
X2243Y1337D02*
X2255Y1337D01*
X2277Y1337D02*
X2290Y1337D01*
X2243Y1336D02*
X2256Y1336D01*
X2276Y1336D02*
X2289Y1336D01*
X2244Y1335D02*
X2257Y1335D01*
X2275Y1335D02*
X2288Y1335D01*
X2221Y1334D02*
X2290Y1334D01*
X2219Y1333D02*
X2292Y1333D01*
X2218Y1332D02*
X2293Y1332D01*
X2217Y1331D02*
X2294Y1331D01*
X2217Y1330D02*
X2294Y1330D01*
X2217Y1329D02*
X2294Y1329D01*
X2217Y1328D02*
X2294Y1328D01*
X2218Y1327D02*
X2293Y1327D01*
X2218Y1326D02*
X2293Y1326D01*
X2219Y1325D02*
X2292Y1325D01*
X2242Y1229D02*
X2253Y1229D01*
X2240Y1228D02*
X2255Y1228D01*
X2239Y1227D02*
X2257Y1227D01*
X2239Y1226D02*
X2259Y1226D01*
X2238Y1225D02*
X2262Y1225D01*
X2238Y1224D02*
X2264Y1224D01*
X2238Y1223D02*
X2266Y1223D01*
X2239Y1222D02*
X2269Y1222D01*
X2240Y1221D02*
X2271Y1221D01*
X2241Y1220D02*
X2273Y1220D01*
X2251Y1219D02*
X2275Y1219D01*
X2254Y1218D02*
X2278Y1218D01*
X2256Y1217D02*
X2280Y1217D01*
X2258Y1216D02*
X2282Y1216D01*
X2260Y1215D02*
X2285Y1215D01*
X2263Y1214D02*
X2287Y1214D01*
X2265Y1213D02*
X2289Y1213D01*
X2267Y1212D02*
X2291Y1212D01*
X2270Y1211D02*
X2293Y1211D01*
X2272Y1210D02*
X2293Y1210D01*
X2274Y1209D02*
X2294Y1209D01*
X2277Y1208D02*
X2294Y1208D01*
X2279Y1207D02*
X2294Y1207D01*
X2281Y1206D02*
X2294Y1206D01*
X2283Y1205D02*
X2294Y1205D01*
X2283Y1204D02*
X2294Y1204D01*
X2281Y1203D02*
X2294Y1203D01*
X2279Y1202D02*
X2294Y1202D01*
X2277Y1201D02*
X2294Y1201D01*
X2274Y1200D02*
X2294Y1200D01*
X2272Y1199D02*
X2293Y1199D01*
X2270Y1198D02*
X2293Y1198D01*
X2267Y1197D02*
X2291Y1197D01*
X2265Y1196D02*
X2289Y1196D01*
X2263Y1195D02*
X2287Y1195D01*
X2261Y1194D02*
X2285Y1194D01*
X2258Y1193D02*
X2282Y1193D01*
X2256Y1192D02*
X2280Y1192D01*
X2254Y1191D02*
X2278Y1191D01*
X2252Y1190D02*
X2276Y1190D01*
X2241Y1189D02*
X2273Y1189D01*
X2240Y1188D02*
X2271Y1188D01*
X2239Y1187D02*
X2269Y1187D01*
X2238Y1186D02*
X2266Y1186D01*
X2238Y1185D02*
X2264Y1185D01*
X2238Y1184D02*
X2262Y1184D01*
X2239Y1183D02*
X2260Y1183D01*
X2239Y1182D02*
X2257Y1182D01*
X2240Y1181D02*
X2255Y1181D01*
X2241Y1180D02*
X2253Y1180D01*
X2220Y1154D02*
X2269Y1154D01*
X2218Y1153D02*
X2269Y1153D01*
X2218Y1152D02*
X2269Y1152D01*
X2217Y1151D02*
X2269Y1151D01*
X2217Y1150D02*
X2269Y1150D01*
X2217Y1149D02*
X2269Y1149D01*
X2217Y1148D02*
X2269Y1148D01*
X2218Y1147D02*
X2269Y1147D01*
X2219Y1146D02*
X2269Y1146D01*
X2220Y1145D02*
X2269Y1145D01*
X2259Y1144D02*
X2269Y1144D01*
X2259Y1143D02*
X2269Y1143D01*
X2259Y1142D02*
X2269Y1142D01*
X2259Y1141D02*
X2269Y1141D01*
X2259Y1140D02*
X2269Y1140D01*
X2259Y1139D02*
X2269Y1139D01*
X2259Y1138D02*
X2269Y1138D01*
X2259Y1137D02*
X2269Y1137D01*
X2259Y1136D02*
X2269Y1136D01*
X2259Y1135D02*
X2269Y1135D01*
X2259Y1134D02*
X2269Y1134D01*
X2259Y1133D02*
X2269Y1133D01*
X2259Y1132D02*
X2269Y1132D01*
X2259Y1131D02*
X2269Y1131D01*
X2259Y1130D02*
X2269Y1130D01*
X2259Y1129D02*
X2269Y1129D01*
X2259Y1128D02*
X2269Y1128D01*
X2259Y1127D02*
X2269Y1127D01*
X2259Y1126D02*
X2269Y1126D01*
X2259Y1125D02*
X2269Y1125D01*
X2228Y1124D02*
X2292Y1124D01*
X2227Y1123D02*
X2293Y1123D01*
X2226Y1122D02*
X2293Y1122D01*
X2226Y1121D02*
X2294Y1121D01*
X2226Y1120D02*
X2294Y1120D01*
X2226Y1119D02*
X2294Y1119D01*
X2226Y1118D02*
X2294Y1118D01*
X2226Y1117D02*
X2293Y1117D01*
X2227Y1116D02*
X2292Y1116D01*
X2229Y1115D02*
X2290Y1115D01*
X2260Y1114D02*
X2268Y1114D01*
X2260Y1113D02*
X2268Y1113D01*
X2260Y1112D02*
X2268Y1112D01*
X2261Y1111D02*
X2267Y1111D01*
X2263Y1110D02*
X2265Y1110D01*
X2220Y1012D02*
X2223Y1012D01*
X2258Y1012D02*
X2294Y1012D01*
X2219Y1011D02*
X2225Y1011D01*
X2256Y1011D02*
X2294Y1011D01*
X2218Y1010D02*
X2225Y1010D01*
X2255Y1010D02*
X2294Y1010D01*
X2217Y1009D02*
X2226Y1009D01*
X2254Y1009D02*
X2294Y1009D01*
X2217Y1008D02*
X2226Y1008D01*
X2253Y1008D02*
X2294Y1008D01*
X2217Y1007D02*
X2226Y1007D01*
X2252Y1007D02*
X2294Y1007D01*
X2217Y1006D02*
X2226Y1006D01*
X2252Y1006D02*
X2294Y1006D01*
X2217Y1005D02*
X2226Y1005D01*
X2251Y1005D02*
X2294Y1005D01*
X2217Y1004D02*
X2226Y1004D01*
X2251Y1004D02*
X2294Y1004D01*
X2217Y1003D02*
X2226Y1003D01*
X2251Y1003D02*
X2294Y1003D01*
X2217Y1002D02*
X2226Y1002D01*
X2251Y1002D02*
X2260Y1002D01*
X2285Y1002D02*
X2294Y1002D01*
X2217Y1001D02*
X2226Y1001D01*
X2251Y1001D02*
X2260Y1001D01*
X2285Y1001D02*
X2294Y1001D01*
X2217Y1000D02*
X2226Y1000D01*
X2251Y1000D02*
X2260Y1000D01*
X2285Y1000D02*
X2294Y1000D01*
X2217Y999D02*
X2226Y999D01*
X2251Y999D02*
X2260Y999D01*
X2285Y999D02*
X2294Y999D01*
X2217Y998D02*
X2226Y998D01*
X2251Y998D02*
X2260Y998D01*
X2285Y998D02*
X2294Y998D01*
X2217Y997D02*
X2226Y997D01*
X2251Y997D02*
X2260Y997D01*
X2285Y997D02*
X2294Y997D01*
X2217Y996D02*
X2226Y996D01*
X2251Y996D02*
X2260Y996D01*
X2285Y996D02*
X2294Y996D01*
X2217Y995D02*
X2226Y995D01*
X2251Y995D02*
X2260Y995D01*
X2285Y995D02*
X2294Y995D01*
X2217Y994D02*
X2226Y994D01*
X2251Y994D02*
X2260Y994D01*
X2285Y994D02*
X2294Y994D01*
X2217Y993D02*
X2226Y993D01*
X2251Y993D02*
X2260Y993D01*
X2285Y993D02*
X2294Y993D01*
X2217Y992D02*
X2226Y992D01*
X2251Y992D02*
X2260Y992D01*
X2285Y992D02*
X2294Y992D01*
X2217Y991D02*
X2226Y991D01*
X2251Y991D02*
X2260Y991D01*
X2285Y991D02*
X2294Y991D01*
X2217Y990D02*
X2226Y990D01*
X2251Y990D02*
X2260Y990D01*
X2285Y990D02*
X2294Y990D01*
X2217Y989D02*
X2226Y989D01*
X2251Y989D02*
X2260Y989D01*
X2285Y989D02*
X2294Y989D01*
X2217Y988D02*
X2226Y988D01*
X2251Y988D02*
X2260Y988D01*
X2285Y988D02*
X2294Y988D01*
X2217Y987D02*
X2226Y987D01*
X2251Y987D02*
X2260Y987D01*
X2285Y987D02*
X2294Y987D01*
X2217Y986D02*
X2226Y986D01*
X2251Y986D02*
X2260Y986D01*
X2285Y986D02*
X2294Y986D01*
X2217Y985D02*
X2226Y985D01*
X2251Y985D02*
X2260Y985D01*
X2285Y985D02*
X2294Y985D01*
X2217Y984D02*
X2226Y984D01*
X2251Y984D02*
X2260Y984D01*
X2285Y984D02*
X2294Y984D01*
X2217Y983D02*
X2226Y983D01*
X2251Y983D02*
X2260Y983D01*
X2285Y983D02*
X2294Y983D01*
X2217Y982D02*
X2226Y982D01*
X2251Y982D02*
X2260Y982D01*
X2285Y982D02*
X2294Y982D01*
X2217Y981D02*
X2226Y981D01*
X2251Y981D02*
X2260Y981D01*
X2285Y981D02*
X2294Y981D01*
X2217Y980D02*
X2226Y980D01*
X2251Y980D02*
X2260Y980D01*
X2285Y980D02*
X2294Y980D01*
X2217Y979D02*
X2226Y979D01*
X2251Y979D02*
X2260Y979D01*
X2285Y979D02*
X2294Y979D01*
X2217Y978D02*
X2226Y978D01*
X2251Y978D02*
X2260Y978D01*
X2285Y978D02*
X2294Y978D01*
X2217Y977D02*
X2226Y977D01*
X2251Y977D02*
X2260Y977D01*
X2285Y977D02*
X2294Y977D01*
X2217Y976D02*
X2226Y976D01*
X2251Y976D02*
X2260Y976D01*
X2285Y976D02*
X2294Y976D01*
X2217Y975D02*
X2226Y975D01*
X2251Y975D02*
X2260Y975D01*
X2285Y975D02*
X2294Y975D01*
X2217Y974D02*
X2226Y974D01*
X2251Y974D02*
X2260Y974D01*
X2285Y974D02*
X2294Y974D01*
X2217Y973D02*
X2226Y973D01*
X2251Y973D02*
X2260Y973D01*
X2285Y973D02*
X2294Y973D01*
X2217Y972D02*
X2260Y972D01*
X2285Y972D02*
X2294Y972D01*
X2217Y971D02*
X2260Y971D01*
X2285Y971D02*
X2294Y971D01*
X2217Y970D02*
X2260Y970D01*
X2285Y970D02*
X2294Y970D01*
X2218Y969D02*
X2259Y969D01*
X2285Y969D02*
X2294Y969D01*
X2218Y968D02*
X2259Y968D01*
X2285Y968D02*
X2294Y968D01*
X2219Y967D02*
X2258Y967D01*
X2285Y967D02*
X2294Y967D01*
X2220Y966D02*
X2257Y966D01*
X2285Y966D02*
X2294Y966D01*
X2221Y965D02*
X2256Y965D01*
X2286Y965D02*
X2293Y965D01*
X2222Y964D02*
X2255Y964D01*
X2287Y964D02*
X2292Y964D01*
X2225Y963D02*
X2252Y963D01*
X2288Y963D02*
X2291Y963D01*
X2225Y940D02*
X2286Y940D01*
X2223Y939D02*
X2289Y939D01*
X2221Y938D02*
X2290Y938D01*
X2220Y937D02*
X2291Y937D01*
X2219Y936D02*
X2292Y936D01*
X2218Y935D02*
X2293Y935D01*
X2218Y934D02*
X2293Y934D01*
X2217Y933D02*
X2294Y933D01*
X2217Y932D02*
X2294Y932D01*
X2217Y931D02*
X2294Y931D01*
X2217Y930D02*
X2226Y930D01*
X2285Y930D02*
X2294Y930D01*
X2217Y929D02*
X2226Y929D01*
X2285Y929D02*
X2294Y929D01*
X2217Y928D02*
X2226Y928D01*
X2285Y928D02*
X2294Y928D01*
X2217Y927D02*
X2226Y927D01*
X2285Y927D02*
X2294Y927D01*
X2217Y926D02*
X2226Y926D01*
X2285Y926D02*
X2294Y926D01*
X2217Y925D02*
X2226Y925D01*
X2285Y925D02*
X2294Y925D01*
X2217Y924D02*
X2226Y924D01*
X2285Y924D02*
X2294Y924D01*
X2217Y923D02*
X2226Y923D01*
X2285Y923D02*
X2294Y923D01*
X2217Y922D02*
X2226Y922D01*
X2285Y922D02*
X2294Y922D01*
X2217Y921D02*
X2226Y921D01*
X2285Y921D02*
X2294Y921D01*
X2217Y920D02*
X2226Y920D01*
X2285Y920D02*
X2294Y920D01*
X2217Y919D02*
X2226Y919D01*
X2285Y919D02*
X2294Y919D01*
X2217Y918D02*
X2226Y918D01*
X2285Y918D02*
X2294Y918D01*
X2217Y917D02*
X2226Y917D01*
X2285Y917D02*
X2294Y917D01*
X2217Y916D02*
X2226Y916D01*
X2285Y916D02*
X2294Y916D01*
X2217Y915D02*
X2226Y915D01*
X2285Y915D02*
X2294Y915D01*
X2217Y914D02*
X2226Y914D01*
X2285Y914D02*
X2294Y914D01*
X2217Y913D02*
X2226Y913D01*
X2285Y913D02*
X2294Y913D01*
X2217Y912D02*
X2226Y912D01*
X2285Y912D02*
X2294Y912D01*
X2217Y911D02*
X2226Y911D01*
X2285Y911D02*
X2294Y911D01*
X2217Y910D02*
X2226Y910D01*
X2285Y910D02*
X2294Y910D01*
X2217Y909D02*
X2226Y909D01*
X2285Y909D02*
X2294Y909D01*
X2217Y908D02*
X2226Y908D01*
X2285Y908D02*
X2294Y908D01*
X2217Y907D02*
X2226Y907D01*
X2285Y907D02*
X2294Y907D01*
X2217Y906D02*
X2226Y906D01*
X2285Y906D02*
X2294Y906D01*
X2217Y905D02*
X2226Y905D01*
X2285Y905D02*
X2294Y905D01*
X2217Y904D02*
X2226Y904D01*
X2285Y904D02*
X2294Y904D01*
X2217Y903D02*
X2226Y903D01*
X2285Y903D02*
X2294Y903D01*
X2217Y902D02*
X2226Y902D01*
X2285Y902D02*
X2294Y902D01*
X2217Y901D02*
X2226Y901D01*
X2285Y901D02*
X2294Y901D01*
X2217Y900D02*
X2294Y900D01*
X2217Y899D02*
X2294Y899D01*
X2217Y898D02*
X2294Y898D01*
X2218Y897D02*
X2293Y897D01*
X2218Y896D02*
X2293Y896D01*
X2219Y895D02*
X2292Y895D01*
X2220Y894D02*
X2291Y894D01*
X2220Y893D02*
X2291Y893D01*
X2222Y892D02*
X2289Y892D01*
X2224Y891D02*
X2287Y891D01*
X2219Y867D02*
X2224Y867D01*
X2257Y867D02*
X2294Y867D01*
X2218Y866D02*
X2225Y866D01*
X2255Y866D02*
X2294Y866D01*
X2218Y865D02*
X2226Y865D01*
X2254Y865D02*
X2294Y865D01*
X2217Y864D02*
X2226Y864D01*
X2253Y864D02*
X2294Y864D01*
X2217Y863D02*
X2226Y863D01*
X2252Y863D02*
X2294Y863D01*
X2217Y862D02*
X2226Y862D01*
X2252Y862D02*
X2294Y862D01*
X2217Y861D02*
X2226Y861D01*
X2252Y861D02*
X2294Y861D01*
X2217Y860D02*
X2226Y860D01*
X2251Y860D02*
X2294Y860D01*
X2217Y859D02*
X2226Y859D01*
X2251Y859D02*
X2294Y859D01*
X2217Y858D02*
X2226Y858D01*
X2251Y858D02*
X2294Y858D01*
X2217Y857D02*
X2226Y857D01*
X2251Y857D02*
X2260Y857D01*
X2285Y857D02*
X2294Y857D01*
X2217Y856D02*
X2226Y856D01*
X2251Y856D02*
X2260Y856D01*
X2285Y856D02*
X2294Y856D01*
X2217Y855D02*
X2226Y855D01*
X2251Y855D02*
X2260Y855D01*
X2285Y855D02*
X2294Y855D01*
X2217Y854D02*
X2226Y854D01*
X2251Y854D02*
X2260Y854D01*
X2285Y854D02*
X2294Y854D01*
X2217Y853D02*
X2226Y853D01*
X2251Y853D02*
X2260Y853D01*
X2285Y853D02*
X2294Y853D01*
X2217Y852D02*
X2226Y852D01*
X2251Y852D02*
X2260Y852D01*
X2285Y852D02*
X2294Y852D01*
X2217Y851D02*
X2226Y851D01*
X2251Y851D02*
X2260Y851D01*
X2285Y851D02*
X2294Y851D01*
X2217Y850D02*
X2226Y850D01*
X2251Y850D02*
X2260Y850D01*
X2285Y850D02*
X2294Y850D01*
X2217Y849D02*
X2226Y849D01*
X2251Y849D02*
X2260Y849D01*
X2285Y849D02*
X2294Y849D01*
X2217Y848D02*
X2226Y848D01*
X2251Y848D02*
X2260Y848D01*
X2285Y848D02*
X2294Y848D01*
X2217Y847D02*
X2226Y847D01*
X2251Y847D02*
X2260Y847D01*
X2285Y847D02*
X2294Y847D01*
X2217Y846D02*
X2226Y846D01*
X2251Y846D02*
X2260Y846D01*
X2285Y846D02*
X2294Y846D01*
X2217Y845D02*
X2226Y845D01*
X2251Y845D02*
X2260Y845D01*
X2285Y845D02*
X2294Y845D01*
X2217Y844D02*
X2226Y844D01*
X2251Y844D02*
X2260Y844D01*
X2285Y844D02*
X2294Y844D01*
X2217Y843D02*
X2226Y843D01*
X2251Y843D02*
X2260Y843D01*
X2285Y843D02*
X2294Y843D01*
X2217Y842D02*
X2226Y842D01*
X2251Y842D02*
X2260Y842D01*
X2285Y842D02*
X2294Y842D01*
X2217Y841D02*
X2226Y841D01*
X2251Y841D02*
X2260Y841D01*
X2285Y841D02*
X2294Y841D01*
X2217Y840D02*
X2226Y840D01*
X2251Y840D02*
X2260Y840D01*
X2285Y840D02*
X2294Y840D01*
X2217Y839D02*
X2226Y839D01*
X2251Y839D02*
X2260Y839D01*
X2285Y839D02*
X2294Y839D01*
X2217Y838D02*
X2226Y838D01*
X2251Y838D02*
X2260Y838D01*
X2285Y838D02*
X2294Y838D01*
X2217Y837D02*
X2226Y837D01*
X2251Y837D02*
X2260Y837D01*
X2285Y837D02*
X2294Y837D01*
X2217Y836D02*
X2226Y836D01*
X2251Y836D02*
X2260Y836D01*
X2285Y836D02*
X2294Y836D01*
X2217Y835D02*
X2226Y835D01*
X2251Y835D02*
X2260Y835D01*
X2285Y835D02*
X2294Y835D01*
X2217Y834D02*
X2226Y834D01*
X2251Y834D02*
X2260Y834D01*
X2285Y834D02*
X2294Y834D01*
X2217Y833D02*
X2226Y833D01*
X2251Y833D02*
X2260Y833D01*
X2285Y833D02*
X2294Y833D01*
X2217Y832D02*
X2226Y832D01*
X2251Y832D02*
X2260Y832D01*
X2285Y832D02*
X2294Y832D01*
X2217Y831D02*
X2226Y831D01*
X2251Y831D02*
X2260Y831D01*
X2285Y831D02*
X2294Y831D01*
X2217Y830D02*
X2226Y830D01*
X2251Y830D02*
X2260Y830D01*
X2285Y830D02*
X2294Y830D01*
X2217Y829D02*
X2226Y829D01*
X2251Y829D02*
X2260Y829D01*
X2285Y829D02*
X2294Y829D01*
X2217Y828D02*
X2260Y828D01*
X2285Y828D02*
X2294Y828D01*
X2217Y827D02*
X2260Y827D01*
X2285Y827D02*
X2294Y827D01*
X2217Y826D02*
X2260Y826D01*
X2285Y826D02*
X2294Y826D01*
X2218Y825D02*
X2259Y825D01*
X2285Y825D02*
X2294Y825D01*
X2218Y824D02*
X2259Y824D01*
X2285Y824D02*
X2294Y824D01*
X2219Y823D02*
X2258Y823D01*
X2285Y823D02*
X2294Y823D01*
X2219Y822D02*
X2258Y822D01*
X2285Y822D02*
X2294Y822D01*
X2220Y821D02*
X2257Y821D01*
X2285Y821D02*
X2293Y821D01*
X2221Y820D02*
X2256Y820D01*
X2286Y820D02*
X2293Y820D01*
X2223Y819D02*
X2254Y819D01*
X2287Y819D02*
X2292Y819D01*
X2220Y795D02*
X2223Y795D01*
X2258Y795D02*
X2294Y795D01*
X2218Y794D02*
X2225Y794D01*
X2256Y794D02*
X2294Y794D01*
X2218Y793D02*
X2225Y793D01*
X2254Y793D02*
X2294Y793D01*
X2217Y792D02*
X2226Y792D01*
X2253Y792D02*
X2294Y792D01*
X2217Y791D02*
X2226Y791D01*
X2253Y791D02*
X2294Y791D01*
X2217Y790D02*
X2226Y790D01*
X2252Y790D02*
X2294Y790D01*
X2217Y789D02*
X2226Y789D01*
X2252Y789D02*
X2294Y789D01*
X2217Y788D02*
X2226Y788D01*
X2251Y788D02*
X2294Y788D01*
X2217Y787D02*
X2226Y787D01*
X2251Y787D02*
X2294Y787D01*
X2217Y786D02*
X2226Y786D01*
X2251Y786D02*
X2294Y786D01*
X2217Y785D02*
X2226Y785D01*
X2251Y785D02*
X2260Y785D01*
X2285Y785D02*
X2294Y785D01*
X2217Y784D02*
X2226Y784D01*
X2251Y784D02*
X2260Y784D01*
X2285Y784D02*
X2294Y784D01*
X2217Y783D02*
X2226Y783D01*
X2251Y783D02*
X2260Y783D01*
X2285Y783D02*
X2294Y783D01*
X2217Y782D02*
X2226Y782D01*
X2251Y782D02*
X2260Y782D01*
X2285Y782D02*
X2294Y782D01*
X2217Y781D02*
X2226Y781D01*
X2251Y781D02*
X2260Y781D01*
X2285Y781D02*
X2294Y781D01*
X2217Y780D02*
X2226Y780D01*
X2251Y780D02*
X2260Y780D01*
X2285Y780D02*
X2294Y780D01*
X2217Y779D02*
X2226Y779D01*
X2251Y779D02*
X2260Y779D01*
X2285Y779D02*
X2294Y779D01*
X2217Y778D02*
X2226Y778D01*
X2251Y778D02*
X2260Y778D01*
X2285Y778D02*
X2294Y778D01*
X2217Y777D02*
X2226Y777D01*
X2251Y777D02*
X2260Y777D01*
X2285Y777D02*
X2294Y777D01*
X2217Y776D02*
X2226Y776D01*
X2251Y776D02*
X2260Y776D01*
X2285Y776D02*
X2294Y776D01*
X2217Y775D02*
X2226Y775D01*
X2251Y775D02*
X2260Y775D01*
X2285Y775D02*
X2294Y775D01*
X2217Y774D02*
X2226Y774D01*
X2251Y774D02*
X2260Y774D01*
X2285Y774D02*
X2294Y774D01*
X2217Y773D02*
X2226Y773D01*
X2251Y773D02*
X2260Y773D01*
X2285Y773D02*
X2294Y773D01*
X2217Y772D02*
X2226Y772D01*
X2251Y772D02*
X2260Y772D01*
X2285Y772D02*
X2294Y772D01*
X2217Y771D02*
X2226Y771D01*
X2251Y771D02*
X2260Y771D01*
X2285Y771D02*
X2294Y771D01*
X2217Y770D02*
X2226Y770D01*
X2251Y770D02*
X2260Y770D01*
X2285Y770D02*
X2294Y770D01*
X2217Y769D02*
X2226Y769D01*
X2251Y769D02*
X2260Y769D01*
X2285Y769D02*
X2294Y769D01*
X2217Y768D02*
X2226Y768D01*
X2251Y768D02*
X2260Y768D01*
X2285Y768D02*
X2294Y768D01*
X2217Y767D02*
X2226Y767D01*
X2251Y767D02*
X2260Y767D01*
X2285Y767D02*
X2294Y767D01*
X2217Y766D02*
X2226Y766D01*
X2251Y766D02*
X2260Y766D01*
X2285Y766D02*
X2294Y766D01*
X2217Y765D02*
X2226Y765D01*
X2251Y765D02*
X2260Y765D01*
X2285Y765D02*
X2294Y765D01*
X2217Y764D02*
X2226Y764D01*
X2251Y764D02*
X2260Y764D01*
X2285Y764D02*
X2294Y764D01*
X2217Y763D02*
X2226Y763D01*
X2251Y763D02*
X2260Y763D01*
X2285Y763D02*
X2294Y763D01*
X2217Y762D02*
X2226Y762D01*
X2251Y762D02*
X2260Y762D01*
X2285Y762D02*
X2294Y762D01*
X2217Y761D02*
X2226Y761D01*
X2251Y761D02*
X2260Y761D01*
X2285Y761D02*
X2294Y761D01*
X2217Y760D02*
X2226Y760D01*
X2251Y760D02*
X2260Y760D01*
X2285Y760D02*
X2294Y760D01*
X2217Y759D02*
X2226Y759D01*
X2251Y759D02*
X2260Y759D01*
X2285Y759D02*
X2294Y759D01*
X2217Y758D02*
X2226Y758D01*
X2251Y758D02*
X2260Y758D01*
X2285Y758D02*
X2294Y758D01*
X2217Y757D02*
X2226Y757D01*
X2251Y757D02*
X2260Y757D01*
X2285Y757D02*
X2294Y757D01*
X2217Y756D02*
X2226Y756D01*
X2251Y756D02*
X2260Y756D01*
X2285Y756D02*
X2294Y756D01*
X2217Y755D02*
X2260Y755D01*
X2285Y755D02*
X2294Y755D01*
X2217Y754D02*
X2260Y754D01*
X2285Y754D02*
X2294Y754D01*
X2217Y753D02*
X2260Y753D01*
X2285Y753D02*
X2294Y753D01*
X2218Y752D02*
X2259Y752D01*
X2285Y752D02*
X2294Y752D01*
X2218Y751D02*
X2259Y751D01*
X2285Y751D02*
X2294Y751D01*
X2219Y750D02*
X2258Y750D01*
X2285Y750D02*
X2294Y750D01*
X2220Y749D02*
X2257Y749D01*
X2285Y749D02*
X2294Y749D01*
X2221Y748D02*
X2256Y748D01*
X2286Y748D02*
X2293Y748D01*
X2223Y747D02*
X2255Y747D01*
X2287Y747D02*
X2292Y747D01*
X2225Y746D02*
X2252Y746D01*
X2289Y746D02*
X2290Y746D01*
D02*
G04 End of Silk0*
M02*