G04 MADE WITH FRITZING*
G04 WWW.FRITZING.ORG*
G04 DOUBLE SIDED*
G04 HOLES PLATED*
G04 CONTOUR ON CENTER OF CONTOUR VECTOR*
%ASAXBY*%
%FSLAX23Y23*%
%MOIN*%
%OFA0B0*%
%SFA1.0B1.0*%
%ADD10R,2.992130X3.346460X2.976130X3.330460*%
%ADD11C,0.008000*%
%ADD12R,0.001000X0.001000*%
%LNSILK0*%
G90*
G70*
G54D11*
X4Y3342D02*
X2988Y3342D01*
X2988Y4D01*
X4Y4D01*
X4Y3342D01*
D02*
G54D12*
X2228Y2385D02*
X2305Y2385D01*
X2228Y2384D02*
X2305Y2384D01*
X2228Y2383D02*
X2305Y2383D01*
X2228Y2382D02*
X2305Y2382D01*
X2228Y2381D02*
X2305Y2381D01*
X2228Y2380D02*
X2305Y2380D01*
X2228Y2379D02*
X2305Y2379D01*
X2228Y2378D02*
X2305Y2378D01*
X2228Y2377D02*
X2305Y2377D01*
X2228Y2376D02*
X2305Y2376D01*
X2228Y2375D02*
X2237Y2375D01*
X2262Y2375D02*
X2271Y2375D01*
X2296Y2375D02*
X2305Y2375D01*
X2228Y2374D02*
X2237Y2374D01*
X2262Y2374D02*
X2271Y2374D01*
X2296Y2374D02*
X2305Y2374D01*
X2228Y2373D02*
X2237Y2373D01*
X2262Y2373D02*
X2271Y2373D01*
X2296Y2373D02*
X2305Y2373D01*
X2228Y2372D02*
X2237Y2372D01*
X2262Y2372D02*
X2271Y2372D01*
X2296Y2372D02*
X2305Y2372D01*
X2228Y2371D02*
X2237Y2371D01*
X2262Y2371D02*
X2271Y2371D01*
X2296Y2371D02*
X2305Y2371D01*
X2228Y2370D02*
X2237Y2370D01*
X2262Y2370D02*
X2271Y2370D01*
X2296Y2370D02*
X2305Y2370D01*
X2228Y2369D02*
X2237Y2369D01*
X2262Y2369D02*
X2271Y2369D01*
X2296Y2369D02*
X2305Y2369D01*
X2228Y2368D02*
X2237Y2368D01*
X2262Y2368D02*
X2271Y2368D01*
X2296Y2368D02*
X2305Y2368D01*
X2228Y2367D02*
X2237Y2367D01*
X2262Y2367D02*
X2271Y2367D01*
X2296Y2367D02*
X2305Y2367D01*
X2228Y2366D02*
X2237Y2366D01*
X2262Y2366D02*
X2271Y2366D01*
X2296Y2366D02*
X2305Y2366D01*
X2228Y2365D02*
X2237Y2365D01*
X2262Y2365D02*
X2271Y2365D01*
X2296Y2365D02*
X2305Y2365D01*
X2228Y2364D02*
X2237Y2364D01*
X2262Y2364D02*
X2271Y2364D01*
X2296Y2364D02*
X2305Y2364D01*
X2228Y2363D02*
X2237Y2363D01*
X2262Y2363D02*
X2271Y2363D01*
X2296Y2363D02*
X2305Y2363D01*
X2228Y2362D02*
X2237Y2362D01*
X2262Y2362D02*
X2271Y2362D01*
X2296Y2362D02*
X2305Y2362D01*
X2228Y2361D02*
X2237Y2361D01*
X2262Y2361D02*
X2271Y2361D01*
X2296Y2361D02*
X2305Y2361D01*
X2228Y2360D02*
X2237Y2360D01*
X2262Y2360D02*
X2271Y2360D01*
X2296Y2360D02*
X2305Y2360D01*
X2228Y2359D02*
X2237Y2359D01*
X2263Y2359D02*
X2271Y2359D01*
X2296Y2359D02*
X2305Y2359D01*
X2228Y2358D02*
X2237Y2358D01*
X2263Y2358D02*
X2270Y2358D01*
X2296Y2358D02*
X2305Y2358D01*
X2228Y2357D02*
X2237Y2357D01*
X2264Y2357D02*
X2269Y2357D01*
X2296Y2357D02*
X2305Y2357D01*
X2228Y2356D02*
X2237Y2356D01*
X2296Y2356D02*
X2305Y2356D01*
X2228Y2355D02*
X2237Y2355D01*
X2296Y2355D02*
X2305Y2355D01*
X2228Y2354D02*
X2237Y2354D01*
X2296Y2354D02*
X2305Y2354D01*
X2228Y2353D02*
X2237Y2353D01*
X2296Y2353D02*
X2305Y2353D01*
X2228Y2352D02*
X2237Y2352D01*
X2296Y2352D02*
X2305Y2352D01*
X2228Y2351D02*
X2237Y2351D01*
X2296Y2351D02*
X2305Y2351D01*
X2228Y2350D02*
X2237Y2350D01*
X2296Y2350D02*
X2305Y2350D01*
X2228Y2349D02*
X2237Y2349D01*
X2296Y2349D02*
X2305Y2349D01*
X2228Y2348D02*
X2237Y2348D01*
X2296Y2348D02*
X2305Y2348D01*
X2228Y2347D02*
X2237Y2347D01*
X2296Y2347D02*
X2305Y2347D01*
X2228Y2346D02*
X2237Y2346D01*
X2296Y2346D02*
X2305Y2346D01*
X2228Y2345D02*
X2237Y2345D01*
X2296Y2345D02*
X2305Y2345D01*
X2228Y2344D02*
X2237Y2344D01*
X2296Y2344D02*
X2305Y2344D01*
X2228Y2343D02*
X2237Y2343D01*
X2296Y2343D02*
X2305Y2343D01*
X2228Y2342D02*
X2237Y2342D01*
X2296Y2342D02*
X2305Y2342D01*
X2228Y2341D02*
X2237Y2341D01*
X2296Y2341D02*
X2305Y2341D01*
X2228Y2340D02*
X2237Y2340D01*
X2296Y2340D02*
X2305Y2340D01*
X2229Y2339D02*
X2237Y2339D01*
X2297Y2339D02*
X2305Y2339D01*
X2229Y2338D02*
X2236Y2338D01*
X2297Y2338D02*
X2304Y2338D01*
X2230Y2337D02*
X2235Y2337D01*
X2298Y2337D02*
X2303Y2337D01*
X2252Y2313D02*
X2302Y2313D01*
X2251Y2312D02*
X2304Y2312D01*
X2250Y2311D02*
X2304Y2311D01*
X2250Y2310D02*
X2305Y2310D01*
X2249Y2309D02*
X2305Y2309D01*
X2249Y2308D02*
X2305Y2308D01*
X2250Y2307D02*
X2305Y2307D01*
X2250Y2306D02*
X2304Y2306D01*
X2251Y2305D02*
X2304Y2305D01*
X2252Y2304D02*
X2302Y2304D01*
X2257Y2303D02*
X2269Y2303D01*
X2257Y2302D02*
X2268Y2302D01*
X2256Y2301D02*
X2267Y2301D01*
X2256Y2300D02*
X2267Y2300D01*
X2255Y2299D02*
X2266Y2299D01*
X2254Y2298D02*
X2265Y2298D01*
X2254Y2297D02*
X2265Y2297D01*
X2253Y2296D02*
X2264Y2296D01*
X2252Y2295D02*
X2263Y2295D01*
X2252Y2294D02*
X2263Y2294D01*
X2251Y2293D02*
X2262Y2293D01*
X2251Y2292D02*
X2261Y2292D01*
X2250Y2291D02*
X2261Y2291D01*
X2250Y2290D02*
X2260Y2290D01*
X2250Y2289D02*
X2260Y2289D01*
X2249Y2288D02*
X2259Y2288D01*
X2249Y2287D02*
X2258Y2287D01*
X2249Y2286D02*
X2258Y2286D01*
X2249Y2285D02*
X2258Y2285D01*
X2249Y2284D02*
X2258Y2284D01*
X2249Y2283D02*
X2258Y2283D01*
X2249Y2282D02*
X2258Y2282D01*
X2249Y2281D02*
X2258Y2281D01*
X2253Y2280D02*
X2258Y2280D01*
X2257Y2279D02*
X2259Y2279D01*
X2266Y2275D02*
X2269Y2275D01*
X2268Y2274D02*
X2298Y2274D01*
X2269Y2273D02*
X2303Y2273D01*
X2270Y2272D02*
X2304Y2272D01*
X2272Y2271D02*
X2305Y2271D01*
X2273Y2270D02*
X2305Y2270D01*
X2274Y2269D02*
X2305Y2269D01*
X2275Y2268D02*
X2305Y2268D01*
X2276Y2267D02*
X2305Y2267D01*
X2277Y2266D02*
X2304Y2266D01*
X2278Y2265D02*
X2303Y2265D01*
X2299Y2264D02*
X2300Y2264D01*
X2287Y2240D02*
X2289Y2240D01*
X2287Y2239D02*
X2291Y2239D01*
X2287Y2238D02*
X2292Y2238D01*
X2287Y2237D02*
X2293Y2237D01*
X2287Y2236D02*
X2294Y2236D01*
X2320Y2236D02*
X2323Y2236D01*
X2287Y2235D02*
X2295Y2235D01*
X2319Y2235D02*
X2325Y2235D01*
X2287Y2234D02*
X2296Y2234D01*
X2318Y2234D02*
X2325Y2234D01*
X2287Y2233D02*
X2297Y2233D01*
X2318Y2233D02*
X2326Y2233D01*
X2287Y2232D02*
X2298Y2232D01*
X2317Y2232D02*
X2326Y2232D01*
X2286Y2231D02*
X2298Y2231D01*
X2317Y2231D02*
X2326Y2231D01*
X2287Y2230D02*
X2299Y2230D01*
X2317Y2230D02*
X2326Y2230D01*
X2288Y2229D02*
X2299Y2229D01*
X2317Y2229D02*
X2326Y2229D01*
X2289Y2228D02*
X2300Y2228D01*
X2317Y2228D02*
X2326Y2228D01*
X2290Y2227D02*
X2300Y2227D01*
X2317Y2227D02*
X2326Y2227D01*
X2291Y2226D02*
X2300Y2226D01*
X2317Y2226D02*
X2326Y2226D01*
X2291Y2225D02*
X2301Y2225D01*
X2317Y2225D02*
X2326Y2225D01*
X2292Y2224D02*
X2301Y2224D01*
X2317Y2224D02*
X2326Y2224D01*
X2292Y2223D02*
X2301Y2223D01*
X2317Y2223D02*
X2326Y2223D01*
X2292Y2222D02*
X2301Y2222D01*
X2317Y2222D02*
X2326Y2222D01*
X2292Y2221D02*
X2301Y2221D01*
X2317Y2221D02*
X2326Y2221D01*
X2292Y2220D02*
X2301Y2220D01*
X2317Y2220D02*
X2326Y2220D01*
X2292Y2219D02*
X2301Y2219D01*
X2317Y2219D02*
X2326Y2219D01*
X2292Y2218D02*
X2301Y2218D01*
X2317Y2218D02*
X2326Y2218D01*
X2292Y2217D02*
X2301Y2217D01*
X2317Y2217D02*
X2326Y2217D01*
X2292Y2216D02*
X2301Y2216D01*
X2317Y2216D02*
X2326Y2216D01*
X2292Y2215D02*
X2301Y2215D01*
X2317Y2215D02*
X2326Y2215D01*
X2292Y2214D02*
X2301Y2214D01*
X2317Y2214D02*
X2326Y2214D01*
X2291Y2213D02*
X2301Y2213D01*
X2317Y2213D02*
X2326Y2213D01*
X2291Y2212D02*
X2301Y2212D01*
X2317Y2212D02*
X2326Y2212D01*
X2290Y2211D02*
X2300Y2211D01*
X2317Y2211D02*
X2326Y2211D01*
X2289Y2210D02*
X2300Y2210D01*
X2317Y2210D02*
X2326Y2210D01*
X2288Y2209D02*
X2299Y2209D01*
X2317Y2209D02*
X2326Y2209D01*
X2287Y2208D02*
X2299Y2208D01*
X2317Y2208D02*
X2326Y2208D01*
X2286Y2207D02*
X2298Y2207D01*
X2316Y2207D02*
X2326Y2207D01*
X2285Y2206D02*
X2298Y2206D01*
X2315Y2206D02*
X2326Y2206D01*
X2285Y2205D02*
X2297Y2205D01*
X2314Y2205D02*
X2325Y2205D01*
X2284Y2204D02*
X2296Y2204D01*
X2313Y2204D02*
X2325Y2204D01*
X2283Y2203D02*
X2295Y2203D01*
X2312Y2203D02*
X2324Y2203D01*
X2267Y2202D02*
X2269Y2202D01*
X2281Y2202D02*
X2295Y2202D01*
X2311Y2202D02*
X2324Y2202D01*
X2265Y2201D02*
X2323Y2201D01*
X2264Y2200D02*
X2322Y2200D01*
X2262Y2199D02*
X2321Y2199D01*
X2259Y2198D02*
X2321Y2198D01*
X2256Y2197D02*
X2320Y2197D01*
X2251Y2196D02*
X2319Y2196D01*
X2250Y2195D02*
X2317Y2195D01*
X2250Y2194D02*
X2316Y2194D01*
X2251Y2193D02*
X2315Y2193D01*
X2252Y2192D02*
X2312Y2192D01*
X2254Y2164D02*
X2254Y2164D01*
X2300Y2164D02*
X2301Y2164D01*
X2251Y2163D02*
X2256Y2163D01*
X2298Y2163D02*
X2303Y2163D01*
X2250Y2162D02*
X2257Y2162D01*
X2297Y2162D02*
X2304Y2162D01*
X2250Y2161D02*
X2258Y2161D01*
X2296Y2161D02*
X2305Y2161D01*
X2249Y2160D02*
X2258Y2160D01*
X2296Y2160D02*
X2305Y2160D01*
X2249Y2159D02*
X2258Y2159D01*
X2296Y2159D02*
X2305Y2159D01*
X2249Y2158D02*
X2258Y2158D01*
X2296Y2158D02*
X2305Y2158D01*
X2249Y2157D02*
X2258Y2157D01*
X2296Y2157D02*
X2305Y2157D01*
X2249Y2156D02*
X2258Y2156D01*
X2296Y2156D02*
X2305Y2156D01*
X2249Y2155D02*
X2258Y2155D01*
X2296Y2155D02*
X2305Y2155D01*
X2228Y2154D02*
X2233Y2154D01*
X2249Y2154D02*
X2258Y2154D01*
X2296Y2154D02*
X2305Y2154D01*
X2226Y2153D02*
X2235Y2153D01*
X2249Y2153D02*
X2258Y2153D01*
X2296Y2153D02*
X2305Y2153D01*
X2225Y2152D02*
X2236Y2152D01*
X2249Y2152D02*
X2258Y2152D01*
X2296Y2152D02*
X2305Y2152D01*
X2224Y2151D02*
X2237Y2151D01*
X2249Y2151D02*
X2258Y2151D01*
X2296Y2151D02*
X2305Y2151D01*
X2224Y2150D02*
X2237Y2150D01*
X2249Y2150D02*
X2258Y2150D01*
X2296Y2150D02*
X2305Y2150D01*
X2224Y2149D02*
X2237Y2149D01*
X2249Y2149D02*
X2305Y2149D01*
X2224Y2148D02*
X2237Y2148D01*
X2249Y2148D02*
X2305Y2148D01*
X2224Y2147D02*
X2237Y2147D01*
X2249Y2147D02*
X2305Y2147D01*
X2224Y2146D02*
X2237Y2146D01*
X2249Y2146D02*
X2305Y2146D01*
X2224Y2145D02*
X2237Y2145D01*
X2249Y2145D02*
X2305Y2145D01*
X2224Y2144D02*
X2237Y2144D01*
X2249Y2144D02*
X2305Y2144D01*
X2224Y2143D02*
X2237Y2143D01*
X2250Y2143D02*
X2305Y2143D01*
X2224Y2142D02*
X2237Y2142D01*
X2250Y2142D02*
X2305Y2142D01*
X2225Y2141D02*
X2236Y2141D01*
X2251Y2141D02*
X2305Y2141D01*
X2226Y2140D02*
X2235Y2140D01*
X2252Y2140D02*
X2305Y2140D01*
X2296Y2139D02*
X2305Y2139D01*
X2296Y2138D02*
X2305Y2138D01*
X2296Y2137D02*
X2305Y2137D01*
X2296Y2136D02*
X2305Y2136D01*
X2296Y2135D02*
X2305Y2135D01*
X2296Y2134D02*
X2305Y2134D01*
X2296Y2133D02*
X2305Y2133D01*
X2296Y2132D02*
X2305Y2132D01*
X2296Y2131D02*
X2305Y2131D01*
X2296Y2130D02*
X2305Y2130D01*
X2296Y2129D02*
X2305Y2129D01*
X2296Y2128D02*
X2305Y2128D01*
X2297Y2127D02*
X2304Y2127D01*
X2297Y2126D02*
X2304Y2126D01*
X2299Y2125D02*
X2303Y2125D01*
X2252Y2096D02*
X2303Y2096D01*
X2251Y2095D02*
X2304Y2095D01*
X2250Y2094D02*
X2305Y2094D01*
X2250Y2093D02*
X2305Y2093D01*
X2249Y2092D02*
X2305Y2092D01*
X2249Y2091D02*
X2305Y2091D01*
X2250Y2090D02*
X2305Y2090D01*
X2250Y2089D02*
X2304Y2089D01*
X2251Y2088D02*
X2303Y2088D01*
X2253Y2087D02*
X2302Y2087D01*
X2257Y2086D02*
X2268Y2086D01*
X2257Y2085D02*
X2268Y2085D01*
X2256Y2084D02*
X2267Y2084D01*
X2255Y2083D02*
X2267Y2083D01*
X2255Y2082D02*
X2266Y2082D01*
X2254Y2081D02*
X2265Y2081D01*
X2254Y2080D02*
X2265Y2080D01*
X2253Y2079D02*
X2264Y2079D01*
X2252Y2078D02*
X2263Y2078D01*
X2252Y2077D02*
X2263Y2077D01*
X2251Y2076D02*
X2262Y2076D01*
X2251Y2075D02*
X2261Y2075D01*
X2250Y2074D02*
X2261Y2074D01*
X2250Y2073D02*
X2260Y2073D01*
X2250Y2072D02*
X2259Y2072D01*
X2249Y2071D02*
X2259Y2071D01*
X2249Y2070D02*
X2258Y2070D01*
X2249Y2069D02*
X2258Y2069D01*
X2249Y2068D02*
X2258Y2068D01*
X2249Y2067D02*
X2258Y2067D01*
X2249Y2066D02*
X2258Y2066D01*
X2249Y2065D02*
X2258Y2065D01*
X2249Y2064D02*
X2258Y2064D01*
X2249Y2063D02*
X2258Y2063D01*
X2249Y2062D02*
X2259Y2062D01*
X2250Y2061D02*
X2259Y2061D01*
X2250Y2060D02*
X2260Y2060D01*
X2250Y2059D02*
X2261Y2059D01*
X2250Y2058D02*
X2273Y2058D01*
X2251Y2057D02*
X2300Y2057D01*
X2251Y2056D02*
X2303Y2056D01*
X2252Y2055D02*
X2304Y2055D01*
X2253Y2054D02*
X2305Y2054D01*
X2253Y2053D02*
X2305Y2053D01*
X2255Y2052D02*
X2305Y2052D01*
X2256Y2051D02*
X2305Y2051D01*
X2257Y2050D02*
X2305Y2050D01*
X2260Y2049D02*
X2304Y2049D01*
X2272Y2048D02*
X2303Y2048D01*
X2264Y2024D02*
X2291Y2024D01*
X2261Y2023D02*
X2294Y2023D01*
X2259Y2022D02*
X2295Y2022D01*
X2258Y2021D02*
X2297Y2021D01*
X2257Y2020D02*
X2298Y2020D01*
X2256Y2019D02*
X2299Y2019D01*
X2255Y2018D02*
X2300Y2018D01*
X2254Y2017D02*
X2300Y2017D01*
X2253Y2016D02*
X2301Y2016D01*
X2252Y2015D02*
X2302Y2015D01*
X2252Y2014D02*
X2265Y2014D01*
X2275Y2014D02*
X2284Y2014D01*
X2290Y2014D02*
X2303Y2014D01*
X2251Y2013D02*
X2263Y2013D01*
X2275Y2013D02*
X2284Y2013D01*
X2291Y2013D02*
X2303Y2013D01*
X2251Y2012D02*
X2262Y2012D01*
X2275Y2012D02*
X2284Y2012D01*
X2292Y2012D02*
X2304Y2012D01*
X2250Y2011D02*
X2261Y2011D01*
X2275Y2011D02*
X2284Y2011D01*
X2293Y2011D02*
X2304Y2011D01*
X2250Y2010D02*
X2260Y2010D01*
X2275Y2010D02*
X2284Y2010D01*
X2294Y2010D02*
X2305Y2010D01*
X2250Y2009D02*
X2260Y2009D01*
X2275Y2009D02*
X2284Y2009D01*
X2295Y2009D02*
X2305Y2009D01*
X2249Y2008D02*
X2259Y2008D01*
X2275Y2008D02*
X2284Y2008D01*
X2295Y2008D02*
X2305Y2008D01*
X2249Y2007D02*
X2259Y2007D01*
X2275Y2007D02*
X2284Y2007D01*
X2296Y2007D02*
X2305Y2007D01*
X2249Y2006D02*
X2258Y2006D01*
X2275Y2006D02*
X2284Y2006D01*
X2296Y2006D02*
X2305Y2006D01*
X2249Y2005D02*
X2258Y2005D01*
X2275Y2005D02*
X2284Y2005D01*
X2296Y2005D02*
X2305Y2005D01*
X2249Y2004D02*
X2258Y2004D01*
X2275Y2004D02*
X2284Y2004D01*
X2296Y2004D02*
X2305Y2004D01*
X2249Y2003D02*
X2258Y2003D01*
X2275Y2003D02*
X2284Y2003D01*
X2296Y2003D02*
X2305Y2003D01*
X2249Y2002D02*
X2258Y2002D01*
X2275Y2002D02*
X2284Y2002D01*
X2296Y2002D02*
X2305Y2002D01*
X2249Y2001D02*
X2258Y2001D01*
X2275Y2001D02*
X2284Y2001D01*
X2296Y2001D02*
X2305Y2001D01*
X2249Y2000D02*
X2258Y2000D01*
X2275Y2000D02*
X2284Y2000D01*
X2296Y2000D02*
X2305Y2000D01*
X2249Y1999D02*
X2258Y1999D01*
X2275Y1999D02*
X2284Y1999D01*
X2296Y1999D02*
X2305Y1999D01*
X2249Y1998D02*
X2258Y1998D01*
X2275Y1998D02*
X2284Y1998D01*
X2296Y1998D02*
X2305Y1998D01*
X2249Y1997D02*
X2258Y1997D01*
X2275Y1997D02*
X2284Y1997D01*
X2296Y1997D02*
X2305Y1997D01*
X2249Y1996D02*
X2258Y1996D01*
X2275Y1996D02*
X2284Y1996D01*
X2296Y1996D02*
X2305Y1996D01*
X2249Y1995D02*
X2258Y1995D01*
X2275Y1995D02*
X2284Y1995D01*
X2296Y1995D02*
X2305Y1995D01*
X2249Y1994D02*
X2258Y1994D01*
X2275Y1994D02*
X2284Y1994D01*
X2296Y1994D02*
X2305Y1994D01*
X2249Y1993D02*
X2258Y1993D01*
X2275Y1993D02*
X2284Y1993D01*
X2296Y1993D02*
X2305Y1993D01*
X2249Y1992D02*
X2259Y1992D01*
X2275Y1992D02*
X2284Y1992D01*
X2296Y1992D02*
X2305Y1992D01*
X2249Y1991D02*
X2259Y1991D01*
X2275Y1991D02*
X2284Y1991D01*
X2296Y1991D02*
X2305Y1991D01*
X2250Y1990D02*
X2260Y1990D01*
X2275Y1990D02*
X2284Y1990D01*
X2296Y1990D02*
X2305Y1990D01*
X2250Y1989D02*
X2260Y1989D01*
X2275Y1989D02*
X2284Y1989D01*
X2296Y1989D02*
X2305Y1989D01*
X2250Y1988D02*
X2261Y1988D01*
X2275Y1988D02*
X2284Y1988D01*
X2296Y1988D02*
X2305Y1988D01*
X2251Y1987D02*
X2262Y1987D01*
X2275Y1987D02*
X2284Y1987D01*
X2296Y1987D02*
X2305Y1987D01*
X2251Y1986D02*
X2263Y1986D01*
X2275Y1986D02*
X2284Y1986D01*
X2296Y1986D02*
X2305Y1986D01*
X2252Y1985D02*
X2265Y1985D01*
X2275Y1985D02*
X2284Y1985D01*
X2296Y1985D02*
X2305Y1985D01*
X2253Y1984D02*
X2284Y1984D01*
X2296Y1984D02*
X2305Y1984D01*
X2253Y1983D02*
X2284Y1983D01*
X2296Y1983D02*
X2305Y1983D01*
X2254Y1982D02*
X2284Y1982D01*
X2296Y1982D02*
X2305Y1982D01*
X2255Y1981D02*
X2284Y1981D01*
X2296Y1981D02*
X2305Y1981D01*
X2256Y1980D02*
X2284Y1980D01*
X2296Y1980D02*
X2305Y1980D01*
X2257Y1979D02*
X2284Y1979D01*
X2296Y1979D02*
X2305Y1979D01*
X2258Y1978D02*
X2284Y1978D01*
X2296Y1978D02*
X2305Y1978D01*
X2260Y1977D02*
X2283Y1977D01*
X2297Y1977D02*
X2304Y1977D01*
X2261Y1976D02*
X2282Y1976D01*
X2298Y1976D02*
X2303Y1976D01*
X2264Y1975D02*
X2280Y1975D01*
X2299Y1975D02*
X2302Y1975D01*
X2228Y1952D02*
X2301Y1952D01*
X2228Y1951D02*
X2303Y1951D01*
X2228Y1950D02*
X2304Y1950D01*
X2228Y1949D02*
X2305Y1949D01*
X2228Y1948D02*
X2305Y1948D01*
X2228Y1947D02*
X2305Y1947D01*
X2228Y1946D02*
X2305Y1946D01*
X2228Y1945D02*
X2305Y1945D01*
X2228Y1944D02*
X2304Y1944D01*
X2228Y1943D02*
X2303Y1943D01*
X2228Y1942D02*
X2238Y1942D01*
X2253Y1942D02*
X2263Y1942D01*
X2228Y1941D02*
X2237Y1941D01*
X2254Y1941D02*
X2263Y1941D01*
X2228Y1940D02*
X2237Y1940D01*
X2254Y1940D02*
X2263Y1940D01*
X2228Y1939D02*
X2237Y1939D01*
X2254Y1939D02*
X2263Y1939D01*
X2228Y1938D02*
X2237Y1938D01*
X2254Y1938D02*
X2263Y1938D01*
X2228Y1937D02*
X2237Y1937D01*
X2254Y1937D02*
X2263Y1937D01*
X2228Y1936D02*
X2237Y1936D01*
X2254Y1936D02*
X2263Y1936D01*
X2228Y1935D02*
X2237Y1935D01*
X2254Y1935D02*
X2263Y1935D01*
X2228Y1934D02*
X2237Y1934D01*
X2254Y1934D02*
X2265Y1934D01*
X2228Y1933D02*
X2237Y1933D01*
X2254Y1933D02*
X2266Y1933D01*
X2228Y1932D02*
X2237Y1932D01*
X2254Y1932D02*
X2268Y1932D01*
X2228Y1931D02*
X2237Y1931D01*
X2254Y1931D02*
X2270Y1931D01*
X2228Y1930D02*
X2237Y1930D01*
X2254Y1930D02*
X2272Y1930D01*
X2228Y1929D02*
X2237Y1929D01*
X2254Y1929D02*
X2273Y1929D01*
X2228Y1928D02*
X2237Y1928D01*
X2254Y1928D02*
X2275Y1928D01*
X2228Y1927D02*
X2237Y1927D01*
X2254Y1927D02*
X2277Y1927D01*
X2228Y1926D02*
X2237Y1926D01*
X2254Y1926D02*
X2278Y1926D01*
X2228Y1925D02*
X2237Y1925D01*
X2254Y1925D02*
X2280Y1925D01*
X2228Y1924D02*
X2237Y1924D01*
X2254Y1924D02*
X2282Y1924D01*
X2228Y1923D02*
X2237Y1923D01*
X2254Y1923D02*
X2284Y1923D01*
X2228Y1922D02*
X2237Y1922D01*
X2254Y1922D02*
X2263Y1922D01*
X2266Y1922D02*
X2285Y1922D01*
X2228Y1921D02*
X2237Y1921D01*
X2254Y1921D02*
X2263Y1921D01*
X2268Y1921D02*
X2287Y1921D01*
X2228Y1920D02*
X2237Y1920D01*
X2254Y1920D02*
X2263Y1920D01*
X2269Y1920D02*
X2289Y1920D01*
X2228Y1919D02*
X2237Y1919D01*
X2254Y1919D02*
X2263Y1919D01*
X2271Y1919D02*
X2290Y1919D01*
X2228Y1918D02*
X2237Y1918D01*
X2254Y1918D02*
X2263Y1918D01*
X2273Y1918D02*
X2292Y1918D01*
X2228Y1917D02*
X2237Y1917D01*
X2253Y1917D02*
X2263Y1917D01*
X2275Y1917D02*
X2294Y1917D01*
X2228Y1916D02*
X2238Y1916D01*
X2253Y1916D02*
X2263Y1916D01*
X2276Y1916D02*
X2296Y1916D01*
X2228Y1915D02*
X2238Y1915D01*
X2253Y1915D02*
X2262Y1915D01*
X2278Y1915D02*
X2297Y1915D01*
X2229Y1914D02*
X2239Y1914D01*
X2252Y1914D02*
X2262Y1914D01*
X2280Y1914D02*
X2299Y1914D01*
X2229Y1913D02*
X2240Y1913D01*
X2251Y1913D02*
X2262Y1913D01*
X2282Y1913D02*
X2301Y1913D01*
X2229Y1912D02*
X2262Y1912D01*
X2283Y1912D02*
X2302Y1912D01*
X2230Y1911D02*
X2261Y1911D01*
X2285Y1911D02*
X2304Y1911D01*
X2230Y1910D02*
X2261Y1910D01*
X2287Y1910D02*
X2304Y1910D01*
X2231Y1909D02*
X2260Y1909D01*
X2288Y1909D02*
X2305Y1909D01*
X2232Y1908D02*
X2259Y1908D01*
X2290Y1908D02*
X2305Y1908D01*
X2233Y1907D02*
X2258Y1907D01*
X2292Y1907D02*
X2305Y1907D01*
X2234Y1906D02*
X2257Y1906D01*
X2294Y1906D02*
X2305Y1906D01*
X2235Y1905D02*
X2256Y1905D01*
X2295Y1905D02*
X2304Y1905D01*
X2237Y1904D02*
X2254Y1904D01*
X2297Y1904D02*
X2304Y1904D01*
X2239Y1903D02*
X2252Y1903D01*
X2299Y1903D02*
X2302Y1903D01*
X2263Y1879D02*
X2292Y1879D01*
X2260Y1878D02*
X2294Y1878D01*
X2259Y1877D02*
X2296Y1877D01*
X2257Y1876D02*
X2297Y1876D01*
X2256Y1875D02*
X2298Y1875D01*
X2255Y1874D02*
X2299Y1874D01*
X2255Y1873D02*
X2300Y1873D01*
X2254Y1872D02*
X2301Y1872D01*
X2253Y1871D02*
X2302Y1871D01*
X2252Y1870D02*
X2302Y1870D01*
X2251Y1869D02*
X2264Y1869D01*
X2291Y1869D02*
X2303Y1869D01*
X2251Y1868D02*
X2263Y1868D01*
X2292Y1868D02*
X2303Y1868D01*
X2250Y1867D02*
X2262Y1867D01*
X2293Y1867D02*
X2304Y1867D01*
X2250Y1866D02*
X2261Y1866D01*
X2294Y1866D02*
X2304Y1866D01*
X2250Y1865D02*
X2260Y1865D01*
X2294Y1865D02*
X2305Y1865D01*
X2250Y1864D02*
X2259Y1864D01*
X2295Y1864D02*
X2305Y1864D01*
X2249Y1863D02*
X2259Y1863D01*
X2296Y1863D02*
X2305Y1863D01*
X2249Y1862D02*
X2258Y1862D01*
X2296Y1862D02*
X2305Y1862D01*
X2249Y1861D02*
X2258Y1861D01*
X2296Y1861D02*
X2305Y1861D01*
X2249Y1860D02*
X2258Y1860D01*
X2296Y1860D02*
X2305Y1860D01*
X2249Y1859D02*
X2258Y1859D01*
X2296Y1859D02*
X2305Y1859D01*
X2249Y1858D02*
X2258Y1858D01*
X2296Y1858D02*
X2305Y1858D01*
X2249Y1857D02*
X2258Y1857D01*
X2296Y1857D02*
X2305Y1857D01*
X2249Y1856D02*
X2258Y1856D01*
X2296Y1856D02*
X2305Y1856D01*
X2249Y1855D02*
X2258Y1855D01*
X2296Y1855D02*
X2305Y1855D01*
X2249Y1854D02*
X2258Y1854D01*
X2296Y1854D02*
X2305Y1854D01*
X2249Y1853D02*
X2258Y1853D01*
X2296Y1853D02*
X2305Y1853D01*
X2249Y1852D02*
X2258Y1852D01*
X2296Y1852D02*
X2305Y1852D01*
X2249Y1851D02*
X2258Y1851D01*
X2296Y1851D02*
X2305Y1851D01*
X2249Y1850D02*
X2258Y1850D01*
X2296Y1850D02*
X2305Y1850D01*
X2249Y1849D02*
X2258Y1849D01*
X2296Y1849D02*
X2305Y1849D01*
X2249Y1848D02*
X2259Y1848D01*
X2296Y1848D02*
X2305Y1848D01*
X2249Y1847D02*
X2259Y1847D01*
X2296Y1847D02*
X2305Y1847D01*
X2250Y1846D02*
X2259Y1846D01*
X2295Y1846D02*
X2305Y1846D01*
X2250Y1845D02*
X2260Y1845D01*
X2294Y1845D02*
X2305Y1845D01*
X2250Y1844D02*
X2261Y1844D01*
X2294Y1844D02*
X2304Y1844D01*
X2251Y1843D02*
X2261Y1843D01*
X2293Y1843D02*
X2304Y1843D01*
X2251Y1842D02*
X2262Y1842D01*
X2292Y1842D02*
X2303Y1842D01*
X2252Y1841D02*
X2264Y1841D01*
X2291Y1841D02*
X2303Y1841D01*
X2252Y1840D02*
X2302Y1840D01*
X2253Y1839D02*
X2301Y1839D01*
X2254Y1838D02*
X2301Y1838D01*
X2255Y1837D02*
X2300Y1837D01*
X2255Y1836D02*
X2299Y1836D01*
X2256Y1835D02*
X2298Y1835D01*
X2257Y1834D02*
X2297Y1834D01*
X2259Y1833D02*
X2296Y1833D01*
X2260Y1832D02*
X2294Y1832D01*
X2262Y1831D02*
X2292Y1831D01*
X2263Y1807D02*
X2291Y1807D01*
X2261Y1806D02*
X2294Y1806D01*
X2259Y1805D02*
X2296Y1805D01*
X2258Y1804D02*
X2297Y1804D01*
X2257Y1803D02*
X2298Y1803D01*
X2256Y1802D02*
X2299Y1802D01*
X2255Y1801D02*
X2300Y1801D01*
X2254Y1800D02*
X2300Y1800D01*
X2253Y1799D02*
X2301Y1799D01*
X2252Y1798D02*
X2302Y1798D01*
X2252Y1797D02*
X2264Y1797D01*
X2290Y1797D02*
X2303Y1797D01*
X2251Y1796D02*
X2263Y1796D01*
X2292Y1796D02*
X2303Y1796D01*
X2251Y1795D02*
X2262Y1795D01*
X2293Y1795D02*
X2304Y1795D01*
X2250Y1794D02*
X2261Y1794D01*
X2293Y1794D02*
X2304Y1794D01*
X2250Y1793D02*
X2260Y1793D01*
X2294Y1793D02*
X2304Y1793D01*
X2250Y1792D02*
X2259Y1792D01*
X2295Y1792D02*
X2305Y1792D01*
X2249Y1791D02*
X2259Y1791D01*
X2296Y1791D02*
X2305Y1791D01*
X2249Y1790D02*
X2259Y1790D01*
X2296Y1790D02*
X2305Y1790D01*
X2249Y1789D02*
X2258Y1789D01*
X2296Y1789D02*
X2305Y1789D01*
X2249Y1788D02*
X2258Y1788D01*
X2296Y1788D02*
X2305Y1788D01*
X2249Y1787D02*
X2258Y1787D01*
X2296Y1787D02*
X2305Y1787D01*
X2249Y1786D02*
X2258Y1786D01*
X2296Y1786D02*
X2305Y1786D01*
X2249Y1785D02*
X2258Y1785D01*
X2296Y1785D02*
X2305Y1785D01*
X2249Y1784D02*
X2258Y1784D01*
X2296Y1784D02*
X2305Y1784D01*
X2249Y1783D02*
X2258Y1783D01*
X2296Y1783D02*
X2305Y1783D01*
X2249Y1782D02*
X2258Y1782D01*
X2296Y1782D02*
X2305Y1782D01*
X2249Y1781D02*
X2258Y1781D01*
X2296Y1781D02*
X2305Y1781D01*
X2249Y1780D02*
X2258Y1780D01*
X2296Y1780D02*
X2305Y1780D01*
X2249Y1779D02*
X2258Y1779D01*
X2296Y1779D02*
X2305Y1779D01*
X2249Y1778D02*
X2258Y1778D01*
X2296Y1778D02*
X2305Y1778D01*
X2249Y1777D02*
X2258Y1777D01*
X2296Y1777D02*
X2305Y1777D01*
X2249Y1776D02*
X2258Y1776D01*
X2296Y1776D02*
X2305Y1776D01*
X2249Y1775D02*
X2259Y1775D01*
X2296Y1775D02*
X2305Y1775D01*
X2249Y1774D02*
X2259Y1774D01*
X2295Y1774D02*
X2305Y1774D01*
X2250Y1773D02*
X2260Y1773D01*
X2295Y1773D02*
X2305Y1773D01*
X2250Y1772D02*
X2260Y1772D01*
X2294Y1772D02*
X2304Y1772D01*
X2250Y1771D02*
X2261Y1771D01*
X2293Y1771D02*
X2304Y1771D01*
X2251Y1770D02*
X2262Y1770D01*
X2292Y1770D02*
X2304Y1770D01*
X2251Y1769D02*
X2263Y1769D01*
X2291Y1769D02*
X2303Y1769D01*
X2252Y1768D02*
X2266Y1768D01*
X2289Y1768D02*
X2302Y1768D01*
X2253Y1767D02*
X2302Y1767D01*
X2254Y1766D02*
X2301Y1766D01*
X2254Y1765D02*
X2300Y1765D01*
X2255Y1764D02*
X2299Y1764D01*
X2256Y1763D02*
X2298Y1763D01*
X2257Y1762D02*
X2297Y1762D01*
X2258Y1761D02*
X2296Y1761D01*
X2260Y1760D02*
X2295Y1760D01*
X2262Y1759D02*
X2293Y1759D01*
X2266Y1758D02*
X2290Y1758D01*
X2254Y1736D02*
X2301Y1736D01*
X2251Y1735D02*
X2303Y1735D01*
X2250Y1734D02*
X2304Y1734D01*
X2250Y1733D02*
X2305Y1733D01*
X2249Y1732D02*
X2305Y1732D01*
X2249Y1731D02*
X2305Y1731D01*
X2249Y1730D02*
X2305Y1730D01*
X2250Y1729D02*
X2305Y1729D01*
X2251Y1728D02*
X2304Y1728D01*
X2252Y1727D02*
X2303Y1727D01*
X2253Y1726D02*
X2265Y1726D01*
X2252Y1725D02*
X2264Y1725D01*
X2251Y1724D02*
X2263Y1724D01*
X2251Y1723D02*
X2262Y1723D01*
X2250Y1722D02*
X2261Y1722D01*
X2250Y1721D02*
X2261Y1721D01*
X2250Y1720D02*
X2260Y1720D01*
X2249Y1719D02*
X2259Y1719D01*
X2249Y1718D02*
X2258Y1718D01*
X2249Y1717D02*
X2259Y1717D01*
X2249Y1716D02*
X2259Y1716D01*
X2250Y1715D02*
X2302Y1715D01*
X2250Y1714D02*
X2304Y1714D01*
X2250Y1713D02*
X2304Y1713D01*
X2251Y1712D02*
X2305Y1712D01*
X2251Y1711D02*
X2305Y1711D01*
X2252Y1710D02*
X2305Y1710D01*
X2253Y1709D02*
X2305Y1709D01*
X2254Y1708D02*
X2304Y1708D01*
X2253Y1707D02*
X2304Y1707D01*
X2252Y1706D02*
X2302Y1706D01*
X2252Y1705D02*
X2264Y1705D01*
X2251Y1704D02*
X2263Y1704D01*
X2251Y1703D02*
X2262Y1703D01*
X2250Y1702D02*
X2261Y1702D01*
X2250Y1701D02*
X2260Y1701D01*
X2250Y1700D02*
X2260Y1700D01*
X2250Y1699D02*
X2259Y1699D01*
X2250Y1698D02*
X2258Y1698D01*
X2250Y1697D02*
X2259Y1697D01*
X2250Y1696D02*
X2270Y1696D01*
X2250Y1695D02*
X2298Y1695D01*
X2250Y1694D02*
X2303Y1694D01*
X2251Y1693D02*
X2304Y1693D01*
X2251Y1692D02*
X2305Y1692D01*
X2252Y1691D02*
X2305Y1691D01*
X2253Y1690D02*
X2305Y1690D01*
X2254Y1689D02*
X2305Y1689D01*
X2255Y1688D02*
X2305Y1688D01*
X2257Y1687D02*
X2304Y1687D01*
X2270Y1686D02*
X2303Y1686D01*
X2297Y1685D02*
X2301Y1685D01*
X2263Y1663D02*
X2290Y1663D01*
X2257Y1662D02*
X2296Y1662D01*
X2255Y1661D02*
X2297Y1661D01*
X2253Y1660D02*
X2299Y1660D01*
X2252Y1659D02*
X2300Y1659D01*
X2250Y1658D02*
X2301Y1658D01*
X2249Y1657D02*
X2302Y1657D01*
X2248Y1656D02*
X2303Y1656D01*
X2247Y1655D02*
X2303Y1655D01*
X2245Y1654D02*
X2304Y1654D01*
X2244Y1653D02*
X2304Y1653D01*
X2243Y1652D02*
X2259Y1652D01*
X2294Y1652D02*
X2305Y1652D01*
X2241Y1651D02*
X2257Y1651D01*
X2295Y1651D02*
X2305Y1651D01*
X2240Y1650D02*
X2256Y1650D01*
X2295Y1650D02*
X2305Y1650D01*
X2239Y1649D02*
X2254Y1649D01*
X2296Y1649D02*
X2305Y1649D01*
X2237Y1648D02*
X2253Y1648D01*
X2296Y1648D02*
X2305Y1648D01*
X2236Y1647D02*
X2252Y1647D01*
X2296Y1647D02*
X2305Y1647D01*
X2235Y1646D02*
X2250Y1646D01*
X2296Y1646D02*
X2305Y1646D01*
X2234Y1645D02*
X2249Y1645D01*
X2296Y1645D02*
X2305Y1645D01*
X2233Y1644D02*
X2248Y1644D01*
X2296Y1644D02*
X2305Y1644D01*
X2232Y1643D02*
X2247Y1643D01*
X2296Y1643D02*
X2305Y1643D01*
X2231Y1642D02*
X2245Y1642D01*
X2296Y1642D02*
X2305Y1642D01*
X2230Y1641D02*
X2244Y1641D01*
X2296Y1641D02*
X2305Y1641D01*
X2230Y1640D02*
X2243Y1640D01*
X2296Y1640D02*
X2305Y1640D01*
X2229Y1639D02*
X2241Y1639D01*
X2296Y1639D02*
X2305Y1639D01*
X2229Y1638D02*
X2240Y1638D01*
X2274Y1638D02*
X2276Y1638D01*
X2296Y1638D02*
X2305Y1638D01*
X2229Y1637D02*
X2239Y1637D01*
X2272Y1637D02*
X2278Y1637D01*
X2296Y1637D02*
X2305Y1637D01*
X2228Y1636D02*
X2238Y1636D01*
X2271Y1636D02*
X2279Y1636D01*
X2296Y1636D02*
X2305Y1636D01*
X2228Y1635D02*
X2238Y1635D01*
X2271Y1635D02*
X2279Y1635D01*
X2296Y1635D02*
X2305Y1635D01*
X2228Y1634D02*
X2237Y1634D01*
X2271Y1634D02*
X2279Y1634D01*
X2296Y1634D02*
X2305Y1634D01*
X2228Y1633D02*
X2237Y1633D01*
X2271Y1633D02*
X2280Y1633D01*
X2296Y1633D02*
X2305Y1633D01*
X2228Y1632D02*
X2237Y1632D01*
X2270Y1632D02*
X2280Y1632D01*
X2296Y1632D02*
X2305Y1632D01*
X2228Y1631D02*
X2237Y1631D01*
X2270Y1631D02*
X2280Y1631D01*
X2296Y1631D02*
X2305Y1631D01*
X2228Y1630D02*
X2237Y1630D01*
X2270Y1630D02*
X2280Y1630D01*
X2296Y1630D02*
X2305Y1630D01*
X2228Y1629D02*
X2237Y1629D01*
X2270Y1629D02*
X2280Y1629D01*
X2296Y1629D02*
X2305Y1629D01*
X2228Y1628D02*
X2237Y1628D01*
X2270Y1628D02*
X2280Y1628D01*
X2296Y1628D02*
X2305Y1628D01*
X2228Y1627D02*
X2237Y1627D01*
X2270Y1627D02*
X2280Y1627D01*
X2296Y1627D02*
X2305Y1627D01*
X2228Y1626D02*
X2237Y1626D01*
X2270Y1626D02*
X2280Y1626D01*
X2295Y1626D02*
X2305Y1626D01*
X2228Y1625D02*
X2237Y1625D01*
X2270Y1625D02*
X2280Y1625D01*
X2295Y1625D02*
X2305Y1625D01*
X2228Y1624D02*
X2237Y1624D01*
X2270Y1624D02*
X2280Y1624D01*
X2293Y1624D02*
X2304Y1624D01*
X2228Y1623D02*
X2237Y1623D01*
X2270Y1623D02*
X2304Y1623D01*
X2228Y1622D02*
X2237Y1622D01*
X2270Y1622D02*
X2304Y1622D01*
X2228Y1621D02*
X2237Y1621D01*
X2270Y1621D02*
X2303Y1621D01*
X2228Y1620D02*
X2237Y1620D01*
X2270Y1620D02*
X2302Y1620D01*
X2228Y1619D02*
X2237Y1619D01*
X2270Y1619D02*
X2302Y1619D01*
X2228Y1618D02*
X2237Y1618D01*
X2270Y1618D02*
X2301Y1618D01*
X2228Y1617D02*
X2237Y1617D01*
X2270Y1617D02*
X2300Y1617D01*
X2229Y1616D02*
X2237Y1616D01*
X2270Y1616D02*
X2299Y1616D01*
X2229Y1615D02*
X2236Y1615D01*
X2270Y1615D02*
X2297Y1615D01*
X2231Y1614D02*
X2235Y1614D01*
X2270Y1614D02*
X2295Y1614D01*
X2252Y1590D02*
X2277Y1590D01*
X2251Y1589D02*
X2294Y1589D01*
X2250Y1588D02*
X2297Y1588D01*
X2250Y1587D02*
X2298Y1587D01*
X2249Y1586D02*
X2300Y1586D01*
X2249Y1585D02*
X2301Y1585D01*
X2250Y1584D02*
X2302Y1584D01*
X2250Y1583D02*
X2302Y1583D01*
X2251Y1582D02*
X2303Y1582D01*
X2253Y1581D02*
X2304Y1581D01*
X2276Y1580D02*
X2304Y1580D01*
X2293Y1579D02*
X2304Y1579D01*
X2294Y1578D02*
X2305Y1578D01*
X2295Y1577D02*
X2305Y1577D01*
X2296Y1576D02*
X2305Y1576D01*
X2296Y1575D02*
X2305Y1575D01*
X2296Y1574D02*
X2305Y1574D01*
X2296Y1573D02*
X2305Y1573D01*
X2296Y1572D02*
X2305Y1572D01*
X2296Y1571D02*
X2305Y1571D01*
X2296Y1570D02*
X2305Y1570D01*
X2296Y1569D02*
X2305Y1569D01*
X2296Y1568D02*
X2305Y1568D01*
X2296Y1567D02*
X2305Y1567D01*
X2295Y1566D02*
X2305Y1566D01*
X2294Y1565D02*
X2305Y1565D01*
X2294Y1564D02*
X2304Y1564D01*
X2293Y1563D02*
X2304Y1563D01*
X2293Y1562D02*
X2303Y1562D01*
X2292Y1561D02*
X2303Y1561D01*
X2291Y1560D02*
X2302Y1560D01*
X2291Y1559D02*
X2302Y1559D01*
X2290Y1558D02*
X2301Y1558D01*
X2289Y1557D02*
X2300Y1557D01*
X2289Y1556D02*
X2300Y1556D01*
X2288Y1555D02*
X2299Y1555D01*
X2287Y1554D02*
X2298Y1554D01*
X2287Y1553D02*
X2298Y1553D01*
X2286Y1552D02*
X2297Y1552D01*
X2254Y1551D02*
X2300Y1551D01*
X2251Y1550D02*
X2303Y1550D01*
X2250Y1549D02*
X2304Y1549D01*
X2250Y1548D02*
X2305Y1548D01*
X2249Y1547D02*
X2305Y1547D01*
X2249Y1546D02*
X2305Y1546D01*
X2250Y1545D02*
X2305Y1545D01*
X2250Y1544D02*
X2305Y1544D01*
X2250Y1543D02*
X2304Y1543D01*
X2251Y1542D02*
X2303Y1542D01*
X2254Y1541D02*
X2300Y1541D01*
X2282Y1518D02*
X2294Y1518D01*
X2279Y1517D02*
X2297Y1517D01*
X2277Y1516D02*
X2298Y1516D01*
X2276Y1515D02*
X2300Y1515D01*
X2275Y1514D02*
X2301Y1514D01*
X2274Y1513D02*
X2302Y1513D01*
X2273Y1512D02*
X2302Y1512D01*
X2273Y1511D02*
X2303Y1511D01*
X2272Y1510D02*
X2304Y1510D01*
X2272Y1509D02*
X2304Y1509D01*
X2252Y1508D02*
X2256Y1508D01*
X2271Y1508D02*
X2283Y1508D01*
X2293Y1508D02*
X2304Y1508D01*
X2251Y1507D02*
X2257Y1507D01*
X2271Y1507D02*
X2281Y1507D01*
X2294Y1507D02*
X2305Y1507D01*
X2250Y1506D02*
X2258Y1506D01*
X2271Y1506D02*
X2280Y1506D01*
X2295Y1506D02*
X2305Y1506D01*
X2250Y1505D02*
X2258Y1505D01*
X2271Y1505D02*
X2280Y1505D01*
X2296Y1505D02*
X2305Y1505D01*
X2249Y1504D02*
X2258Y1504D01*
X2271Y1504D02*
X2280Y1504D01*
X2296Y1504D02*
X2305Y1504D01*
X2249Y1503D02*
X2258Y1503D01*
X2270Y1503D02*
X2280Y1503D01*
X2296Y1503D02*
X2305Y1503D01*
X2249Y1502D02*
X2258Y1502D01*
X2270Y1502D02*
X2280Y1502D01*
X2296Y1502D02*
X2305Y1502D01*
X2249Y1501D02*
X2258Y1501D01*
X2270Y1501D02*
X2280Y1501D01*
X2296Y1501D02*
X2305Y1501D01*
X2249Y1500D02*
X2258Y1500D01*
X2270Y1500D02*
X2280Y1500D01*
X2296Y1500D02*
X2305Y1500D01*
X2249Y1499D02*
X2258Y1499D01*
X2270Y1499D02*
X2280Y1499D01*
X2296Y1499D02*
X2305Y1499D01*
X2249Y1498D02*
X2258Y1498D01*
X2270Y1498D02*
X2280Y1498D01*
X2296Y1498D02*
X2305Y1498D01*
X2249Y1497D02*
X2258Y1497D01*
X2270Y1497D02*
X2280Y1497D01*
X2296Y1497D02*
X2305Y1497D01*
X2249Y1496D02*
X2258Y1496D01*
X2270Y1496D02*
X2280Y1496D01*
X2296Y1496D02*
X2305Y1496D01*
X2249Y1495D02*
X2258Y1495D01*
X2270Y1495D02*
X2280Y1495D01*
X2296Y1495D02*
X2305Y1495D01*
X2249Y1494D02*
X2258Y1494D01*
X2270Y1494D02*
X2280Y1494D01*
X2296Y1494D02*
X2305Y1494D01*
X2249Y1493D02*
X2258Y1493D01*
X2270Y1493D02*
X2280Y1493D01*
X2296Y1493D02*
X2305Y1493D01*
X2249Y1492D02*
X2258Y1492D01*
X2270Y1492D02*
X2280Y1492D01*
X2296Y1492D02*
X2305Y1492D01*
X2249Y1491D02*
X2258Y1491D01*
X2270Y1491D02*
X2280Y1491D01*
X2296Y1491D02*
X2305Y1491D01*
X2249Y1490D02*
X2258Y1490D01*
X2270Y1490D02*
X2280Y1490D01*
X2296Y1490D02*
X2305Y1490D01*
X2249Y1489D02*
X2258Y1489D01*
X2270Y1489D02*
X2280Y1489D01*
X2295Y1489D02*
X2305Y1489D01*
X2249Y1488D02*
X2258Y1488D01*
X2270Y1488D02*
X2280Y1488D01*
X2295Y1488D02*
X2305Y1488D01*
X2249Y1487D02*
X2258Y1487D01*
X2270Y1487D02*
X2280Y1487D01*
X2294Y1487D02*
X2305Y1487D01*
X2249Y1486D02*
X2258Y1486D01*
X2270Y1486D02*
X2280Y1486D01*
X2294Y1486D02*
X2304Y1486D01*
X2249Y1485D02*
X2258Y1485D01*
X2270Y1485D02*
X2280Y1485D01*
X2293Y1485D02*
X2304Y1485D01*
X2249Y1484D02*
X2259Y1484D01*
X2271Y1484D02*
X2280Y1484D01*
X2292Y1484D02*
X2303Y1484D01*
X2249Y1483D02*
X2259Y1483D01*
X2271Y1483D02*
X2280Y1483D01*
X2292Y1483D02*
X2303Y1483D01*
X2250Y1482D02*
X2259Y1482D01*
X2271Y1482D02*
X2280Y1482D01*
X2291Y1482D02*
X2302Y1482D01*
X2250Y1481D02*
X2261Y1481D01*
X2271Y1481D02*
X2281Y1481D01*
X2291Y1481D02*
X2301Y1481D01*
X2250Y1480D02*
X2265Y1480D01*
X2271Y1480D02*
X2282Y1480D01*
X2290Y1480D02*
X2301Y1480D01*
X2251Y1479D02*
X2300Y1479D01*
X2251Y1478D02*
X2303Y1478D01*
X2252Y1477D02*
X2304Y1477D01*
X2252Y1476D02*
X2305Y1476D01*
X2253Y1475D02*
X2305Y1475D01*
X2254Y1474D02*
X2305Y1474D01*
X2255Y1473D02*
X2305Y1473D01*
X2257Y1472D02*
X2305Y1472D01*
X2259Y1471D02*
X2304Y1471D01*
X2264Y1470D02*
X2303Y1470D01*
X2291Y1469D02*
X2302Y1469D01*
X2253Y1446D02*
X2301Y1446D01*
X2251Y1445D02*
X2303Y1445D01*
X2250Y1444D02*
X2304Y1444D01*
X2250Y1443D02*
X2305Y1443D01*
X2249Y1442D02*
X2305Y1442D01*
X2249Y1441D02*
X2305Y1441D01*
X2250Y1440D02*
X2305Y1440D01*
X2250Y1439D02*
X2305Y1439D01*
X2251Y1438D02*
X2304Y1438D01*
X2252Y1437D02*
X2303Y1437D01*
X2260Y1436D02*
X2273Y1436D01*
X2259Y1435D02*
X2272Y1435D01*
X2259Y1434D02*
X2271Y1434D01*
X2258Y1433D02*
X2270Y1433D01*
X2257Y1432D02*
X2269Y1432D01*
X2256Y1431D02*
X2268Y1431D01*
X2255Y1430D02*
X2267Y1430D01*
X2254Y1429D02*
X2267Y1429D01*
X2253Y1428D02*
X2266Y1428D01*
X2253Y1427D02*
X2265Y1427D01*
X2252Y1426D02*
X2264Y1426D01*
X2251Y1425D02*
X2263Y1425D01*
X2250Y1424D02*
X2262Y1424D01*
X2250Y1423D02*
X2261Y1423D01*
X2249Y1422D02*
X2261Y1422D01*
X2249Y1421D02*
X2260Y1421D01*
X2249Y1420D02*
X2259Y1420D01*
X2249Y1419D02*
X2258Y1419D01*
X2249Y1418D02*
X2258Y1418D01*
X2249Y1417D02*
X2258Y1417D01*
X2249Y1416D02*
X2258Y1416D01*
X2249Y1415D02*
X2258Y1415D01*
X2249Y1414D02*
X2258Y1414D01*
X2249Y1413D02*
X2258Y1413D01*
X2249Y1412D02*
X2258Y1412D01*
X2249Y1411D02*
X2258Y1411D01*
X2249Y1410D02*
X2259Y1410D01*
X2250Y1409D02*
X2259Y1409D01*
X2250Y1408D02*
X2260Y1408D01*
X2250Y1407D02*
X2261Y1407D01*
X2250Y1406D02*
X2268Y1406D01*
X2251Y1405D02*
X2270Y1405D01*
X2251Y1404D02*
X2270Y1404D01*
X2252Y1403D02*
X2271Y1403D01*
X2253Y1402D02*
X2271Y1402D01*
X2254Y1401D02*
X2271Y1401D01*
X2255Y1400D02*
X2271Y1400D01*
X2256Y1399D02*
X2270Y1399D01*
X2258Y1398D02*
X2270Y1398D01*
X2260Y1397D02*
X2268Y1397D01*
X2262Y1373D02*
X2292Y1373D01*
X2260Y1372D02*
X2294Y1372D01*
X2259Y1371D02*
X2296Y1371D01*
X2258Y1370D02*
X2297Y1370D01*
X2256Y1369D02*
X2298Y1369D01*
X2256Y1368D02*
X2299Y1368D01*
X2255Y1367D02*
X2300Y1367D01*
X2254Y1366D02*
X2301Y1366D01*
X2253Y1365D02*
X2302Y1365D01*
X2252Y1364D02*
X2302Y1364D01*
X2251Y1363D02*
X2264Y1363D01*
X2291Y1363D02*
X2303Y1363D01*
X2251Y1362D02*
X2263Y1362D01*
X2292Y1362D02*
X2304Y1362D01*
X2250Y1361D02*
X2262Y1361D01*
X2293Y1361D02*
X2304Y1361D01*
X2250Y1360D02*
X2261Y1360D01*
X2294Y1360D02*
X2304Y1360D01*
X2250Y1359D02*
X2260Y1359D01*
X2294Y1359D02*
X2305Y1359D01*
X2250Y1358D02*
X2259Y1358D01*
X2295Y1358D02*
X2305Y1358D01*
X2249Y1357D02*
X2259Y1357D01*
X2296Y1357D02*
X2305Y1357D01*
X2249Y1356D02*
X2258Y1356D01*
X2296Y1356D02*
X2305Y1356D01*
X2249Y1355D02*
X2258Y1355D01*
X2296Y1355D02*
X2305Y1355D01*
X2249Y1354D02*
X2258Y1354D01*
X2296Y1354D02*
X2305Y1354D01*
X2249Y1353D02*
X2258Y1353D01*
X2296Y1353D02*
X2305Y1353D01*
X2249Y1352D02*
X2258Y1352D01*
X2296Y1352D02*
X2305Y1352D01*
X2249Y1351D02*
X2258Y1351D01*
X2296Y1351D02*
X2305Y1351D01*
X2249Y1350D02*
X2258Y1350D01*
X2296Y1350D02*
X2305Y1350D01*
X2249Y1349D02*
X2258Y1349D01*
X2296Y1349D02*
X2305Y1349D01*
X2249Y1348D02*
X2258Y1348D01*
X2296Y1348D02*
X2305Y1348D01*
X2249Y1347D02*
X2259Y1347D01*
X2296Y1347D02*
X2305Y1347D01*
X2249Y1346D02*
X2259Y1346D01*
X2296Y1346D02*
X2305Y1346D01*
X2250Y1345D02*
X2259Y1345D01*
X2295Y1345D02*
X2305Y1345D01*
X2250Y1344D02*
X2260Y1344D01*
X2294Y1344D02*
X2305Y1344D01*
X2250Y1343D02*
X2261Y1343D01*
X2293Y1343D02*
X2304Y1343D01*
X2250Y1342D02*
X2262Y1342D01*
X2293Y1342D02*
X2304Y1342D01*
X2251Y1341D02*
X2263Y1341D01*
X2292Y1341D02*
X2304Y1341D01*
X2252Y1340D02*
X2264Y1340D01*
X2291Y1340D02*
X2303Y1340D01*
X2252Y1339D02*
X2264Y1339D01*
X2290Y1339D02*
X2302Y1339D01*
X2253Y1338D02*
X2265Y1338D01*
X2289Y1338D02*
X2302Y1338D01*
X2254Y1337D02*
X2266Y1337D01*
X2288Y1337D02*
X2301Y1337D01*
X2255Y1336D02*
X2267Y1336D01*
X2287Y1336D02*
X2300Y1336D01*
X2256Y1335D02*
X2268Y1335D01*
X2286Y1335D02*
X2299Y1335D01*
X2232Y1334D02*
X2301Y1334D01*
X2230Y1333D02*
X2303Y1333D01*
X2229Y1332D02*
X2304Y1332D01*
X2228Y1331D02*
X2305Y1331D01*
X2228Y1330D02*
X2305Y1330D01*
X2228Y1329D02*
X2305Y1329D01*
X2228Y1328D02*
X2305Y1328D01*
X2229Y1327D02*
X2305Y1327D01*
X2229Y1326D02*
X2304Y1326D01*
X2230Y1325D02*
X2303Y1325D01*
X2253Y1229D02*
X2264Y1229D01*
X2251Y1228D02*
X2266Y1228D01*
X2250Y1227D02*
X2268Y1227D01*
X2250Y1226D02*
X2271Y1226D01*
X2249Y1225D02*
X2273Y1225D01*
X2249Y1224D02*
X2275Y1224D01*
X2250Y1223D02*
X2277Y1223D01*
X2250Y1222D02*
X2280Y1222D01*
X2251Y1221D02*
X2282Y1221D01*
X2252Y1220D02*
X2284Y1220D01*
X2262Y1219D02*
X2287Y1219D01*
X2265Y1218D02*
X2289Y1218D01*
X2267Y1217D02*
X2291Y1217D01*
X2269Y1216D02*
X2293Y1216D01*
X2272Y1215D02*
X2296Y1215D01*
X2274Y1214D02*
X2298Y1214D01*
X2276Y1213D02*
X2300Y1213D01*
X2278Y1212D02*
X2302Y1212D01*
X2281Y1211D02*
X2304Y1211D01*
X2283Y1210D02*
X2305Y1210D01*
X2285Y1209D02*
X2305Y1209D01*
X2288Y1208D02*
X2305Y1208D01*
X2290Y1207D02*
X2305Y1207D01*
X2292Y1206D02*
X2305Y1206D01*
X2295Y1205D02*
X2305Y1205D01*
X2295Y1204D02*
X2305Y1204D01*
X2292Y1203D02*
X2305Y1203D01*
X2290Y1202D02*
X2305Y1202D01*
X2288Y1201D02*
X2305Y1201D01*
X2285Y1200D02*
X2305Y1200D01*
X2283Y1199D02*
X2305Y1199D01*
X2281Y1198D02*
X2304Y1198D01*
X2279Y1197D02*
X2303Y1197D01*
X2276Y1196D02*
X2300Y1196D01*
X2274Y1195D02*
X2298Y1195D01*
X2272Y1194D02*
X2296Y1194D01*
X2269Y1193D02*
X2294Y1193D01*
X2267Y1192D02*
X2291Y1192D01*
X2265Y1191D02*
X2289Y1191D01*
X2263Y1190D02*
X2287Y1190D01*
X2252Y1189D02*
X2284Y1189D01*
X2251Y1188D02*
X2282Y1188D01*
X2250Y1187D02*
X2280Y1187D01*
X2250Y1186D02*
X2278Y1186D01*
X2249Y1185D02*
X2275Y1185D01*
X2249Y1184D02*
X2273Y1184D01*
X2250Y1183D02*
X2271Y1183D01*
X2250Y1182D02*
X2268Y1182D01*
X2251Y1181D02*
X2266Y1181D01*
X2252Y1180D02*
X2264Y1180D01*
X2294Y1156D02*
X2299Y1156D01*
X2293Y1155D02*
X2300Y1155D01*
X2292Y1154D02*
X2301Y1154D01*
X2292Y1153D02*
X2301Y1153D01*
X2292Y1152D02*
X2301Y1152D01*
X2292Y1151D02*
X2302Y1151D01*
X2292Y1150D02*
X2302Y1150D01*
X2293Y1149D02*
X2303Y1149D01*
X2293Y1148D02*
X2303Y1148D01*
X2228Y1147D02*
X2271Y1147D01*
X2293Y1147D02*
X2304Y1147D01*
X2228Y1146D02*
X2271Y1146D01*
X2294Y1146D02*
X2304Y1146D01*
X2228Y1145D02*
X2271Y1145D01*
X2294Y1145D02*
X2304Y1145D01*
X2228Y1144D02*
X2271Y1144D01*
X2295Y1144D02*
X2305Y1144D01*
X2228Y1143D02*
X2271Y1143D01*
X2295Y1143D02*
X2305Y1143D01*
X2228Y1142D02*
X2271Y1142D01*
X2296Y1142D02*
X2305Y1142D01*
X2228Y1141D02*
X2271Y1141D01*
X2296Y1141D02*
X2305Y1141D01*
X2228Y1140D02*
X2271Y1140D01*
X2296Y1140D02*
X2305Y1140D01*
X2228Y1139D02*
X2271Y1139D01*
X2296Y1139D02*
X2305Y1139D01*
X2228Y1138D02*
X2271Y1138D01*
X2296Y1138D02*
X2305Y1138D01*
X2228Y1137D02*
X2238Y1137D01*
X2262Y1137D02*
X2271Y1137D01*
X2296Y1137D02*
X2305Y1137D01*
X2228Y1136D02*
X2237Y1136D01*
X2262Y1136D02*
X2271Y1136D01*
X2296Y1136D02*
X2305Y1136D01*
X2228Y1135D02*
X2237Y1135D01*
X2262Y1135D02*
X2271Y1135D01*
X2296Y1135D02*
X2305Y1135D01*
X2228Y1134D02*
X2237Y1134D01*
X2262Y1134D02*
X2271Y1134D01*
X2296Y1134D02*
X2305Y1134D01*
X2228Y1133D02*
X2237Y1133D01*
X2262Y1133D02*
X2271Y1133D01*
X2296Y1133D02*
X2305Y1133D01*
X2228Y1132D02*
X2237Y1132D01*
X2262Y1132D02*
X2271Y1132D01*
X2296Y1132D02*
X2305Y1132D01*
X2228Y1131D02*
X2237Y1131D01*
X2262Y1131D02*
X2271Y1131D01*
X2296Y1131D02*
X2305Y1131D01*
X2228Y1130D02*
X2237Y1130D01*
X2262Y1130D02*
X2271Y1130D01*
X2296Y1130D02*
X2305Y1130D01*
X2228Y1129D02*
X2237Y1129D01*
X2262Y1129D02*
X2271Y1129D01*
X2296Y1129D02*
X2305Y1129D01*
X2228Y1128D02*
X2237Y1128D01*
X2262Y1128D02*
X2271Y1128D01*
X2296Y1128D02*
X2305Y1128D01*
X2228Y1127D02*
X2237Y1127D01*
X2262Y1127D02*
X2271Y1127D01*
X2296Y1127D02*
X2305Y1127D01*
X2228Y1126D02*
X2237Y1126D01*
X2262Y1126D02*
X2271Y1126D01*
X2296Y1126D02*
X2305Y1126D01*
X2228Y1125D02*
X2237Y1125D01*
X2262Y1125D02*
X2271Y1125D01*
X2296Y1125D02*
X2305Y1125D01*
X2228Y1124D02*
X2237Y1124D01*
X2262Y1124D02*
X2271Y1124D01*
X2296Y1124D02*
X2305Y1124D01*
X2228Y1123D02*
X2237Y1123D01*
X2262Y1123D02*
X2271Y1123D01*
X2296Y1123D02*
X2305Y1123D01*
X2228Y1122D02*
X2237Y1122D01*
X2262Y1122D02*
X2271Y1122D01*
X2296Y1122D02*
X2305Y1122D01*
X2228Y1121D02*
X2237Y1121D01*
X2262Y1121D02*
X2271Y1121D01*
X2296Y1121D02*
X2305Y1121D01*
X2228Y1120D02*
X2237Y1120D01*
X2262Y1120D02*
X2271Y1120D01*
X2296Y1120D02*
X2305Y1120D01*
X2228Y1119D02*
X2237Y1119D01*
X2262Y1119D02*
X2271Y1119D01*
X2296Y1119D02*
X2305Y1119D01*
X2228Y1118D02*
X2237Y1118D01*
X2262Y1118D02*
X2271Y1118D01*
X2296Y1118D02*
X2305Y1118D01*
X2228Y1117D02*
X2237Y1117D01*
X2262Y1117D02*
X2305Y1117D01*
X2228Y1116D02*
X2237Y1116D01*
X2262Y1116D02*
X2305Y1116D01*
X2228Y1115D02*
X2237Y1115D01*
X2262Y1115D02*
X2305Y1115D01*
X2228Y1114D02*
X2237Y1114D01*
X2263Y1114D02*
X2304Y1114D01*
X2228Y1113D02*
X2237Y1113D01*
X2263Y1113D02*
X2304Y1113D01*
X2228Y1112D02*
X2237Y1112D01*
X2264Y1112D02*
X2303Y1112D01*
X2228Y1111D02*
X2237Y1111D01*
X2264Y1111D02*
X2303Y1111D01*
X2229Y1110D02*
X2237Y1110D01*
X2265Y1110D02*
X2302Y1110D01*
X2229Y1109D02*
X2236Y1109D01*
X2267Y1109D02*
X2301Y1109D01*
X2231Y1108D02*
X2235Y1108D01*
X2268Y1108D02*
X2299Y1108D01*
X2231Y1012D02*
X2234Y1012D01*
X2269Y1012D02*
X2305Y1012D01*
X2230Y1011D02*
X2236Y1011D01*
X2267Y1011D02*
X2305Y1011D01*
X2229Y1010D02*
X2236Y1010D01*
X2266Y1010D02*
X2305Y1010D01*
X2228Y1009D02*
X2237Y1009D01*
X2265Y1009D02*
X2305Y1009D01*
X2228Y1008D02*
X2237Y1008D01*
X2264Y1008D02*
X2305Y1008D01*
X2228Y1007D02*
X2237Y1007D01*
X2263Y1007D02*
X2305Y1007D01*
X2228Y1006D02*
X2237Y1006D01*
X2263Y1006D02*
X2305Y1006D01*
X2228Y1005D02*
X2237Y1005D01*
X2262Y1005D02*
X2305Y1005D01*
X2228Y1004D02*
X2237Y1004D01*
X2262Y1004D02*
X2305Y1004D01*
X2228Y1003D02*
X2237Y1003D01*
X2262Y1003D02*
X2305Y1003D01*
X2228Y1002D02*
X2237Y1002D01*
X2262Y1002D02*
X2271Y1002D01*
X2296Y1002D02*
X2305Y1002D01*
X2228Y1001D02*
X2237Y1001D01*
X2262Y1001D02*
X2271Y1001D01*
X2296Y1001D02*
X2305Y1001D01*
X2228Y1000D02*
X2237Y1000D01*
X2262Y1000D02*
X2271Y1000D01*
X2296Y1000D02*
X2305Y1000D01*
X2228Y999D02*
X2237Y999D01*
X2262Y999D02*
X2271Y999D01*
X2296Y999D02*
X2305Y999D01*
X2228Y998D02*
X2237Y998D01*
X2262Y998D02*
X2271Y998D01*
X2296Y998D02*
X2305Y998D01*
X2228Y997D02*
X2237Y997D01*
X2262Y997D02*
X2271Y997D01*
X2296Y997D02*
X2305Y997D01*
X2228Y996D02*
X2237Y996D01*
X2262Y996D02*
X2271Y996D01*
X2296Y996D02*
X2305Y996D01*
X2228Y995D02*
X2237Y995D01*
X2262Y995D02*
X2271Y995D01*
X2296Y995D02*
X2305Y995D01*
X2228Y994D02*
X2237Y994D01*
X2262Y994D02*
X2271Y994D01*
X2296Y994D02*
X2305Y994D01*
X2228Y993D02*
X2237Y993D01*
X2262Y993D02*
X2271Y993D01*
X2296Y993D02*
X2305Y993D01*
X2228Y992D02*
X2237Y992D01*
X2262Y992D02*
X2271Y992D01*
X2296Y992D02*
X2305Y992D01*
X2228Y991D02*
X2237Y991D01*
X2262Y991D02*
X2271Y991D01*
X2296Y991D02*
X2305Y991D01*
X2228Y990D02*
X2237Y990D01*
X2262Y990D02*
X2271Y990D01*
X2296Y990D02*
X2305Y990D01*
X2228Y989D02*
X2237Y989D01*
X2262Y989D02*
X2271Y989D01*
X2296Y989D02*
X2305Y989D01*
X2228Y988D02*
X2237Y988D01*
X2262Y988D02*
X2271Y988D01*
X2296Y988D02*
X2305Y988D01*
X2228Y987D02*
X2237Y987D01*
X2262Y987D02*
X2271Y987D01*
X2296Y987D02*
X2305Y987D01*
X2228Y986D02*
X2237Y986D01*
X2262Y986D02*
X2271Y986D01*
X2296Y986D02*
X2305Y986D01*
X2228Y985D02*
X2237Y985D01*
X2262Y985D02*
X2271Y985D01*
X2296Y985D02*
X2305Y985D01*
X2228Y984D02*
X2237Y984D01*
X2262Y984D02*
X2271Y984D01*
X2296Y984D02*
X2305Y984D01*
X2228Y983D02*
X2237Y983D01*
X2262Y983D02*
X2271Y983D01*
X2296Y983D02*
X2305Y983D01*
X2228Y982D02*
X2237Y982D01*
X2262Y982D02*
X2271Y982D01*
X2296Y982D02*
X2305Y982D01*
X2228Y981D02*
X2237Y981D01*
X2262Y981D02*
X2271Y981D01*
X2296Y981D02*
X2305Y981D01*
X2228Y980D02*
X2237Y980D01*
X2262Y980D02*
X2271Y980D01*
X2296Y980D02*
X2305Y980D01*
X2228Y979D02*
X2237Y979D01*
X2262Y979D02*
X2271Y979D01*
X2296Y979D02*
X2305Y979D01*
X2228Y978D02*
X2237Y978D01*
X2262Y978D02*
X2271Y978D01*
X2296Y978D02*
X2305Y978D01*
X2228Y977D02*
X2237Y977D01*
X2262Y977D02*
X2271Y977D01*
X2296Y977D02*
X2305Y977D01*
X2228Y976D02*
X2237Y976D01*
X2262Y976D02*
X2271Y976D01*
X2296Y976D02*
X2305Y976D01*
X2228Y975D02*
X2237Y975D01*
X2262Y975D02*
X2271Y975D01*
X2296Y975D02*
X2305Y975D01*
X2228Y974D02*
X2237Y974D01*
X2262Y974D02*
X2271Y974D01*
X2296Y974D02*
X2305Y974D01*
X2228Y973D02*
X2237Y973D01*
X2262Y973D02*
X2271Y973D01*
X2296Y973D02*
X2305Y973D01*
X2228Y972D02*
X2271Y972D01*
X2296Y972D02*
X2305Y972D01*
X2228Y971D02*
X2271Y971D01*
X2296Y971D02*
X2305Y971D01*
X2229Y970D02*
X2271Y970D01*
X2296Y970D02*
X2305Y970D01*
X2229Y969D02*
X2270Y969D01*
X2296Y969D02*
X2305Y969D01*
X2229Y968D02*
X2270Y968D01*
X2296Y968D02*
X2305Y968D01*
X2230Y967D02*
X2269Y967D01*
X2296Y967D02*
X2305Y967D01*
X2231Y966D02*
X2268Y966D01*
X2296Y966D02*
X2305Y966D01*
X2232Y965D02*
X2267Y965D01*
X2297Y965D02*
X2304Y965D01*
X2233Y964D02*
X2266Y964D01*
X2298Y964D02*
X2303Y964D01*
X2236Y963D02*
X2264Y963D01*
X2299Y963D02*
X2302Y963D01*
X2236Y940D02*
X2297Y940D01*
X2234Y939D02*
X2300Y939D01*
X2232Y938D02*
X2301Y938D01*
X2231Y937D02*
X2302Y937D01*
X2230Y936D02*
X2303Y936D01*
X2229Y935D02*
X2304Y935D01*
X2229Y934D02*
X2304Y934D01*
X2229Y933D02*
X2305Y933D01*
X2228Y932D02*
X2305Y932D01*
X2228Y931D02*
X2305Y931D01*
X2228Y930D02*
X2238Y930D01*
X2296Y930D02*
X2305Y930D01*
X2228Y929D02*
X2237Y929D01*
X2296Y929D02*
X2305Y929D01*
X2228Y928D02*
X2237Y928D01*
X2296Y928D02*
X2305Y928D01*
X2228Y927D02*
X2237Y927D01*
X2296Y927D02*
X2305Y927D01*
X2228Y926D02*
X2237Y926D01*
X2296Y926D02*
X2305Y926D01*
X2228Y925D02*
X2237Y925D01*
X2296Y925D02*
X2305Y925D01*
X2228Y924D02*
X2237Y924D01*
X2296Y924D02*
X2305Y924D01*
X2228Y923D02*
X2237Y923D01*
X2296Y923D02*
X2305Y923D01*
X2228Y922D02*
X2237Y922D01*
X2296Y922D02*
X2305Y922D01*
X2228Y921D02*
X2237Y921D01*
X2296Y921D02*
X2305Y921D01*
X2228Y920D02*
X2237Y920D01*
X2296Y920D02*
X2305Y920D01*
X2228Y919D02*
X2237Y919D01*
X2296Y919D02*
X2305Y919D01*
X2228Y918D02*
X2237Y918D01*
X2296Y918D02*
X2305Y918D01*
X2228Y917D02*
X2237Y917D01*
X2296Y917D02*
X2305Y917D01*
X2228Y916D02*
X2237Y916D01*
X2296Y916D02*
X2305Y916D01*
X2228Y915D02*
X2237Y915D01*
X2296Y915D02*
X2305Y915D01*
X2228Y914D02*
X2237Y914D01*
X2296Y914D02*
X2305Y914D01*
X2228Y913D02*
X2237Y913D01*
X2296Y913D02*
X2305Y913D01*
X2228Y912D02*
X2237Y912D01*
X2296Y912D02*
X2305Y912D01*
X2228Y911D02*
X2237Y911D01*
X2296Y911D02*
X2305Y911D01*
X2228Y910D02*
X2237Y910D01*
X2296Y910D02*
X2305Y910D01*
X2228Y909D02*
X2237Y909D01*
X2296Y909D02*
X2305Y909D01*
X2228Y908D02*
X2237Y908D01*
X2296Y908D02*
X2305Y908D01*
X2228Y907D02*
X2237Y907D01*
X2296Y907D02*
X2305Y907D01*
X2228Y906D02*
X2237Y906D01*
X2296Y906D02*
X2305Y906D01*
X2228Y905D02*
X2237Y905D01*
X2296Y905D02*
X2305Y905D01*
X2228Y904D02*
X2237Y904D01*
X2296Y904D02*
X2305Y904D01*
X2228Y903D02*
X2237Y903D01*
X2296Y903D02*
X2305Y903D01*
X2228Y902D02*
X2237Y902D01*
X2296Y902D02*
X2305Y902D01*
X2228Y901D02*
X2237Y901D01*
X2296Y901D02*
X2305Y901D01*
X2228Y900D02*
X2305Y900D01*
X2228Y899D02*
X2305Y899D01*
X2228Y898D02*
X2305Y898D01*
X2229Y897D02*
X2304Y897D01*
X2229Y896D02*
X2304Y896D01*
X2230Y895D02*
X2303Y895D01*
X2231Y894D02*
X2303Y894D01*
X2232Y893D02*
X2302Y893D01*
X2233Y892D02*
X2300Y892D01*
X2235Y891D02*
X2298Y891D01*
X2230Y867D02*
X2235Y867D01*
X2268Y867D02*
X2305Y867D01*
X2229Y866D02*
X2236Y866D01*
X2266Y866D02*
X2305Y866D01*
X2229Y865D02*
X2237Y865D01*
X2265Y865D02*
X2305Y865D01*
X2228Y864D02*
X2237Y864D01*
X2264Y864D02*
X2305Y864D01*
X2228Y863D02*
X2237Y863D01*
X2264Y863D02*
X2305Y863D01*
X2228Y862D02*
X2237Y862D01*
X2263Y862D02*
X2305Y862D01*
X2228Y861D02*
X2237Y861D01*
X2263Y861D02*
X2305Y861D01*
X2228Y860D02*
X2237Y860D01*
X2262Y860D02*
X2305Y860D01*
X2228Y859D02*
X2237Y859D01*
X2262Y859D02*
X2305Y859D01*
X2228Y858D02*
X2237Y858D01*
X2262Y858D02*
X2305Y858D01*
X2228Y857D02*
X2237Y857D01*
X2262Y857D02*
X2271Y857D01*
X2296Y857D02*
X2305Y857D01*
X2228Y856D02*
X2237Y856D01*
X2262Y856D02*
X2271Y856D01*
X2296Y856D02*
X2305Y856D01*
X2228Y855D02*
X2237Y855D01*
X2262Y855D02*
X2271Y855D01*
X2296Y855D02*
X2305Y855D01*
X2228Y854D02*
X2237Y854D01*
X2262Y854D02*
X2271Y854D01*
X2296Y854D02*
X2305Y854D01*
X2228Y853D02*
X2237Y853D01*
X2262Y853D02*
X2271Y853D01*
X2296Y853D02*
X2305Y853D01*
X2228Y852D02*
X2237Y852D01*
X2262Y852D02*
X2271Y852D01*
X2296Y852D02*
X2305Y852D01*
X2228Y851D02*
X2237Y851D01*
X2262Y851D02*
X2271Y851D01*
X2296Y851D02*
X2305Y851D01*
X2228Y850D02*
X2237Y850D01*
X2262Y850D02*
X2271Y850D01*
X2296Y850D02*
X2305Y850D01*
X2228Y849D02*
X2237Y849D01*
X2262Y849D02*
X2271Y849D01*
X2296Y849D02*
X2305Y849D01*
X2228Y848D02*
X2237Y848D01*
X2262Y848D02*
X2271Y848D01*
X2296Y848D02*
X2305Y848D01*
X2228Y847D02*
X2237Y847D01*
X2262Y847D02*
X2271Y847D01*
X2296Y847D02*
X2305Y847D01*
X2228Y846D02*
X2237Y846D01*
X2262Y846D02*
X2271Y846D01*
X2296Y846D02*
X2305Y846D01*
X2228Y845D02*
X2237Y845D01*
X2262Y845D02*
X2271Y845D01*
X2296Y845D02*
X2305Y845D01*
X2228Y844D02*
X2237Y844D01*
X2262Y844D02*
X2271Y844D01*
X2296Y844D02*
X2305Y844D01*
X2228Y843D02*
X2237Y843D01*
X2262Y843D02*
X2271Y843D01*
X2296Y843D02*
X2305Y843D01*
X2228Y842D02*
X2237Y842D01*
X2262Y842D02*
X2271Y842D01*
X2296Y842D02*
X2305Y842D01*
X2228Y841D02*
X2237Y841D01*
X2262Y841D02*
X2271Y841D01*
X2296Y841D02*
X2305Y841D01*
X2228Y840D02*
X2237Y840D01*
X2262Y840D02*
X2271Y840D01*
X2296Y840D02*
X2305Y840D01*
X2228Y839D02*
X2237Y839D01*
X2262Y839D02*
X2271Y839D01*
X2296Y839D02*
X2305Y839D01*
X2228Y838D02*
X2237Y838D01*
X2262Y838D02*
X2271Y838D01*
X2296Y838D02*
X2305Y838D01*
X2228Y837D02*
X2237Y837D01*
X2262Y837D02*
X2271Y837D01*
X2296Y837D02*
X2305Y837D01*
X2228Y836D02*
X2237Y836D01*
X2262Y836D02*
X2271Y836D01*
X2296Y836D02*
X2305Y836D01*
X2228Y835D02*
X2237Y835D01*
X2262Y835D02*
X2271Y835D01*
X2296Y835D02*
X2305Y835D01*
X2228Y834D02*
X2237Y834D01*
X2262Y834D02*
X2271Y834D01*
X2296Y834D02*
X2305Y834D01*
X2228Y833D02*
X2237Y833D01*
X2262Y833D02*
X2271Y833D01*
X2296Y833D02*
X2305Y833D01*
X2228Y832D02*
X2237Y832D01*
X2262Y832D02*
X2271Y832D01*
X2296Y832D02*
X2305Y832D01*
X2228Y831D02*
X2237Y831D01*
X2262Y831D02*
X2271Y831D01*
X2296Y831D02*
X2305Y831D01*
X2228Y830D02*
X2237Y830D01*
X2262Y830D02*
X2271Y830D01*
X2296Y830D02*
X2305Y830D01*
X2228Y829D02*
X2237Y829D01*
X2262Y829D02*
X2271Y829D01*
X2296Y829D02*
X2305Y829D01*
X2228Y828D02*
X2271Y828D01*
X2296Y828D02*
X2305Y828D01*
X2228Y827D02*
X2271Y827D01*
X2296Y827D02*
X2305Y827D01*
X2228Y826D02*
X2271Y826D01*
X2296Y826D02*
X2305Y826D01*
X2229Y825D02*
X2271Y825D01*
X2296Y825D02*
X2305Y825D01*
X2229Y824D02*
X2270Y824D01*
X2296Y824D02*
X2305Y824D01*
X2230Y823D02*
X2270Y823D01*
X2296Y823D02*
X2305Y823D01*
X2230Y822D02*
X2269Y822D01*
X2296Y822D02*
X2305Y822D01*
X2231Y821D02*
X2268Y821D01*
X2297Y821D02*
X2305Y821D01*
X2232Y820D02*
X2267Y820D01*
X2297Y820D02*
X2304Y820D01*
X2234Y819D02*
X2265Y819D01*
X2298Y819D02*
X2303Y819D01*
X2231Y795D02*
X2234Y795D01*
X2299Y795D02*
X2302Y795D01*
X2230Y794D02*
X2236Y794D01*
X2297Y794D02*
X2304Y794D01*
X2229Y793D02*
X2236Y793D01*
X2297Y793D02*
X2304Y793D01*
X2228Y792D02*
X2237Y792D01*
X2296Y792D02*
X2305Y792D01*
X2228Y791D02*
X2237Y791D01*
X2296Y791D02*
X2305Y791D01*
X2228Y790D02*
X2237Y790D01*
X2296Y790D02*
X2305Y790D01*
X2228Y789D02*
X2237Y789D01*
X2296Y789D02*
X2305Y789D01*
X2228Y788D02*
X2237Y788D01*
X2296Y788D02*
X2305Y788D01*
X2228Y787D02*
X2237Y787D01*
X2296Y787D02*
X2305Y787D01*
X2228Y786D02*
X2237Y786D01*
X2296Y786D02*
X2305Y786D01*
X2228Y785D02*
X2237Y785D01*
X2265Y785D02*
X2269Y785D01*
X2296Y785D02*
X2305Y785D01*
X2228Y784D02*
X2237Y784D01*
X2263Y784D02*
X2270Y784D01*
X2296Y784D02*
X2305Y784D01*
X2228Y783D02*
X2237Y783D01*
X2263Y783D02*
X2270Y783D01*
X2296Y783D02*
X2305Y783D01*
X2228Y782D02*
X2237Y782D01*
X2262Y782D02*
X2271Y782D01*
X2296Y782D02*
X2305Y782D01*
X2228Y781D02*
X2237Y781D01*
X2262Y781D02*
X2271Y781D01*
X2296Y781D02*
X2305Y781D01*
X2228Y780D02*
X2237Y780D01*
X2262Y780D02*
X2271Y780D01*
X2296Y780D02*
X2305Y780D01*
X2228Y779D02*
X2237Y779D01*
X2262Y779D02*
X2271Y779D01*
X2296Y779D02*
X2305Y779D01*
X2228Y778D02*
X2237Y778D01*
X2262Y778D02*
X2271Y778D01*
X2296Y778D02*
X2305Y778D01*
X2228Y777D02*
X2237Y777D01*
X2262Y777D02*
X2271Y777D01*
X2296Y777D02*
X2305Y777D01*
X2228Y776D02*
X2237Y776D01*
X2262Y776D02*
X2271Y776D01*
X2296Y776D02*
X2305Y776D01*
X2228Y775D02*
X2237Y775D01*
X2262Y775D02*
X2271Y775D01*
X2296Y775D02*
X2305Y775D01*
X2228Y774D02*
X2237Y774D01*
X2262Y774D02*
X2271Y774D01*
X2296Y774D02*
X2305Y774D01*
X2228Y773D02*
X2237Y773D01*
X2262Y773D02*
X2271Y773D01*
X2296Y773D02*
X2305Y773D01*
X2228Y772D02*
X2237Y772D01*
X2262Y772D02*
X2271Y772D01*
X2296Y772D02*
X2305Y772D01*
X2228Y771D02*
X2237Y771D01*
X2262Y771D02*
X2271Y771D01*
X2296Y771D02*
X2305Y771D01*
X2228Y770D02*
X2237Y770D01*
X2262Y770D02*
X2271Y770D01*
X2296Y770D02*
X2305Y770D01*
X2228Y769D02*
X2237Y769D01*
X2262Y769D02*
X2271Y769D01*
X2296Y769D02*
X2305Y769D01*
X2228Y768D02*
X2237Y768D01*
X2262Y768D02*
X2271Y768D01*
X2296Y768D02*
X2305Y768D01*
X2228Y767D02*
X2237Y767D01*
X2262Y767D02*
X2271Y767D01*
X2296Y767D02*
X2305Y767D01*
X2228Y766D02*
X2237Y766D01*
X2262Y766D02*
X2271Y766D01*
X2296Y766D02*
X2305Y766D01*
X2228Y765D02*
X2237Y765D01*
X2262Y765D02*
X2271Y765D01*
X2296Y765D02*
X2305Y765D01*
X2228Y764D02*
X2237Y764D01*
X2262Y764D02*
X2271Y764D01*
X2296Y764D02*
X2305Y764D01*
X2228Y763D02*
X2237Y763D01*
X2262Y763D02*
X2271Y763D01*
X2296Y763D02*
X2305Y763D01*
X2228Y762D02*
X2237Y762D01*
X2262Y762D02*
X2271Y762D01*
X2296Y762D02*
X2305Y762D01*
X2228Y761D02*
X2237Y761D01*
X2262Y761D02*
X2271Y761D01*
X2296Y761D02*
X2305Y761D01*
X2228Y760D02*
X2237Y760D01*
X2262Y760D02*
X2271Y760D01*
X2296Y760D02*
X2305Y760D01*
X2228Y759D02*
X2237Y759D01*
X2262Y759D02*
X2272Y759D01*
X2296Y759D02*
X2305Y759D01*
X2228Y758D02*
X2237Y758D01*
X2261Y758D02*
X2272Y758D01*
X2296Y758D02*
X2305Y758D01*
X2228Y757D02*
X2237Y757D01*
X2260Y757D02*
X2273Y757D01*
X2296Y757D02*
X2305Y757D01*
X2228Y756D02*
X2238Y756D01*
X2257Y756D02*
X2276Y756D01*
X2296Y756D02*
X2305Y756D01*
X2228Y755D02*
X2305Y755D01*
X2228Y754D02*
X2305Y754D01*
X2229Y753D02*
X2305Y753D01*
X2229Y752D02*
X2304Y752D01*
X2229Y751D02*
X2304Y751D01*
X2230Y750D02*
X2303Y750D01*
X2231Y749D02*
X2265Y749D01*
X2268Y749D02*
X2302Y749D01*
X2232Y748D02*
X2264Y748D01*
X2269Y748D02*
X2301Y748D01*
X2234Y747D02*
X2262Y747D01*
X2271Y747D02*
X2300Y747D01*
X2236Y746D02*
X2258Y746D01*
X2275Y746D02*
X2297Y746D01*
D02*
G04 End of Silk0*
M02*